<?xml version="1.0" encoding="UTF-8"?>
<svg width="77px" height="77px" viewBox="0 0 77 77" version="1.1" xmlns="http://www.w3.org/2000/svg" xmlns:xlink="http://www.w3.org/1999/xlink">
    <!-- Generator: Sketch 63.1 (92452) - https://sketch.com -->
    <title>user</title>
    <desc>Created with Sketch.</desc>
    <g id="Elearning-diabetes---Sanofi" stroke="none" stroke-width="1" fill="none" fill-rule="evenodd">
        <g id="Landing-sign-in" transform="translate(-435.000000, -1815.000000)" fill="#E5E5E5" fill-rule="nonzero">
            <g id="AUTORES" transform="translate(0.000000, 1705.000000)">
                <g id="user" transform="translate(435.000000, 110.000000)">
                    <path d="M77,38.5 C77,17.2718 59.7282,0 38.5,0 C17.2718,0 0,17.2718 0,38.5 C0,49.7126 4.8216,59.8192 12.4964,66.8612 L12.46,66.8934 L13.7088,67.9462 C13.79,68.0148 13.8782,68.0708 13.9594,68.138 C14.623,68.6882 15.3104,69.2104 16.0104,69.7158 C16.2372,69.8796 16.464,70.0434 16.695,70.203 C17.4426,70.7182 18.2098,71.2068 18.9938,71.6702 C19.1646,71.771 19.3368,71.869 19.509,71.967 C20.3672,72.4556 21.2436,72.9162 22.141,73.339 C22.2068,73.3698 22.274,73.3978 22.3398,73.4286 C25.2644,74.788 28.3864,75.7862 31.6512,76.3756 C31.7366,76.391 31.822,76.4064 31.9088,76.4218 C32.9224,76.5968 33.9472,76.7368 34.9846,76.8306 C35.1106,76.8418 35.2366,76.8488 35.364,76.86 C36.3972,76.9454 37.4416,77 38.5,77 C39.5486,77 40.5832,76.9454 41.6108,76.8628 C41.741,76.8516 41.8712,76.8446 42.0014,76.8334 C43.0304,76.7396 44.0468,76.6038 45.0506,76.4316 C45.1374,76.4162 45.2256,76.4008 45.3124,76.384 C48.5282,75.8072 51.6054,74.8314 54.4922,73.507 C54.5986,73.458 54.7064,73.4118 54.8128,73.3614 C55.6766,72.9554 56.5208,72.5172 57.3482,72.051 C57.554,71.9348 57.7584,71.8172 57.9628,71.6968 C58.716,71.253 59.4566,70.7896 60.1762,70.2968 C60.4352,70.1204 60.6886,69.9342 60.9448,69.7494 C61.5594,69.307 62.1628,68.8506 62.7494,68.3732 C62.8796,68.2682 63.0196,68.1772 63.147,68.0694 L64.428,66.9998 L64.3902,66.9676 C72.1322,59.9228 77,49.77 77,38.5 Z M2.8,38.5 C2.8,18.8146 18.8146,2.8 38.5,2.8 C58.1854,2.8 74.2,18.8146 74.2,38.5 C74.2,49.1078 69.545,58.6446 62.1754,65.1882 C61.7638,64.904 61.3494,64.6492 60.9252,64.4364 L49.0714,58.5102 C48.0074,57.9782 47.3466,56.9086 47.3466,55.72 L47.3466,51.5802 C47.621,51.2414 47.9108,50.8578 48.2104,50.4364 C49.7448,48.2692 50.9754,45.8584 51.8728,43.2642 C53.6466,42.4214 54.7918,40.6546 54.7918,38.6596 L54.7918,33.6966 C54.7918,32.4828 54.3466,31.3054 53.55,30.38 L53.55,23.8462 C53.6228,23.1182 53.8804,19.019 50.9138,15.6366 C48.3336,12.691 44.1574,11.2 38.5,11.2 C32.8426,11.2 28.6664,12.691 26.0862,15.6352 C23.1196,19.0176 23.3772,23.1196 23.45,23.8448 L23.45,30.3786 C22.6548,31.304 22.2082,32.4814 22.2082,33.6952 L22.2082,38.6582 C22.2082,40.1996 22.8998,41.6374 24.0842,42.6076 C25.2182,47.0498 27.552,50.4126 28.4144,51.5522 L28.4144,55.6038 C28.4144,56.7462 27.7914,57.7962 26.7876,58.345 L15.7178,64.3832 C15.365,64.575 15.015,64.799 14.665,65.0496 C7.3864,58.5088 2.8,49.0308 2.8,38.5 Z" id="Shape"></path>
                </g>
            </g>
        </g>
    </g>
</svg>