<?xml version="1.0" encoding="UTF-8"?>
<svg width="21px" height="22px" viewBox="0 0 21 22" version="1.1" xmlns="http://www.w3.org/2000/svg" xmlns:xlink="http://www.w3.org/1999/xlink">
    <title>settings</title>
    <g id="Elearning-eco-pulmonar-neonato---Chiesi" stroke="none" stroke-width="1" fill="none" fill-rule="evenodd">
        <g id="Curso-01-modulos" transform="translate(-165.000000, -2549.000000)" fill="#019FE3">
            <g id="foro" transform="translate(146.000000, 2300.000000)">
                <g id="settings" transform="translate(19.000000, 249.000000)">
                    <path d="M10.4936381,14.5147501 C8.54395389,14.5147501 6.956796,12.9256153 6.956796,10.9735026 C6.956796,9.02134567 8.54395389,7.43221087 10.4936381,7.43221087 C12.4433223,7.43221087 14.0304802,9.02134567 14.0304802,10.9735026 C14.0304802,12.9256153 12.4433223,14.5147501 10.4936381,14.5147501 M20.7239539,13.6161143 L18.8405855,12.5272249 C19.0306907,11.5002189 19.0306907,10.4467421 18.8405855,9.41973602 L20.7239539,8.33084668 C20.9405855,8.20685875 21.0378486,7.95016258 20.9671118,7.71112837 C20.4763749,6.13527324 19.640796,4.70987686 18.548796,3.52360322 C18.380796,3.34211429 18.1066907,3.29784869 17.8944802,3.42174809 L16.0111118,4.51068169 C15.2197434,3.82903581 14.3090065,3.30227525 13.3231118,2.95695936 L13.3231118,0.783562978 C13.3231118,0.535675654 13.1506907,0.318774245 12.9075328,0.265655533 C11.2850065,-0.0973665996 9.62269074,-0.0796160966 8.07974337,0.265655533 C7.83658547,0.318774245 7.66416442,0.535675654 7.66416442,0.783562978 L7.66416442,2.96143018 C6.68269074,3.3110841 5.77195389,3.83788893 4.97616442,4.51515252 L3.09721705,3.42617465 C2.88058547,3.30227525 2.61090126,3.34211429 2.44290126,3.52802978 C1.35090126,4.70987686 0.515322316,6.13527324 0.0245854737,7.71551066 C-0.0505724211,7.95458913 0.0511117895,8.21132958 0.267743368,8.33522897 L2.15111179,9.42416258 C1.96100653,10.4511686 1.96100653,11.5046897 2.15111179,12.5316072 L0.267743368,13.6205851 C0.0511117895,13.7445288 -0.0461513684,14.0012249 0.0245854737,14.2403034 C0.515322316,15.8161143 1.35090126,17.2415107 2.44290126,18.4277843 C2.61090126,18.6093175 2.88500653,18.6535831 3.09721705,18.5295952 L4.98058547,17.4407058 C5.77195389,18.122396 6.68269074,18.6491123 7.66858547,18.9943839 L7.66858547,21.1722511 C7.66858547,21.4201827 7.84100653,21.6370398 8.08416442,21.6902028 C9.70669074,22.0531807 11.3690065,22.0354302 12.9119539,21.6902028 C13.1551118,21.6370398 13.3275328,21.4201827 13.3275328,21.1722511 L13.3275328,18.9943839 C14.3090065,18.64473 15.2197434,18.1179252 16.0155328,17.4407058 L17.8989013,18.5295952 C18.1155328,18.6535831 18.3852171,18.6137441 18.5532171,18.4277843 C19.6452171,17.245893 20.480796,15.8205851 20.9715328,14.2403034 C21.0378486,13.9968427 20.9405855,13.7401022 20.7239539,13.6161143" id="Fill-1"></path>
                </g>
            </g>
        </g>
    </g>
</svg>