<?xml version="1.0" encoding="UTF-8"?>
<svg width="114px" height="115px" viewBox="0 0 114 115" version="1.1" xmlns="http://www.w3.org/2000/svg" xmlns:xlink="http://www.w3.org/1999/xlink">
    <title>icon-home-3</title>
    <defs>
        <polygon id="path-1" points="0.000178669276 0 65.8718049 0 65.8718049 69.8251928 0.000178669276 69.8251928"></polygon>
        <polygon id="path-3" points="0 0.149497266 82.9131018 0.149497266 82.9131018 67.2753906 0 67.2753906"></polygon>
    </defs>
    <g id="Elearning-eco-pulmonar-neonato---Chiesi" stroke="none" stroke-width="1" fill="none" fill-rule="evenodd">
        <g id="Landing-sign-in" transform="translate(-1053.000000, -835.000000)">
            <g id="en-que-consiste" transform="translate(142.000000, 660.000000)">
                <g id="Group-7" transform="translate(0.000000, 102.000000)">
                    <g id="01-copy-2" transform="translate(780.000000, 0.000000)">
                        <g id="icon-home-3" transform="translate(131.000000, 74.000000)">
                            <line x1="7.345" y1="112.822" x2="99" y2="112.822" id="Shape" stroke="#E5007D" stroke-width="2"></line>
                            <line x1="100.452" y1="112.822" x2="107.785" y2="112.822" id="Shape" stroke="#E5007D" stroke-width="2"></line>
                            <line x1="110.334" y1="112.822" x2="114" y2="112.822" id="Shape" stroke="#E5007D" stroke-width="2"></line>
                            <line x1="0.834" y1="112.822" x2="4.5" y2="112.822" id="Shape" stroke="#E5007D" stroke-width="2"></line>
                            <path d="M59.666,10.833 L47.016,10.833 C46.079,9 43.872,7.111 41.299,7.111 C40.483,7.111 39.705,7.304 38.991,7.591 C37.557,3.769 33.881,0.902 29.559,0.902 C23.998,0.902 19.49,7.168 19.479,10.834 L4.675,10.834" id="Shape" stroke="#BCC0C4" stroke-width="2"></path>
                            <line x1="13.839" y1="25.498" x2="1.008" y2="25.498" id="Shape" stroke="#BCC0C4" stroke-width="2"></line>
                            <line x1="17.505" y1="25.498" x2="21.173" y2="25.498" id="Shape" stroke="#BCC0C4" stroke-width="2"></line>
                            <line x1="63.333" y1="10.833" x2="66.998" y2="10.833" id="Shape" stroke="#BCC0C4" stroke-width="2"></line>
                            <line x1="70.665" y1="10.833" x2="74.331" y2="10.833" id="Shape" stroke="#BCC0C4" stroke-width="2"></line>
                            <circle id="Oval-Copy-3" fill="#E9EAEB" fill-rule="nonzero" cx="53.837" cy="64.837" r="41.837"></circle>
                            <g id="Group-19" transform="translate(21.000000, 23.000000)">
                                <path d="M54.8623828,23.2736701 L11.0096333,23.2736701 C10.3368622,23.2736701 9.79143366,23.8178713 9.79143366,24.4894904 C9.79143366,25.1611096 10.3368622,25.7053107 11.0096333,25.7053107 L54.8623828,25.7053107 C55.5353162,25.7053107 56.0805824,25.1611096 56.0805824,24.4894904 C56.0805824,23.8180334 55.5353162,23.2736701 54.8623828,23.2736701" id="Fill-1" fill="#2A5082"></path>
                                <g id="Group-5">
                                    <rect id="Rectangle" fill="#FFFFFF" x="0" y="0" width="66" height="83" rx="2"></rect>
                                    <mask id="mask-2" fill="white">
                                        <use xlink:href="#path-1"></use>
                                    </mask>
                                    <g id="Clip-4"></g>
                                    <path d="M1.21837828,69.8251928 C1.89114932,69.8251928 2.43657789,69.2811537 2.43657789,68.6093725 L2.43657789,5.34862051 C2.43657789,3.74017129 3.74768552,2.43162441 5.35928239,2.43162441 L60.5127012,2.43162441 C62.124298,2.43162441 63.4354057,3.74017129 63.4354057,5.34862051 L63.4354057,11.2994936 C63.4354057,11.9711127 63.9806718,12.5153139 64.6536053,12.5153139 C65.3265387,12.5153139 65.8718049,11.9711127 65.8718049,11.2994936 L65.8718049,5.34862051 C65.8718049,2.39936465 63.4677286,-1.62109375e-05 60.5127012,-1.62109375e-05 L5.35928239,-1.62109375e-05 C2.40425499,-1.62109375e-05 0.000178669276,2.39936465 0.000178669276,5.34862051 L0.000178669276,68.6093725 C0.000178669276,69.2811537 0.545607241,69.8251928 1.21837828,69.8251928" id="Fill-3" fill="#E5007D" mask="url(#mask-2)"></path>
                                </g>
                                <path d="M11.0096333,32.5769975 C10.3368622,32.5769975 9.79143366,33.1211986 9.79143366,33.7928178 C9.79143366,34.4644369 10.3368622,35.0086381 11.0096333,35.0086381 L54.8623828,35.0086381 C55.5353162,35.0086381 56.0805824,34.4644369 56.0805824,33.7928178 C56.0805824,33.1211986 55.5353162,32.5769975 54.8623828,32.5769975 L11.0096333,32.5769975 Z" id="Fill-6" fill="#E5007D"></path>
                                <path d="M12.0879511,63.0219 C11.5850783,63.4678629 11.5399237,64.2364234 11.9867593,64.738152 C12.4335949,65.2398805 13.2034971,65.2854332 13.7065323,64.8391461 C14.4181233,64.2077301 15.8492642,63.463648 17.1866849,63.029357 C18.88518,62.478023 19.6474481,62.6427262 19.7955812,62.7307516 C19.8061389,62.7725758 19.8173464,62.879568 19.7895714,63.0624273 C19.5941722,64.3474684 19.8802055,65.251066 20.6398748,65.7477691 C20.9847065,65.9734254 21.367546,66.0778238 21.7968395,66.0778238 C23.3275479,66.0776617 25.4472153,64.7478785 28.5172407,62.8215328 C29.0098806,62.5123902 29.5151898,62.1954664 30.0286204,61.8783805 C30.6006869,61.5246578 30.7772446,60.7753883 30.4231546,60.2047633 C30.0690646,59.633652 29.3184912,59.4576012 28.7460998,59.8106754 C28.2279589,60.1310035 27.7177769,60.4508453 27.2204266,60.7629059 C25.5956732,61.7824117 23.2463346,63.2567965 22.1785421,63.5795563 C22.1834149,63.5338414 22.1899119,63.482777 22.1983581,63.4273355 C22.3914834,62.1585055 21.9391252,61.1258688 20.9570939,60.5938258 C18.6326067,59.3340738 13.8260783,61.4799156 12.0879511,63.0219 Z" id="Fill-8" fill="#E5007D"></path>
                                <g id="Group-12" transform="translate(0.000000, 15.724609)">
                                    <mask id="mask-4" fill="white">
                                        <use xlink:href="#path-3"></use>
                                    </mask>
                                    <g id="Clip-11"></g>
                                    <path d="M78.6188507,16.3910734 L73.5590992,11.3412043 L75.402154,9.50158711 L80.4619055,14.5514562 L78.6188507,16.3910734 Z M78.8722362,20.1512004 L75.2629544,23.7534328 L66.1823321,14.6905461 L69.7914515,11.0884758 C69.8010346,11.0790734 69.8133791,11.0743723 69.8257235,11.0743723 C69.8380679,11.0743723 69.8504123,11.0789113 69.8598331,11.0884758 L78.8722362,20.0832766 C78.8912401,20.1019191 78.8912401,20.1323957 78.8722362,20.1512004 L78.8722362,20.1512004 Z M39.0288252,50.8535812 C37.9761384,49.8032746 38.6292558,47.703634 39.1121501,46.5458488 C39.7324573,45.0583332 40.8013869,43.3732062 41.9692342,42.0050031 L47.8935826,47.9177805 C45.0598879,50.3194309 40.6477313,52.4694875 39.0288252,50.8535812 L39.0288252,50.8535812 Z M64.459473,16.4100402 L67.1300914,19.0754426 L55.9549779,30.2288918 L53.2841971,27.5631652 L64.459473,16.4100402 Z M50.8875924,64.8437824 L50.6618194,64.8437824 C51.5676726,63.2703488 52.0510542,61.4804992 52.0510542,59.6243469 L52.0510542,56.3986945 C52.0510542,54.7904074 53.3621618,53.4818605 54.9737587,53.4818605 L58.2055611,53.4818605 C60.0653458,53.4818605 61.858698,52.999423 63.4353732,52.0953391 L63.4353732,52.320509 L63.4353732,52.320509 C63.4353732,59.225882 57.8064789,64.8437824 50.8875924,64.8437824 L50.8875924,64.8437824 Z M82.2120523,12.8593586 L77.0978879,7.75518281 C76.64488,7.30322187 76.0427646,7.05422187 75.4023164,7.05422187 C74.7618683,7.05422187 74.1597528,7.30322187 73.706745,7.75518281 L71.8364025,9.62187227 L71.5828546,9.36881953 C70.6139798,8.40216133 69.0379544,8.40199922 68.0687548,9.36881953 L65.8719348,11.5613488 L65.8719348,1.36531758 C65.8719348,0.693698438 65.3266687,0.149497266 64.6537352,0.149497266 C63.9808018,0.149497266 63.4355356,0.693698438 63.4355356,1.36531758 L63.4355356,13.9929895 L51.2493164,26.1555695 L11.0095845,26.1555695 C10.3368135,26.1555695 9.79138493,26.6996086 9.79138493,27.3713898 C9.79138493,28.0428469 10.3368135,28.5872102 11.0095845,28.5872102 L48.8127548,28.5872102 L40.4261814,36.9575656 C39.9567685,37.4258996 39.6983477,38.0487238 39.6983477,38.7111027 C39.6983477,39.2859426 39.8935845,39.8303059 40.2517352,40.270757 C38.8621755,41.8615363 37.6088918,43.8228977 36.8630288,45.6112883 C35.6657822,48.481759 35.9139701,50.3708195 36.5708233,51.5877746 L35.5848937,52.5717785 C35.1091462,53.046759 35.1091462,53.8164543 35.5848937,54.2911105 C35.8226863,54.5284387 36.1345454,54.6472648 36.4462421,54.6472648 C36.7579387,54.6472648 37.0697978,54.5284387 37.3075904,54.2911105 L38.2941697,53.3066203 C38.8964476,53.6305148 39.6619642,53.8555227 40.6305141,53.8555227 C41.6226159,53.8555227 42.8261971,53.620302 44.281702,53.0153098 C46.0734299,52.2712277 48.0386295,51.0203918 49.6326843,49.6335461 C50.0736726,49.9909973 50.6192636,50.1858527 51.1953908,50.1858527 C51.8590659,50.1858527 52.483109,49.9276125 52.9521971,49.4596027 L63.4353732,38.9969016 L63.4353732,49.1303586 C61.9754828,50.3709816 60.1379505,51.0498957 58.2057235,51.0498957 L54.9739211,51.0498957 C52.0188937,51.0498957 49.6148174,53.4494387 49.6148174,56.3985324 L49.6148174,59.6241848 C49.6148174,61.5524758 48.9342499,63.3865813 47.6915239,64.8436203 L5.3592499,64.8436203 C3.74765303,64.8436203 2.43638297,63.5350734 2.43638297,61.9266242 L2.43638297,58.6883273 C2.43638297,58.0168703 1.8909544,57.472507 1.21818337,57.472507 C0.545412329,57.472507 -1.62426614e-05,58.0168703 -1.62426614e-05,58.6883273 L-1.62426614e-05,61.9266242 C-1.62426614e-05,64.8758801 2.4042225,67.275423 5.3592499,67.275423 L50.8874299,67.275423 C59.149747,67.275423 65.8717724,60.5665266 65.8717724,52.320509 L65.8717724,36.5652609 L76.1241403,26.3329172 C76.1243027,26.3327551 76.1243027,26.3327551 76.1244652,26.3327551 L76.1246276,26.3324309 L80.5950953,21.8706945 C81.5638076,20.9037121 81.5638076,19.3306027 80.5950953,18.3636203 L80.3417098,18.1105676 L82.2122147,16.243716 C83.1468174,15.3106145 83.1468174,13.7924602 82.2120523,12.8593586 L82.2120523,12.8593586 Z" id="Fill-10" fill="#E5007D" mask="url(#mask-4)"></path>
                                </g>
                                <path d="M51.2298252,63.4641344 C51.2249524,63.4689977 51.2152068,63.4788863 51.1957157,63.4788863 C51.1746002,63.4788863 51.1664789,63.4689977 51.1616061,63.4641344 L42.1485532,54.4704684 C42.1438429,54.465443 42.1339348,54.4558785 42.1339348,54.4364254 C42.1339348,54.4153512 42.1438429,54.4072457 42.1485532,54.4023824 L51.5611755,45.007982 L54.4085141,47.8481383 C54.8356961,48.274648 55.3944436,48.4868492 55.9548155,48.4868492 C56.5151873,48.4868492 57.0755591,48.274648 57.5027411,47.8481383 L68.8531129,36.5200973 L73.540745,41.1969527 L51.2298252,63.4641344 Z" id="Fill-13" fill="#522583"></path>
                                <path d="M14.4124384,69.7385939 C13.7396673,69.7385939 13.1942387,70.2827951 13.1942387,70.9544143 C13.1942387,71.6261955 13.7396673,72.1702346 14.4124384,72.1702346 L27.5761409,72.1702346 C28.2489119,72.1702346 28.7943405,71.6261955 28.7943405,70.9544143 C28.7943405,70.2829572 28.2489119,69.7385939 27.5761409,69.7385939 L14.4124384,69.7385939 Z" id="Fill-15" fill="#E5007D"></path>
                                <path d="M11.0095683,16.4020807 L34.2986211,16.4020807 C34.9713922,16.4020807 35.5168207,15.8578795 35.5168207,15.1862604 C35.5168207,14.5146412 34.9713922,13.97044 34.2986211,13.97044 L11.0095683,13.97044 C10.3367973,13.97044 9.79136869,14.5146412 9.79136869,15.1862604 C9.79136869,15.8577174 10.3367973,16.4020807 11.0095683,16.4020807" id="Fill-17" fill="#E5007D"></path>
                            </g>
                        </g>
                    </g>
                </g>
            </g>
        </g>
    </g>
</svg>