<?xml version="1.0" encoding="UTF-8"?>
<svg width="79px" height="79px" viewBox="0 0 79 79" version="1.1" xmlns="http://www.w3.org/2000/svg" xmlns:xlink="http://www.w3.org/1999/xlink">
    <!-- Generator: Sketch 60 (88103) - https://sketch.com -->
    <title>educational</title>
    <desc>Created with Sketch.</desc>
    <g id="Curso-citomorfologia-hematologica" stroke="none" stroke-width="1" fill="none" fill-rule="evenodd">
        <g id="Landing" transform="translate(-142.000000, -1790.000000)" fill="#B17ACE" fill-rule="nonzero">
            <g id="Testimonials" transform="translate(-0.500000, 1176.000000)">
                <g id="educational" transform="translate(142.500000, 614.500000)">
                    <path d="M32.2807467,44.5192533 C32.6144,44.8529067 33.1537067,44.8529067 33.48736,44.5192533 C33.8210133,44.1856 33.8210133,43.6462933 33.48736,43.31264 C31.4914133,41.31584 28.2427733,41.31584 26.2468267,43.31264 C24.25088,45.3085867 24.25088,48.5572267 26.2468267,50.5531733 C27.2443733,51.5515733 28.5559467,52.0507733 29.86752,52.0507733 C31.1790933,52.0507733 32.4898133,51.5515733 33.4882133,50.5531733 C33.8218667,50.21952 33.8218667,49.6802133 33.4882133,49.34656 C33.15456,49.0129067 32.6152533,49.0129067 32.2816,49.34656 C30.9504,50.67776 28.78464,50.67776 27.4542933,49.34656 C26.80832,48.7022933 26.4533333,47.8446933 26.4533333,46.9333333 C26.4533333,46.0219733 26.80832,45.1643733 27.4525867,44.5192533 C28.7837867,43.1889067 30.9495467,43.1889067 32.2807467,44.5192533 L32.2807467,44.5192533 Z" id="Path"></path>
                    <path d="M78.3957333,42.2459733 C78.2446933,41.97888 77.9605333,41.8133333 77.6533333,41.8133333 L64.8533333,41.8133333 C64.5538133,41.8133333 64.2756267,41.9703467 64.1220267,42.2272 L61.8103467,46.08 L51.1786667,46.08 C50.7281067,34.71104 41.344,25.6 29.8666667,25.6 C18.1034667,25.6 8.53333333,35.1701333 8.53333333,46.9333333 C8.53333333,58.6965333 18.1034667,68.2666667 29.8666667,68.2666667 C41.344,68.2666667 50.7281067,59.1556267 51.1786667,47.7866667 L58.0010667,47.7866667 C57.7288533,56.78592 53.1831467,65.1255467 45.7019733,70.2242133 C44.39808,71.11424 42.99264,71.90784 41.5223467,72.58112 C41.4993067,72.5896533 41.4762667,72.59904 41.4532267,72.60928 C37.8146133,74.25792 33.9165867,75.0933333 29.8666667,75.0933333 C25.8167467,75.0933333 21.91872,74.25792 18.2801067,72.60928 C18.2587733,72.59904 18.2365867,72.5905067 18.2144,72.5828267 C16.7432533,71.9086933 15.3361067,71.1159467 14.03136,70.2242133 C6.31381333,64.9642667 1.70666667,56.2577067 1.70666667,46.9333333 C1.70666667,35.87584 8.19712,25.84064 18.2570667,21.2778667 L29.6772267,23.872 C29.7403733,23.8865067 29.80352,23.8933333 29.8666667,23.8933333 C29.9298133,23.8933333 29.99296,23.8865067 30.0561067,23.872 L41.4779733,21.2778667 C50.4337067,25.34144 56.69376,33.8730667 57.8346667,43.61984 C57.8850133,44.0533333 58.2536533,44.3733333 58.68032,44.3733333 C58.7136,44.3733333 58.74688,44.3716267 58.7810133,44.36736 C59.2494933,44.3127467 59.584,43.88864 59.5293867,43.4210133 C58.33984,33.2603733 51.9031467,24.3515733 42.6666667,19.9569067 L42.6666667,7.35232 L47.7866667,6.18837333 L47.7866667,10.0642133 L45.2957867,15.8762667 C45.1584,16.19712 45.23008,16.5691733 45.4766933,16.8157867 L48.0366933,19.3757867 C48.2030933,19.54304 48.4215467,19.6266667 48.64,19.6266667 C48.8584533,19.6266667 49.0769067,19.54304 49.2433067,19.37664 L51.8033067,16.81664 C52.04992,16.5700267 52.1216,16.1979733 51.9842133,15.87712 L49.4933333,10.0650667 L49.4933333,5.12 C49.4933333,4.72149333 49.2177067,4.37589333 48.82944,4.288 L30.0561067,0.0213333333 C29.93152,-0.00682666667 29.8026667,-0.00682666667 29.67808,0.0213333333 L10.9047467,4.288 C10.5156267,4.37589333 10.24,4.72149333 10.24,5.12 C10.24,5.51850667 10.5156267,5.86410667 10.9038933,5.952 L29.6772267,10.2186667 C29.7403733,10.2331733 29.80352,10.24 29.8666667,10.24 C29.9298133,10.24 29.99296,10.2331733 30.0561067,10.2186667 L40.96,7.74058667 L40.96,15.36 L38.4,15.36 C37.92896,15.36 37.5466667,15.7422933 37.5466667,16.2133333 C37.5466667,16.6843733 37.92896,17.0666667 38.4,17.0666667 L40.96,17.0666667 L40.96,19.6445867 L29.8666667,22.16448 L18.7733333,19.6445867 L18.7733333,10.24 C18.7733333,9.76896 18.39104,9.38666667 17.92,9.38666667 C17.44896,9.38666667 17.0666667,9.76896 17.0666667,10.24 L17.0666667,19.96032 C6.67818667,24.9002667 0,35.38688 0,46.9333333 C0,56.4804267 4.56362667,65.4062933 12.24192,71.0314667 L10.34496,72.9284267 C9.73568,73.5368533 9.38666667,74.3790933 9.38666667,75.2384 C9.38666667,76.1105067 9.72714667,76.9314133 10.34496,77.5483733 C10.96192,78.1661867 11.7828267,78.5066667 12.6549333,78.5066667 C13.51424,78.5066667 14.35648,78.1576533 14.9649067,77.5483733 L18.11968,74.3936 C21.8248533,75.9842133 25.7723733,76.8 29.8666667,76.8 C33.9618133,76.8 37.90848,75.9850667 41.6136533,74.3936 L44.7684267,77.5483733 C45.3768533,78.1576533 46.2190933,78.5066667 47.0784,78.5066667 C47.9505067,78.5066667 48.7714133,78.1661867 49.3883733,77.5483733 C50.0061867,76.9314133 50.3466667,76.1105067 50.3466667,75.2384 C50.3466667,74.3790933 49.9976533,73.5368533 49.3883733,72.9284267 L47.4914133,71.0314667 C54.94016,65.5744 59.4440533,57.0094933 59.70688,47.7866667 L61.8103467,47.7866667 L64.1220267,51.6394667 C64.2756267,51.89632 64.5538133,52.0533333 64.8533333,52.0533333 L77.6533333,52.0533333 C77.9605333,52.0533333 78.2446933,51.8877867 78.3957333,51.6206933 C78.5476267,51.3536 78.54336,51.0250667 78.38464,50.7613867 L76.08832,46.9333333 L78.38464,43.1061333 C78.54336,42.8424533 78.5476267,42.51392 78.3957333,42.2459733 Z M48.64,17.56672 L47.0920533,16.0187733 L48.64,12.4066133 L50.1879467,16.0187733 L48.64,17.56672 Z M29.8666667,8.512 L14.9435733,5.12 L29.8666667,1.728 L44.78976,5.12 L29.8666667,8.512 Z M13.7582933,76.34176 C13.1712,76.9288533 12.1386667,76.9297067 11.5515733,76.34176 C11.2554667,76.0465067 11.0933333,75.6548267 11.0933333,75.2384 C11.0933333,74.8288 11.2605867,74.4260267 11.5515733,74.13504 L13.66528,72.0213333 C14.5629867,72.6024533 15.4973867,73.14432 16.4667733,73.63328 L13.7582933,76.34176 Z M48.64,75.2384 C48.64,75.6548267 48.4778667,76.0465067 48.1809067,76.34176 C47.5946667,76.9288533 46.5621333,76.928 45.97504,76.34176 L43.2674133,73.6341333 C44.2368,73.1451733 45.1712,72.6033067 46.0689067,72.0221867 L48.1826133,74.1358933 C48.4727467,74.4260267 48.64,74.8279467 48.64,75.2384 L48.64,75.2384 Z M29.8666667,66.56 C19.0446933,66.56 10.24,57.7553067 10.24,46.9333333 C10.24,36.11136 19.0446933,27.3066667 29.8666667,27.3066667 C40.4027733,27.3066667 49.0231467,35.6522667 49.472,46.08 L47.744,46.08 C47.29344,36.5960533 39.45984,29.0133333 29.8666667,29.0133333 C19.9850667,29.0133333 11.9466667,37.0517333 11.9466667,46.9333333 C11.9466667,56.8149333 19.9850667,64.8533333 29.8666667,64.8533333 C39.45984,64.8533333 47.29344,57.2706133 47.7431467,47.7866667 L49.4711467,47.7866667 C49.0231467,58.2144 40.4027733,66.56 29.8666667,66.56 Z M42.6231467,46.08 C42.18112,39.4197333 36.63616,34.1333333 29.8666667,34.1333333 C22.8087467,34.1333333 17.0666667,39.8754133 17.0666667,46.9333333 C17.0666667,53.9912533 22.8087467,59.7333333 29.8666667,59.7333333 C36.63616,59.7333333 42.18112,54.4469333 42.6231467,47.7866667 L46.03648,47.7866667 C45.58848,56.3293867 38.5186133,63.1466667 29.8666667,63.1466667 C20.9262933,63.1466667 13.6533333,55.8737067 13.6533333,46.9333333 C13.6533333,37.99296 20.9262933,30.72 29.8666667,30.72 C38.5186133,30.72 45.58848,37.53728 46.03648,46.08 L42.6231467,46.08 Z M39.2098133,46.08 C38.7771733,41.30304 34.75456,37.5466667 29.8666667,37.5466667 C24.6912,37.5466667 20.48,41.7578667 20.48,46.9333333 C20.48,52.1088 24.6912,56.32 29.8666667,56.32 C34.75456,56.32 38.7771733,52.5636267 39.2098133,47.7866667 L40.91648,47.7866667 C40.47872,53.5048533 35.6957867,58.0266667 29.8666667,58.0266667 C23.7499733,58.0266667 18.7733333,53.0500267 18.7733333,46.9333333 C18.7733333,40.81664 23.7499733,35.84 29.8666667,35.84 C35.6957867,35.84 40.47872,40.3618133 40.91648,46.08 L39.2098133,46.08 Z M29.8666667,47.7866667 L37.49632,47.7866667 C37.0696533,51.6206933 33.81248,54.6133333 29.8666667,54.6133333 C25.6324267,54.6133333 22.1866667,51.1675733 22.1866667,46.9333333 C22.1866667,42.6990933 25.6324267,39.2533333 29.8666667,39.2533333 C33.81248,39.2533333 37.0696533,42.2459733 37.49632,46.08 L29.8666667,46.08 C29.3956267,46.08 29.0133333,46.4622933 29.0133333,46.9333333 C29.0133333,47.4043733 29.3956267,47.7866667 29.8666667,47.7866667 Z M74.3620267,46.4938667 C74.1998933,46.7643733 74.1998933,47.10144 74.3620267,47.3719467 L76.1463467,50.3466667 L73.9140267,50.3466667 L72.44288,47.4052267 C72.2321067,46.98368 71.72096,46.8130133 71.2977067,47.0237867 C70.87616,47.23456 70.7054933,47.7474133 70.9162667,48.16896 L72.0059733,50.3466667 L69.64736,50.3466667 L68.1762133,47.4052267 C67.96544,46.98368 67.45344,46.8130133 67.03104,47.0237867 C66.6094933,47.23456 66.4388267,47.7474133 66.6496,48.16896 L67.7393067,50.3466667 L65.3371733,50.3466667 L63.2891733,46.9333333 L65.3371733,43.52 L76.1463467,43.52 L74.3620267,46.4938667 Z" id="Shape"></path>
                    <path d="M56.32,27.3066667 L67.4133333,27.3066667 C67.8843733,27.3066667 68.2666667,26.9243733 68.2666667,26.4533333 C68.2666667,25.9822933 67.8843733,25.6 67.4133333,25.6 L56.32,25.6 C55.84896,25.6 55.4666667,25.9822933 55.4666667,26.4533333 C55.4666667,26.9243733 55.84896,27.3066667 56.32,27.3066667 Z" id="Path"></path>
                    <circle id="Oval" cx="70.8266667" cy="26.4533333" r="1"></circle>
                    <circle id="Oval" cx="74.24" cy="26.4533333" r="1"></circle>
                    <path d="M71.68,32.4266667 C71.68,31.9556267 71.2977067,31.5733333 70.8266667,31.5733333 L59.7333333,31.5733333 C59.2622933,31.5733333 58.88,31.9556267 58.88,32.4266667 C58.88,32.8977067 59.2622933,33.28 59.7333333,33.28 L70.8266667,33.28 C71.2977067,33.28 71.68,32.8977067 71.68,32.4266667 Z" id="Path"></path>
                    <circle id="Oval" cx="74.24" cy="32.4266667" r="1"></circle>
                    <path d="M63.1466667,39.2533333 L74.24,39.2533333 C74.71104,39.2533333 75.0933333,38.87104 75.0933333,38.4 C75.0933333,37.92896 74.71104,37.5466667 74.24,37.5466667 L63.1466667,37.5466667 C62.6756267,37.5466667 62.2933333,37.92896 62.2933333,38.4 C62.2933333,38.87104 62.6756267,39.2533333 63.1466667,39.2533333 Z" id="Path"></path>
                    <circle id="Oval" cx="77.6533333" cy="38.4" r="1"></circle>
                    <circle id="Oval" cx="77.6533333" cy="32.4266667" r="1"></circle>
                    <circle id="Oval" cx="77.6533333" cy="26.4533333" r="1"></circle>
                    <path d="M67.4133333,66.56 L56.32,66.56 C55.84896,66.56 55.4666667,66.9422933 55.4666667,67.4133333 C55.4666667,67.8843733 55.84896,68.2666667 56.32,68.2666667 L67.4133333,68.2666667 C67.8843733,68.2666667 68.2666667,67.8843733 68.2666667,67.4133333 C68.2666667,66.9422933 67.8843733,66.56 67.4133333,66.56 Z" id="Path"></path>
                    <circle id="Oval" cx="70.8266667" cy="67.4133333" r="1"></circle>
                    <circle id="Oval" cx="74.24" cy="67.4133333" r="1"></circle>
                    <path d="M70.8266667,60.5866667 L59.7333333,60.5866667 C59.2622933,60.5866667 58.88,60.96896 58.88,61.44 C58.88,61.91104 59.2622933,62.2933333 59.7333333,62.2933333 L70.8266667,62.2933333 C71.2977067,62.2933333 71.68,61.91104 71.68,61.44 C71.68,60.96896 71.2977067,60.5866667 70.8266667,60.5866667 Z" id="Path"></path>
                    <circle id="Oval" cx="74.24" cy="61.44" r="1"></circle>
                    <path d="M74.24,54.6133333 L63.1466667,54.6133333 C62.6756267,54.6133333 62.2933333,54.9956267 62.2933333,55.4666667 C62.2933333,55.9377067 62.6756267,56.32 63.1466667,56.32 L74.24,56.32 C74.71104,56.32 75.0933333,55.9377067 75.0933333,55.4666667 C75.0933333,54.9956267 74.71104,54.6133333 74.24,54.6133333 Z" id="Path"></path>
                    <circle id="Oval" cx="77.6533333" cy="55.4666667" r="1"></circle>
                    <circle id="Oval" cx="77.6533333" cy="61.44" r="1"></circle>
                    <circle id="Oval" cx="77.6533333" cy="67.4133333" r="1"></circle>
                </g>
            </g>
        </g>
    </g>
</svg>