<?xml version="1.0" encoding="UTF-8"?>
<svg width="18px" height="20px" viewBox="0 0 18 20" version="1.1" xmlns="http://www.w3.org/2000/svg" xmlns:xlink="http://www.w3.org/1999/xlink">
    <title>Fill 1</title>
    <g id="Elearning-eco-pulmonar-neonato---Chiesi" stroke="none" stroke-width="1" fill="none" fill-rule="evenodd">
        <g id="Curso-01-modulos" transform="translate(-167.000000, -2605.000000)" stroke="#522583">
            <g id="foro" transform="translate(146.000000, 2300.000000)">
                <g id="eraser" transform="translate(22.000000, 306.000000)">
                    <path d="M1.90000714,16.4179828 C1.95654286,17.3071898 2.70565,17.9998734 3.61072143,18.0000141 L12.3892929,18.0000141 C13.2943643,17.9998734 14.0434357,17.3071547 14.1000071,16.4179828 L14.85715,4.50001406 L1.14286429,4.50001406 L1.90000714,16.4179828 Z M15.4285786,1.12501406 L11.1428643,1.12501406 L10.8071143,0.467592188 C10.6620786,0.180892969 10.36465,-0.00023203125 10.0392571,7.84924675e-06 L5.95715,7.84924675e-06 C5.6324,-0.00121640625 5.33550714,0.180400781 5.19286429,0.467592188 L4.85715,1.12501406 L0.571435714,1.12501406 C0.255828571,1.12501406 7.1428567e-06,1.37683828 7.1428567e-06,1.68751406 L7.1428567e-06,2.81251406 C7.1428567e-06,3.12315469 0.255828571,3.37501406 0.571435714,3.37501406 L15.4285786,3.37501406 C15.7441857,3.37501406 16.0000071,3.12315469 16.0000071,2.81251406 L16.0000071,1.68751406 C16.0000071,1.37683828 15.7441857,1.12501406 15.4285786,1.12501406 L15.4285786,1.12501406 Z" id="Fill-1"></path>
                </g>
            </g>
        </g>
    </g>
</svg>