<?xml version="1.0" encoding="UTF-8"?>
<svg width="14px" height="9px" viewBox="0 0 14 9" version="1.1" xmlns="http://www.w3.org/2000/svg" xmlns:xlink="http://www.w3.org/1999/xlink">
    <title>remove_red_eye - material</title>
    <g id="Elearning-eco-pulmonar-neonato---Chiesi" stroke="none" stroke-width="1" fill="none" fill-rule="evenodd">
        <g id="Landing-sign-in" transform="translate(-518.000000, -429.000000)" fill="#019FE3">
            <g id="Login" transform="translate(192.000000, 209.000000)">
                <path d="M333,222.632 C333.308002,222.632 333.597332,222.711333 333.868,222.87 C334.138668,223.028667 334.353333,223.243332 334.512,223.514 C334.670667,223.784668 334.75,224.073998 334.75,224.382 C334.75,224.690002 334.670667,224.979332 334.512,225.25 C334.353333,225.520668 334.138668,225.735333 333.868,225.894 C333.597332,226.052667 333.308002,226.132 333,226.132 C332.691998,226.132 332.402668,226.052667 332.132,225.894 C331.861332,225.735333 331.646667,225.520668 331.488,225.25 C331.329333,224.979332 331.25,224.690002 331.25,224.382 C331.25,224.073998 331.329333,223.784668 331.488,223.514 C331.646667,223.243332 331.861332,223.028667 332.132,222.87 C332.402668,222.711333 332.691998,222.632 333,222.632 Z M333,227.308 C333.532003,227.308 334.021998,227.177335 334.47,226.916 C334.918002,226.654665 335.272665,226.300002 335.534,225.852 C335.795335,225.403998 335.926,224.914003 335.926,224.382 C335.926,223.849997 335.795335,223.360002 335.534,222.912 C335.272665,222.463998 334.918002,222.109335 334.47,221.848 C334.021998,221.586665 333.532003,221.456 333,221.456 C332.467997,221.456 331.978002,221.586665 331.53,221.848 C331.081998,222.109335 330.727335,222.463998 330.466,222.912 C330.204665,223.360002 330.074,223.849997 330.074,224.382 C330.074,224.914003 330.204665,225.403998 330.466,225.852 C330.727335,226.300002 331.081998,226.654665 331.53,226.916 C331.978002,227.177335 332.467997,227.308 333,227.308 Z M333,220 C333.961338,220 334.875996,220.186665 335.744,220.56 C336.584004,220.924002 337.323663,221.43733 337.963,222.1 C338.602337,222.76267 339.089998,223.523329 339.426,224.382 C339.089998,225.240671 338.602337,225.998997 337.963,226.657 C337.323663,227.315003 336.584004,227.825998 335.744,228.19 C334.875996,228.563335 333.961338,228.75 333,228.75 C332.038662,228.75 331.124004,228.563335 330.256,228.19 C329.415996,227.825998 328.676337,227.315003 328.037,226.657 C327.397663,225.998997 326.910002,225.240671 326.574,224.382 C326.910002,223.523329 327.397663,222.76267 328.037,222.1 C328.676337,221.43733 329.415996,220.924002 330.256,220.56 C331.124004,220.186665 332.038662,220 333,220 Z" id="remove_red_eye---material"></path>
            </g>
        </g>
    </g>
</svg>