<?xml version="1.0" encoding="UTF-8"?>
<svg width="72px" height="71px" viewBox="0 0 72 71" version="1.1" xmlns="http://www.w3.org/2000/svg" xmlns:xlink="http://www.w3.org/1999/xlink">
    <!-- Generator: Sketch 60 (88103) - https://sketch.com -->
    <title>analysis</title>
    <desc>Created with Sketch.</desc>
    <g id="Curso-citomorfologia-hematologica" stroke="none" stroke-width="1" fill="none" fill-rule="evenodd">
        <g id="Landing" transform="translate(-142.000000, -1299.000000)" fill="#B17ACE" fill-rule="nonzero">
            <g id="Testimonials" transform="translate(-0.500000, 1176.000000)">
                <g id="analysis" transform="translate(142.500000, 123.500000)">
                    <path d="M45.72722,17.78868 C47.65712,17.78868 49.22722,16.21858 49.22722,14.28868 C49.22722,12.35878 47.65712,10.78854 45.72722,10.78854 C43.79732,10.78854 42.22722,12.35878 42.22722,14.28868 C42.22722,15.07688 42.4893,15.80488 42.93072,16.39064 L37.18008,24.42678 C36.83694,24.31408 36.47084,24.2522 36.09032,24.2522 C35.17066,24.2522 34.33318,24.60934 33.70794,25.19146 L29.87488,23.01642 C29.92598,22.77898 29.95342,22.53286 29.95342,22.28044 C29.95342,20.35054 28.38332,18.78044 26.45342,18.78044 C24.52352,18.78044 22.95342,20.35054 22.95342,22.28044 C22.95342,22.53286 22.98086,22.77898 23.03196,23.01642 L19.1989,25.19146 C18.57366,24.60934 17.73618,24.25234 16.81652,24.25234 C14.88662,24.25234 13.31652,25.82258 13.31652,27.75248 C13.31652,29.68238 14.88662,31.25276 16.81652,31.25276 C18.74642,31.25276 20.31652,29.68238 20.31652,27.75248 C20.31652,27.50006 20.28908,27.25394 20.23798,27.0165 L24.07104,24.84146 C24.69628,25.42358 25.53376,25.78072 26.45342,25.78072 C27.37308,25.78072 28.21042,25.42358 28.8358,24.8416 L32.66886,27.01664 C32.61776,27.25408 32.59032,27.5002 32.59032,27.75262 C32.59032,29.68252 34.16042,31.25276 36.09032,31.25276 C38.02036,31.25276 39.59046,29.68252 39.59046,27.75262 C39.59046,26.96428 39.32824,26.23614 38.88682,25.65038 L44.63746,17.61424 C44.98046,17.7268 45.3467,17.78868 45.72722,17.78868 Z M45.72722,12.88854 C46.49918,12.88854 47.12722,13.51658 47.12722,14.28868 C47.12722,15.06064 46.49918,15.68868 45.72722,15.68868 C44.95526,15.68868 44.32722,15.06064 44.32722,14.28868 C44.32708,13.51658 44.95512,12.88854 45.72722,12.88854 Z M16.8161,29.15234 C16.04414,29.15234 15.4161,28.5243 15.4161,27.7522 C15.4161,26.9801 16.04414,26.35206 16.8161,26.35206 C17.58806,26.35206 18.2161,26.9801 18.2161,27.7522 C18.2161,28.5243 17.58806,29.15234 16.8161,29.15234 Z M26.45314,23.68044 C25.68118,23.68044 25.05314,23.0524 25.05314,22.2803 C25.05314,21.50834 25.68118,20.8803 26.45314,20.8803 C27.2251,20.8803 27.85314,21.50834 27.85314,22.2803 C27.85328,23.0524 27.2251,23.68044 26.45314,23.68044 Z M36.09018,29.15234 C35.31822,29.15234 34.69018,28.5243 34.69018,27.7522 C34.69018,26.9801 35.31822,26.35206 36.09018,26.35206 C36.86228,26.35206 37.49032,26.9801 37.49032,27.7522 C37.49032,28.5243 36.86214,29.15234 36.09018,29.15234 Z" id="Shape"></path>
                    <path d="M58.63144,51.9351 L51.2834,51.9351 L11.25992,51.9351 L2.9701,51.9351 C2.49032,51.9351 2.1,51.54478 2.1,51.065 L2.1,7.74634 C2.1,7.26656 2.49032,6.87624 2.9701,6.87624 L7.91994,6.87624 C8.49982,6.87624 8.96994,6.40626 8.96994,5.82624 C8.96994,5.24622 8.49982,4.77624 7.91994,4.77624 L2.9701,4.77624 C1.33238,4.77624 0,6.10862 0,7.74634 L0,51.065 C0,52.70272 1.33238,54.0351 2.9701,54.0351 L10.20992,54.0351 L10.20992,56.34594 C10.20992,57.66236 11.28092,58.73336 12.59734,58.73336 L23.1077,58.73336 L18.1601,68.39308 C17.89578,68.90926 18.09976,69.54192 18.61594,69.80638 C18.7691,69.88492 18.93262,69.92202 19.09376,69.92202 C19.47526,69.92202 19.84332,69.71342 20.0291,69.3504 L25.46712,58.73336 L37.0762,58.73336 L42.51422,69.3504 C42.70014,69.71342 43.06806,69.92202 43.44956,69.92202 C43.6107,69.92202 43.77422,69.88464 43.92738,69.80638 C44.44356,69.54192 44.64768,68.90926 44.38322,68.39308 L39.43562,58.73336 L49.94598,58.73336 C51.2624,58.73336 52.3334,57.6625 52.3334,56.34594 L52.3334,54.0351 L58.63144,54.0351 C59.21132,54.0351 59.68144,53.56512 59.68144,52.9851 C59.68144,52.40508 59.21132,51.9351 58.63144,51.9351 Z M50.2334,56.34594 C50.2334,56.50442 50.10446,56.63336 49.94598,56.63336 L12.59734,56.63336 C12.43886,56.63336 12.30992,56.50442 12.30992,56.34594 L12.30992,54.0351 L50.2334,54.0351 L50.2334,56.34594 Z" id="Shape"></path>
                    <path d="M12.11994,6.87624 L26.49402,6.87624 L36.04916,6.87624 L59.57308,6.87624 C60.05286,6.87624 60.44318,7.26656 60.44318,7.74634 L60.44318,17.72988 C60.44318,18.3099 60.9133,18.77988 61.49318,18.77988 C62.07306,18.77988 62.54318,18.3099 62.54318,17.72988 L62.54318,7.74634 C62.54318,6.10862 61.2108,4.77624 59.57308,4.77624 L37.0993,4.77624 L37.0993,2.71236 C37.0993,1.25986 35.91756,0.07812 34.46492,0.07812 L28.0784,0.07812 C26.6259,0.07812 25.44402,1.25986 25.44402,2.71236 L25.44402,4.77624 L12.11994,4.77624 C11.54006,4.77624 11.06994,5.24622 11.06994,5.82624 C11.06994,6.40626 11.54006,6.87624 12.11994,6.87624 Z M27.54402,2.71236 C27.54402,2.4178 27.7837,2.17812 28.0784,2.17812 L34.46492,2.17812 C34.75948,2.17812 34.9993,2.4178 34.9993,2.71236 L34.9993,4.77624 L27.54416,4.77624 L27.54416,2.71236 L27.54402,2.71236 Z" id="Shape"></path>
                    <path d="M14.68628,36.62064 C14.1064,36.62064 13.63628,37.09062 13.63628,37.67064 L13.63628,46.94872 C13.63628,47.52874 14.1064,47.99872 14.68628,47.99872 L18.94606,47.99872 C19.52594,47.99872 19.99606,47.52874 19.99606,46.94872 L19.99606,37.67064 C19.99606,37.09062 19.52594,36.62064 18.94606,36.62064 L14.68628,36.62064 Z M17.89606,45.89886 L15.73628,45.89886 L15.73628,38.72078 L17.89606,38.72078 L17.89606,45.89886 L17.89606,45.89886 Z" id="Shape"></path>
                    <path d="M24.32318,31.25472 C23.7433,31.25472 23.27318,31.7247 23.27318,32.30472 L23.27318,46.94886 C23.27318,47.52888 23.7433,47.99886 24.32318,47.99886 L28.58296,47.99886 C29.16284,47.99886 29.63296,47.52888 29.63296,46.94886 L29.63296,32.30472 C29.63296,31.7247 29.16284,31.25472 28.58296,31.25472 L24.32318,31.25472 Z M27.5331,45.89886 L25.37332,45.89886 L25.37332,33.35472 L27.5331,33.35472 L27.5331,45.89886 Z" id="Shape"></path>
                    <path d="M33.96022,36.62064 C33.38034,36.62064 32.91022,37.09062 32.91022,37.67064 L32.91022,46.94872 C32.91022,47.52874 33.38034,47.99872 33.96022,47.99872 L38.22,47.99872 C38.79988,47.99872 39.27,47.52874 39.27,46.94872 L39.27,37.67064 C39.27,37.09062 38.79988,36.62064 38.22,36.62064 L33.96022,36.62064 Z M37.17,45.89886 L35.01022,45.89886 L35.01022,38.72078 L37.17,38.72078 L37.17,45.89886 Z" id="Shape"></path>
                    <path d="M43.59726,42.81648 C43.01738,42.81648 42.54726,43.28646 42.54726,43.86648 L42.54726,46.94886 C42.54726,47.52888 43.01738,47.99886 43.59726,47.99886 L47.85704,47.99886 C48.43692,47.99886 48.90704,47.52888 48.90704,46.94886 C48.90704,46.36884 48.43692,45.89886 47.85704,45.89886 L44.64726,45.89886 L44.64726,43.86648 C44.64726,43.28646 44.17714,42.81648 43.59726,42.81648 Z" id="Path"></path>
                    <path d="M71.1445,52.92266 L65.12072,42.48902 C66.64686,40.86236 67.75818,38.87478 68.35178,36.65942 C69.30056,33.11868 68.81364,29.4203 66.98076,26.24566 C63.19712,19.69184 54.78718,17.43882 48.23378,21.22232 C41.68024,25.00582 39.42694,33.41576 43.21058,39.9693 C45.04346,43.14394 48.00292,45.41474 51.54366,46.36366 C52.7261,46.68048 53.92576,46.83714 55.11786,46.83714 C56.15974,46.83714 57.1956,46.7173 58.20864,46.48014 L64.23116,56.91406 C64.96938,58.19324 66.31366,58.90892 67.69434,58.90892 C68.37096,58.90892 69.0564,58.73686 69.68346,58.3751 C70.9149,57.66432 71.68,56.33894 71.68,54.91626 C71.68,54.2192 71.49492,53.52998 71.1445,52.92266 Z M52.08714,44.3352 C49.0882,43.5316 46.5815,41.60814 45.02904,38.9193 C41.82444,33.36858 43.73306,26.24566 49.28364,23.04092 C51.10966,21.98672 53.10508,21.48608 55.076,21.48608 C59.0961,21.48608 63.01162,23.5711 65.16202,27.29566 C66.71434,29.9845 67.12678,33.11686 66.32318,36.11594 C65.51958,39.11502 63.59612,41.62144 60.90728,43.1739 C58.21858,44.72636 55.08622,45.13852 52.08714,44.3352 Z M68.63388,56.55622 C67.73046,57.07786 66.57126,56.76734 66.05004,55.86434 L60.25572,45.82578 C60.83644,45.58876 61.40512,45.31156 61.95756,44.99264 C62.51042,44.67344 63.03402,44.31812 63.52976,43.9334 L69.32576,53.97238 C69.49208,54.26092 69.58,54.5874 69.58,54.9164 C69.58,55.59092 69.2174,56.21938 68.63388,56.55622 Z" id="Shape"></path>
                    <path d="M64.61588,36.06554 C65.35718,33.6777 65.18064,31.1213 64.11874,28.8673 C63.8715,28.34258 63.24598,28.11774 62.7214,28.36484 C62.19668,28.61208 61.97184,29.2376 62.21908,29.76218 C63.0567,31.54018 63.19572,33.55744 62.61038,35.44268 C62.02182,37.33828 60.75034,38.9291 59.03016,39.92226 C57.20988,40.97338 55.08902,41.25226 53.05888,40.70836 C51.0286,40.16432 49.33152,38.86218 48.28068,37.0419 C46.1111,33.28416 47.4033,28.462 51.16104,26.29242 C53.90854,24.70636 57.31824,24.91832 59.84818,26.8324 C60.31074,27.1824 60.96916,27.09126 61.31902,26.6287 C61.66888,26.16628 61.57774,25.50772 61.11518,25.15786 C57.91044,22.73292 53.59088,22.46454 50.1109,24.47368 C47.80482,25.80508 46.1552,27.95492 45.46598,30.527 C44.77676,33.09908 45.13054,35.78568 46.46194,38.09176 C47.79334,40.39798 49.94318,42.04746 52.51526,42.73682 C53.37416,42.96698 54.2458,43.0808 55.1117,43.0808 C56.83902,43.0808 58.54408,42.62776 60.08002,41.74086 C62.2594,40.48282 63.87024,38.46738 64.61588,36.06554 Z" id="Path"></path>
                </g>
            </g>
        </g>
    </g>
</svg>