<?xml version="1.0" encoding="UTF-8"?>
<svg width="18px" height="19px" viewBox="0 0 18 19" version="1.1" xmlns="http://www.w3.org/2000/svg" xmlns:xlink="http://www.w3.org/1999/xlink">
    <title>Shape</title>
    <g id="Elearning-eco-pulmonar-neonato---Chiesi" stroke="none" stroke-width="1" fill="none" fill-rule="evenodd">
        <g id="Curso-contraseña" transform="translate(-480.000000, -404.000000)" fill="#522583" fill-rule="nonzero">
            <g id="Login-Copy" transform="translate(435.000000, 359.000000)">
                <g id="Group" transform="translate(30.000000, 30.000000)">
                    <path d="M32.7504575,30.6454371 C32.7417766,30.5277168 32.6912234,30.414514 32.6083085,30.3300769 L25.4438617,22.8733741 C25.7257341,22.1822657 25.8745213,21.4338252 25.8745213,20.6603392 C25.8745213,19.1487098 25.3080319,17.7264336 24.2827341,16.6566538 C23.2559681,15.589 21.8903936,15 20.4371809,15 C18.983266,15 17.6200532,15.5891993 16.5916277,16.6575175 C14.4697341,18.8647727 14.4692872,22.4549091 16.5913085,24.661965 C17.6196702,25.732542 18.9833298,26.3221399 20.4364787,26.3221399 C21.1798404,26.3221399 21.8971596,26.166021 22.5627766,25.8722517 L24.9164362,28.3237832 C25.0143511,28.4244301 25.1434787,28.4778427 25.2828192,28.4731259 L26.5654787,28.4262902 L26.5236064,29.7645944 C26.5196489,29.9057657 26.5686064,30.0431503 26.6669043,30.1436643 C26.7616277,30.2441119 26.8947128,30.2987203 27.0297766,30.293007 L28.3171596,30.2472343 L28.2709468,31.5840769 C28.2669255,31.7253811 28.3190745,31.8630315 28.4137979,31.9635455 C28.5117128,32.063993 28.6257766,32.1180035 28.7801809,32.1130874 L30.0643724,32.0676469 L30.0213511,33.4046888 C30.0138192,33.5529685 30.0738192,33.6956014 30.1756915,33.7968462 C30.2696489,33.8858007 30.3869043,33.9336993 30.5104787,33.9336993 C30.5282234,33.9336993 30.5464149,33.9329021 30.5645426,33.9312413 L32.5337553,33.7036399 C32.7998617,33.6734126 32.9936489,33.4262797 32.9707979,33.1487203 L32.7504575,30.6454371 Z M19.7803085,19.9768706 C19.1754575,20.6057308 18.1975851,20.6057308 17.5940107,19.9768706 C16.9895426,19.3478112 16.9895426,18.3302483 17.5940107,17.7017867 C18.1975851,17.0733252 19.1751383,17.0727273 19.7803085,17.7015874 C20.3839468,18.3299825 20.3835638,19.3482098 19.7803085,19.9768706 Z M31.0695,30.8161713 C30.9976277,30.8909755 30.9013085,30.9283112 30.8077341,30.9283112 C30.7141596,30.9283112 30.6177766,30.8909091 30.5459681,30.8161713 L24.4501596,24.4698392 C24.619883,24.2793741 24.7742234,24.0788776 24.9143936,23.8680839 L31.0694362,30.2729441 C31.2131809,30.4225524 31.2131809,30.6666294 31.0695,30.8161713 Z" id="Shape"></path>
                </g>
            </g>
        </g>
    </g>
</svg>