<?xml version="1.0" encoding="UTF-8" standalone="no"?>
<svg
   xmlns:dc="http://purl.org/dc/elements/1.1/"
   xmlns:cc="http://creativecommons.org/ns#"
   xmlns:rdf="http://www.w3.org/1999/02/22-rdf-syntax-ns#"
   xmlns:svg="http://www.w3.org/2000/svg"
   xmlns="http://www.w3.org/2000/svg"
   xmlns:sodipodi="http://sodipodi.sourceforge.net/DTD/sodipodi-0.dtd"
   xmlns:inkscape="http://www.inkscape.org/namespaces/inkscape"
   width="48px"
   height="48px"
   viewBox="0 0 48 48"
   version="1.1"
   id="svg2"
   inkscape:version="0.91 r13725"
   sodipodi:docname="lock.svg">
  <metadata
     id="metadata18">
    <rdf:RDF>
      <cc:Work
         rdf:about="">
        <dc:format>image/svg+xml</dc:format>
        <dc:type
           rdf:resource="http://purl.org/dc/dcmitype/StillImage" />
      </cc:Work>
    </rdf:RDF>
  </metadata>
  <defs
     id="defs16" />
  <sodipodi:namedview
     pagecolor="#ffffff"
     bordercolor="#666666"
     borderopacity="1"
     objecttolerance="10"
     gridtolerance="10"
     guidetolerance="10"
     inkscape:pageopacity="0"
     inkscape:pageshadow="2"
     inkscape:window-width="640"
     inkscape:window-height="480"
     id="namedview14"
     showgrid="false"
     inkscape:zoom="7.0416667"
     inkscape:cx="2.2011834"
     inkscape:cy="24"
     inkscape:current-layer="lock" />
  <!-- Generator: Sketch 63.1 (92452) - https://sketch.com -->
  <title
     id="title4">lock</title>
  <desc
     id="desc6">Created with Sketch.</desc>
  <g
     id="GEMINIS-EII"
     stroke="none"
     stroke-width="1"
     fill="none"
     fill-rule="evenodd">
    <g
       id="Landing-sign-in"
       transform="translate(-222.000000, -277.000000)">
      <g
         id="Login"
         transform="translate(192.000000, 247.000000)">
        <g
           id="lock"
           transform="translate(30.000000, 30.000000)">
          <circle
             id="Oval"
             fill="#F9F9F9"
             cx="24"
             cy="24"
             r="24" />
          <path
             d="M26.58,20.68 L26.58,19 C26.58,18.5466644 26.4633345,18.120002 26.23,17.72 C25.9966655,17.319998 25.680002,17.0033345 25.28,16.77 C24.879998,16.5366655 24.4533356,16.42 24,16.42 C23.5466644,16.42 23.120002,16.5366655 22.72,16.77 C22.319998,17.0033345 22.0033345,17.319998 21.77,17.72 C21.5366655,18.120002 21.42,18.5466644 21.42,19 L21.42,20.68 L26.58,20.68 Z M24,28.18 C24.4533356,28.18 24.846665,28.013335 25.18,27.68 C25.513335,27.346665 25.68,26.9533356 25.68,26.5 C25.68,26.0466644 25.513335,25.653335 25.18,25.32 C24.846665,24.986665 24.4533356,24.82 24,24.82 C23.5466644,24.82 23.153335,24.986665 22.82,25.32 C22.486665,25.653335 22.32,26.0466644 22.32,26.5 C22.32,26.9533356 22.486665,27.346665 22.82,27.68 C23.153335,28.013335 23.5466644,28.18 24,28.18 Z M29,20.68 C29.4533356,20.68 29.846665,20.8399984 30.18,21.16 C30.513335,21.4800016 30.68,21.8666644 30.68,22.32 L30.68,30.68 C30.68,31.1333356 30.513335,31.5199984 30.18,31.84 C29.846665,32.1600016 29.4533356,32.32 29,32.32 L19,32.32 C18.5466644,32.32 18.153335,32.1600016 17.82,31.84 C17.486665,31.5199984 17.32,31.1333356 17.32,30.68 L17.32,22.32 C17.32,21.8666644 17.486665,21.4800016 17.82,21.16 C18.153335,20.8399984 18.5466644,20.68 19,20.68 L19.82,20.68 L19.82,19 C19.82,18.2399962 20.0066648,17.5400032 20.38,16.9 C20.7533352,16.2599968 21.2599968,15.7533352 21.9,15.38 C22.5400032,15.0066648 23.2399962,14.82 24,14.82 C24.7600038,14.82 25.4599968,15.0066648 26.1,15.38 C26.7400032,15.7533352 27.2466648,16.2599968 27.62,16.9 C27.9933352,17.5400032 28.18,18.2399962 28.18,19 L28.18,20.68 L29,20.68 Z"
             id="lock---material"
             fill="#78C4DC" />
          <path
             style="fill:#78c4dc;fill-opacity:1"
             d="M 18.390533,32.160498 C 18.23432,32.094514 17.946746,31.86872 17.751479,31.658731 l -0.355029,-0.381798 -0.04428,-4.426632 c -0.02817,-2.816026 0.01014,-4.611984 0.105283,-4.936057 0.220318,-0.750443 0.620445,-1.04021 1.550952,-1.123182 l 0.802243,-0.07154 0.08336,-1.420119 c 0.09635,-1.641373 0.30429,-2.218817 1.116166,-3.099599 1.589162,-1.724036 4.390476,-1.724036 5.979638,0 0.811876,0.880782 1.019814,1.458226 1.116166,3.099599 l 0.08336,1.420119 0.802243,0.07154 c 0.930507,0.08297 1.330634,0.372739 1.550952,1.123182 0.09516,0.324135 0.133455,2.122656 0.105283,4.944754 l -0.04428,4.435331 -0.464133,0.464077 -0.464134,0.464079 -5.500363,0.02899 c -3.0252,0.01595 -5.628174,-0.025 -5.784387,-0.09098 z m 6.466186,-4.200772 c 0.511033,-0.264265 0.847423,-0.881436 0.847423,-1.554759 0,-0.378344 -0.122772,-0.640146 -0.486129,-1.036638 C 24.777117,24.887228 24.663783,24.83787 24,24.83787 c -0.663783,0 -0.777117,0.04936 -1.218013,0.530459 -0.549092,0.599163 -0.638908,1.247376 -0.271326,1.9582 0.403992,0.781235 1.491951,1.074873 2.346058,0.633197 z m 1.81416,-7.923962 c 0.063,-0.986625 -0.219538,-2.16155 -0.639934,-2.661163 -1.225743,-1.456712 -3.515491,-1.214156 -4.389086,0.464943 -0.222209,0.427097 -0.43012,2.36951 -0.29212,2.729133 0.07682,0.200193 0.40695,0.223523 2.682541,0.189569 l 2.594939,-0.03872 0.04366,-0.683763 z"
             id="path3381"
             inkscape:connector-curvature="0" />
          <path
             style="fill:#522583;fill-opacity:1"
             d="M 18.390533,32.160498 C 18.23432,32.094514 17.946746,31.86872 17.751479,31.658731 l -0.355029,-0.381798 -0.04428,-4.426632 c -0.02898,-2.896953 0.009,-4.608027 0.109927,-4.951558 0.20152,-0.685998 0.747477,-1.10821 1.433011,-1.10821 0.946839,0 0.986546,-0.05102 0.986546,-1.267525 0,-1.45746 0.28981,-2.372047 1.011411,-3.191829 0.875104,-0.994171 1.791899,-1.410332 3.106932,-1.410332 1.315033,0 2.231828,0.416161 3.106932,1.410332 0.721601,0.819782 1.011411,1.734369 1.011411,3.191829 0,1.216508 0.03971,1.267525 0.986546,1.267525 0.685534,0 1.231491,0.422212 1.433011,1.10821 0.100935,0.343596 0.138908,2.057064 0.109927,4.960255 l -0.04428,4.435331 -0.464133,0.464077 -0.464134,0.464079 -5.500363,0.02899 c -3.0252,0.01595 -5.628174,-0.025 -5.784387,-0.09098 z m 6.472835,-4.227631 c 0.448224,-0.264772 0.841079,-0.958299 0.840243,-1.483323 -0.0012,-0.758751 -0.936629,-1.68268 -1.703611,-1.68268 -0.800379,0 -1.702528,0.928428 -1.703611,1.753237 -0.0016,1.248195 1.472313,2.059401 2.566979,1.412766 z m 1.677919,-7.364095 c 0.03769,-0.03769 0.05607,-0.549732 0.04085,-1.137866 -0.04036,-1.559099 -0.49714,-2.353393 -1.624194,-2.824307 -0.68939,-0.288045 -1.324475,-0.271463 -2.039519,0.05325 -0.90481,0.410891 -1.342899,1.095239 -1.484778,2.319402 -0.170848,1.474127 -0.165515,1.521752 0.187655,1.675603 0.311778,0.13582 4.776195,0.05771 4.919985,-0.08608 z"
             id="path3383"
             inkscape:connector-curvature="0" />
        </g>
      </g>
    </g>
  </g>
</svg>
