<?xml version="1.0" encoding="UTF-8"?>
<svg width="121px" height="33px" viewBox="0 0 121 33" version="1.1" xmlns="http://www.w3.org/2000/svg" xmlns:xlink="http://www.w3.org/1999/xlink">
    <title>edikamed</title>
    <defs>
        <polygon id="path-1" points="0 32.6015385 119.51234 32.6015385 119.51234 0.601538462 0 0.601538462"></polygon>
    </defs>
    <g id="Elearning-eco-pulmonar-neonato---Chiesi" stroke="none" stroke-width="1" fill="none" fill-rule="evenodd">
        <g id="Landing-sign-in" transform="translate(-142.000000, -36.000000)">
            <g id="header" transform="translate(142.000000, 8.000000)">
                <g id="edikamed" transform="translate(0.000000, 28.000000)">
                    <polygon id="Fill-1" fill="#00759F" points="27.425 17 30.425 17 30.425 1 27.425 1"></polygon>
                    <polygon id="Fill-2" fill="#00759F" points="42.8536685 1 35.0056159 8.44072948 35.0056159 1 32.425 1 32.425 18 35.0056159 18 35.0056159 8.98249977 42.5366395 18 46.1872283 18 38.0047101 8.60592245 46.425 1"></polygon>
                    <polygon id="Fill-3" fill="#00759F" points="0.425 1 0.425 18 9.425 18 9.425 15.5549876 2.92149996 15.5549876 2.92149996 10.448098 9.425 10.448098 9.425 8.29824077 2.92149996 8.29824077 2.92149996 3.16238372 9.425 3.16238372 9.425 1"></polygon>
                    <g id="Group-32" transform="translate(0.425000, 0.000000)">
                        <path d="M13.7000681,15.5222862 L13.7000681,2.52282462 L16.8450894,2.52282462 C21.3313021,2.52282462 23.0861106,4.86531692 23.0861106,9.01341692 C23.0861106,13.5255323 20.9873872,15.5222862 16.8918128,15.5222862 L13.7000681,15.5222862 Z M17.0656851,17.1413169 C23.3526638,17.1413169 25.8175149,14.2307169 25.8175149,8.96696308 C25.8175149,3.55014 23.0654298,0.903032308 16.9860255,0.903032308 L11.0337702,0.903032308 L11.0337702,17.1413169 L17.0656851,17.1413169 Z" id="Fill-4" fill="#00759F"></path>
                        <mask id="mask-2" fill="white">
                            <use xlink:href="#path-1"></use>
                        </mask>
                        <g id="Clip-7"></g>
                        <polygon id="Fill-6" fill="#00759F" mask="url(#mask-2)" points="0 20.2812923 119.232 20.2812923 119.232 17.4567462 0 17.4567462"></polygon>
                        <polygon id="Fill-8" fill="#00759F" mask="url(#mask-2)" points="63.3208596 17.2617923 76.1544766 0.748592308 78.7280936 0.748592308 78.8046894 13.7366308 88.3883489 0.7524 90.9167745 0.748592308 90.9167745 17.2617923 88.4526894 17.2617923 88.4526894 4.5243 78.4048596 17.2617923 76.5826468 17.2617923 76.5826468 4.5243 66.2138809 17.2617923"></polygon>
                        <polygon id="Fill-9" fill="#00759F" mask="url(#mask-2)" points="93.2740085 17.0327215 102.357498 17.0327215 102.357498 14.6544369 95.7940085 14.6544369 95.7940085 9.68692154 102.357498 9.68692154 102.357498 7.59573692 95.7940085 7.59573692 95.7940085 2.60004462 102.357498 2.60004462 102.357498 0.496675385 93.2740085 0.496675385"></polygon>
                        <path d="M106.97446,15.5222862 L106.97446,2.52282462 L110.119481,2.52282462 C114.605694,2.52282462 116.360502,4.86531692 116.360502,9.01341692 C116.360502,13.5255323 114.261013,15.5222862 110.166204,15.5222862 L106.97446,15.5222862 Z M110.340077,17.1413169 C116.627055,17.1413169 119.09114,14.2307169 119.09114,8.96696308 C119.09114,3.55014 116.339821,0.903032308 110.260417,0.903032308 L104.308162,0.903032308 L104.308162,17.1413169 L110.340077,17.1413169 Z" id="Fill-10" fill="#00759F" mask="url(#mask-2)"></path>
                        <path d="M46.6568426,0.456618462 L49.0887574,0.456618462 L61.6014383,17.2614877 L58.8148851,17.2614877 L54.875566,11.7327185 L49.0887574,11.7327185 L49.0887574,17.2614877 L46.6568426,17.2614877 L46.6568426,0.456618462 Z M53.1605872,9.97889538 L48.8750553,4.32980308 L48.8750553,9.97889538 L53.1605872,9.97889538 Z" id="Fill-11" fill="#00759F" mask="url(#mask-2)"></path>
                        <path d="M3.99171064,29.4478546 C4.01315745,28.5652315 3.61102979,27.8821315 2.63902979,27.8821315 C1.80490213,27.8821315 1.3085617,28.5857931 1.3085617,29.4478546 L3.99171064,29.4478546 Z M1.3085617,30.1408546 C1.23426383,31.0653623 1.61417872,32.0210931 2.63902979,32.0210931 C3.42107234,32.0210931 3.8124766,31.7164777 3.92813617,30.95037 L4.98515745,30.95037 C4.82660426,32.1475085 3.89673191,32.7460777 2.62907234,32.7460777 C0.927880851,32.7460777 0.251540426,31.5489392 0.251540426,29.9938777 C0.251540426,28.4494777 1.03358298,27.1571469 2.71332766,27.1571469 C4.29809362,27.1891315 5.04796596,28.1875085 5.04796596,29.6473777 L5.04796596,30.1408546 L1.3085617,30.1408546 Z" id="Fill-12" fill="#00759F" mask="url(#mask-2)"></path>
                        <path d="M7.29084255,30.3722862 C7.31228936,31.4430092 7.93501277,31.8428169 8.96062979,31.8428169 C9.82692766,31.8428169 10.883183,31.5907477 10.883183,30.5291631 C10.883183,29.7942785 10.270417,29.4896631 9.63697021,29.3640092 C8.37926809,29.0898554 6.2874383,28.8065631 6.2874383,27.1052862 C6.2874383,25.4557938 7.79790638,24.8465631 9.22411915,24.8465631 C10.5239489,24.8465631 11.8023319,25.4245708 11.8023319,26.8951015 L10.6932255,26.8951015 C10.6510979,26.0437015 9.93262979,25.7505092 9.17203404,25.7505092 C8.42139574,25.7505092 7.39654468,26.02314 7.39654468,26.9270862 C7.39654468,27.7876246 8.00931064,27.8401708 8.67492766,28.0503554 C10.0804596,28.5019477 11.9922894,28.5019477 11.9922894,30.4141708 C11.9922894,32.1367708 10.4396936,32.7460015 8.89705532,32.7460015 C7.30156596,32.7460015 6.13960851,32.0735631 6.18173617,30.3722862 L7.29084255,30.3722862 Z" id="Fill-13" fill="#00759F" mask="url(#mask-2)"></path>
                        <path d="M15.6830553,30.0250246 C15.0702894,30.0570092 14.2568426,30.2778554 14.2568426,31.0447246 C14.2568426,31.6950785 14.7110553,32.0210169 15.3023745,32.0210169 C16.4857787,32.0210169 16.7079064,31.0020785 16.6872255,30.0250246 L15.6830553,30.0250246 Z M16.6872255,29.3320246 C16.6872255,28.4181785 16.6336085,27.8828169 15.5666298,27.8828169 C15.059566,27.8828169 14.5839064,28.1760092 14.5739489,28.7227938 L13.5169277,28.7227938 C13.5697787,27.5667785 14.4789702,27.1570708 15.5245021,27.1570708 C16.6129277,27.1570708 17.6906298,27.4830092 17.6906298,28.9543015 L17.6906298,31.4749938 C17.6906298,31.70574 17.7013532,32.1474323 17.7327574,32.5883631 L17.056417,32.5883631 C16.9614383,32.5883631 16.7822043,32.6416708 16.7714809,32.5152554 C16.750034,32.2730862 16.7293532,32.0415785 16.7186298,31.8009323 L16.697183,31.8009323 C16.3693532,32.4627092 15.778034,32.7460015 15.0488426,32.7460015 C14.1296936,32.7460015 13.1998213,32.2730862 13.1998213,31.2442477 C13.1998213,29.7622938 14.5203319,29.3320246 15.778034,29.3320246 L16.6872255,29.3320246 Z" id="Fill-14" fill="#00759F" mask="url(#mask-2)"></path>
                        <polygon id="Fill-15" fill="#00759F" mask="url(#mask-2)" points="19.4890213 32.5885154 20.4931915 32.5885154 20.4931915 25.0043538 19.4890213 25.0043538"></polygon>
                        <path d="M25.9674128,27.3150138 L26.971583,27.3150138 L26.971583,32.5886677 L25.9880936,32.5886677 L25.9880936,31.8111369 L25.9674128,31.8111369 C25.5660511,32.4729138 24.8897106,32.7463062 24.1497957,32.7463062 C23.0406894,32.7463062 22.4072426,31.9055677 22.4072426,30.8447446 L22.4072426,27.3150138 L23.4106468,27.3150138 L23.4106468,30.4350369 C23.4106468,31.3488831 23.6212851,32.0213215 24.5833277,32.0213215 C24.9954128,32.0213215 25.5553277,31.8111369 25.7667319,31.2651138 C25.9566894,30.7708754 25.9674128,30.1517446 25.9674128,30.0253292 L25.9674128,27.3150138 Z" id="Fill-16" fill="#00759F" mask="url(#mask-2)"></path>
                        <path d="M31.0414979,32.0530015 C32.2563064,32.0530015 32.5412426,30.9282092 32.5412426,29.9420169 C32.5412426,28.9855246 32.1827745,27.8508323 31.0414979,27.8508323 C29.8366468,27.8508323 29.5417532,28.9543015 29.5417532,29.9420169 C29.5417532,30.9282092 29.9109447,32.0530015 31.0414979,32.0530015 L31.0414979,32.0530015 Z M32.5312851,25.0042015 L33.5346894,25.0042015 L33.5346894,31.6539554 C33.5346894,31.9692323 33.5668596,32.2837477 33.5875404,32.5883631 L32.5626894,32.5883631 L32.5312851,31.8009323 L32.5312851,31.7483862 L32.5098383,31.7483862 C32.1506043,32.4832708 31.453583,32.7460015 30.6822638,32.7460015 C29.1082213,32.7460015 28.4847319,31.3074554 28.4847319,29.9519169 C28.4847319,28.5232708 29.2139234,27.1570708 30.8622638,27.1570708 C31.5378383,27.1570708 32.2034553,27.39924 32.5098383,28.0297938 L32.5312851,28.0297938 L32.5312851,25.0042015 Z" id="Fill-17" fill="#00759F" mask="url(#mask-2)"></path>
                        <path d="M39.1599574,30.2778554 C38.430766,30.2778554 37.8386809,29.6998477 37.8386809,28.9642015 C37.8287234,28.2392169 38.4200426,27.6513092 39.1599574,27.6513092 C39.8891489,27.6513092 40.4804681,28.2392169 40.4804681,28.9642015 C40.4804681,29.6891862 39.8891489,30.2778554 39.1599574,30.2778554" id="Fill-18" fill="#00759F" mask="url(#mask-2)"></path>
                        <polygon id="Fill-19" fill="#00759F" mask="url(#mask-2)" points="44.741566 32.5885154 44.741566 25.0043538 49.528034 25.0043538 49.528034 25.9083 45.7978213 25.9083 45.7978213 28.2713538 49.348034 28.2713538 49.348034 29.1745385 45.7978213 29.1745385 45.7978213 31.6845692 49.6122894 31.6845692 49.6122894 32.5885154"></polygon>
                        <path d="M53.5347574,32.0530015 C54.749566,32.0530015 55.0345021,30.9282092 55.0345021,29.9420169 C55.0345021,28.9855246 54.676034,27.8508323 53.5347574,27.8508323 C52.3299064,27.8508323 52.0350128,28.9543015 52.0350128,29.9420169 C52.0350128,30.9282092 52.4042043,32.0530015 53.5347574,32.0530015 L53.5347574,32.0530015 Z M55.0245447,25.0042015 L56.0279489,25.0042015 L56.0279489,31.6539554 C56.0279489,31.9692323 56.0593532,32.2837477 56.081566,32.5883631 L55.0559489,32.5883631 L55.0245447,31.8009323 L55.0245447,31.7483862 L55.0030979,31.7483862 C54.6446298,32.4832708 53.9468426,32.7460015 53.1755234,32.7460015 C51.6014809,32.7460015 50.9779915,31.3074554 50.9779915,29.9519169 C50.9779915,28.5232708 51.707183,27.1570708 53.3555234,27.1570708 C54.0310979,27.1570708 54.6967149,27.39924 55.0030979,28.0297938 L55.0245447,28.0297938 L55.0245447,25.0042015 Z" id="Fill-20" fill="#00759F" mask="url(#mask-2)"></path>
                        <path d="M57.8382128,32.5885154 L58.841617,32.5885154 L58.841617,27.3148615 L57.8382128,27.3148615 L57.8382128,32.5885154 Z M57.7424681,26.0865 L58.9365957,26.0865 L58.9365957,25.0043538 L57.7424681,25.0043538 L57.7424681,26.0865 Z" id="Fill-21" fill="#00759F" mask="url(#mask-2)"></path>
                        <path d="M63.6926553,29.0061623 C63.6398043,28.3443854 63.3226979,27.8821315 62.6042298,27.8821315 C61.6429532,27.8821315 61.2722298,28.7122085 61.2722298,29.9519931 C61.2722298,31.1910162 61.6429532,32.0210931 62.6042298,32.0210931 C63.2698468,32.0210931 63.6819319,31.5908238 63.734783,30.8338546 L64.7381872,30.8338546 C64.6539319,32.0210931 63.7669532,32.7460777 62.5935064,32.7460777 C60.8923149,32.7460777 60.2159745,31.5489392 60.2159745,29.9938777 C60.2159745,28.4502392 60.998017,27.1571469 62.6777617,27.1571469 C63.7983574,27.1571469 64.6432085,27.86157 64.6968255,29.0061623 L63.6926553,29.0061623 Z" id="Fill-22" fill="#00759F" mask="url(#mask-2)"></path>
                        <path d="M66.0622979,32.5885154 L67.0657021,32.5885154 L67.0657021,27.3148615 L66.0622979,27.3148615 L66.0622979,32.5885154 Z M65.9665532,26.0865 L67.1606809,26.0865 L67.1606809,25.0043538 L65.9665532,25.0043538 L65.9665532,26.0865 Z" id="Fill-23" fill="#00759F" mask="url(#mask-2)"></path>
                        <path d="M72.8145957,25.0043538 L71.5362128,26.5167692 L70.8491489,26.5167692 L71.7154468,25.0043538 L72.8145957,25.0043538 Z M71.261234,32.0211692 C72.4545957,32.0211692 72.846,31.0761 72.846,29.9520692 C72.846,28.8280385 72.4545957,27.8822077 71.261234,27.8822077 C70.0671064,27.8822077 69.6764681,28.8280385 69.6764681,29.9520692 C69.6764681,31.0761 70.0671064,32.0211692 71.261234,32.0211692 L71.261234,32.0211692 Z M73.9030213,29.9520692 C73.9030213,31.5901385 73.0045532,32.7461538 71.261234,32.7461538 C69.5179149,32.7461538 68.6194468,31.5901385 68.6194468,29.9520692 C68.6194468,28.3132385 69.5179149,27.1572231 71.261234,27.1572231 C73.0045532,27.1572231 73.9030213,28.3132385 73.9030213,29.9520692 L73.9030213,29.9520692 Z" id="Fill-24" fill="#00759F" mask="url(#mask-2)"></path>
                        <path d="M76.4199574,28.0928492 L76.4406383,28.0928492 C76.7791915,27.4310723 77.5191064,27.1569185 78.0468511,27.1569185 C78.4160426,27.1569185 80.0544255,27.2521108 80.0544255,28.9434877 L80.0544255,32.5882108 L79.0510213,32.5882108 L79.0510213,29.2694262 C79.0510213,28.3967031 78.6810638,27.9245492 77.8362128,27.9245492 C77.8362128,27.9245492 77.2862553,27.8925646 76.8634468,28.3129338 C76.715617,28.4599108 76.4406383,28.6914185 76.4406383,29.7210185 L76.4406383,32.5882108 L75.437234,32.5882108 L75.437234,27.3153185 L76.4199574,27.3153185 L76.4199574,28.0928492 Z" id="Fill-25" fill="#00759F" mask="url(#mask-2)"></path>
                        <polygon id="Fill-26" fill="#00759F" mask="url(#mask-2)" points="91.8281106 25.7606377 91.8074298 25.7606377 89.3663234 32.5885915 88.3728766 32.5885915 85.9325362 25.7606377 85.9110894 25.7606377 85.9110894 32.5885915 84.854834 32.5885915 84.854834 25.00443 86.745983 25.00443 88.9435149 31.2543762 88.9649617 31.2543762 91.120366 25.00443 92.884366 25.00443 92.884366 32.5885915 91.8281106 32.5885915"></polygon>
                        <path d="M98.3514638,25.0043538 L97.0730809,26.5167692 L96.386783,26.5167692 L97.2523149,25.0043538 L98.3514638,25.0043538 Z M98.1408255,29.4479308 C98.1615064,28.5653077 97.7601447,27.8822077 96.7881447,27.8822077 C95.9532511,27.8822077 95.4569106,28.5858692 95.4569106,29.4479308 L98.1408255,29.4479308 Z M95.4569106,30.1409308 C95.3826128,31.0654385 95.7625277,32.0211692 96.7881447,32.0211692 C97.5694213,32.0211692 97.9600596,31.7165538 98.0772511,30.9504462 L99.1335064,30.9504462 C98.9741872,32.1475846 98.0458468,32.7461538 96.7766553,32.7461538 C95.0762298,32.7461538 94.3998894,31.5490154 94.3998894,29.9939538 C94.3998894,28.4495538 95.1819319,27.1572231 96.8624426,27.1572231 C98.4464426,27.1892077 99.1970809,28.1875846 99.1970809,29.6474538 L99.1970809,30.1409308 L95.4569106,30.1409308 Z" id="Fill-27" fill="#00759F" mask="url(#mask-2)"></path>
                        <path d="M102.865711,32.0530015 C104.080519,32.0530015 104.366221,30.9282092 104.366221,29.9420169 C104.366221,28.9855246 104.006987,27.8508323 102.865711,27.8508323 C101.661626,27.8508323 101.3652,28.9543015 101.3652,29.9420169 C101.3652,30.9282092 101.735157,32.0530015 102.865711,32.0530015 L102.865711,32.0530015 Z M104.355498,25.0042015 L105.359668,25.0042015 L105.359668,31.6539554 C105.359668,31.9692323 105.391072,32.2837477 105.411753,32.5883631 L104.386902,32.5883631 L104.355498,31.8009323 L104.355498,31.7483862 L104.334051,31.7483862 C103.974817,32.4832708 103.277796,32.7460015 102.506477,32.7460015 C100.932434,32.7460015 100.308945,31.3074554 100.308945,29.9519169 C100.308945,28.5232708 101.03737,27.1570708 102.686477,27.1570708 C103.362051,27.1570708 104.028434,27.39924 104.334051,28.0297938 L104.355498,28.0297938 L104.355498,25.0042015 Z" id="Fill-28" fill="#00759F" mask="url(#mask-2)"></path>
                        <path d="M107.16817,32.5885154 L108.17234,32.5885154 L108.17234,27.3148615 L107.16817,27.3148615 L107.16817,32.5885154 Z M107.073191,26.0865 L108.268085,26.0865 L108.268085,25.0043538 L107.073191,25.0043538 L107.073191,26.0865 Z" id="Fill-29" fill="#00759F" mask="url(#mask-2)"></path>
                        <path d="M113.022843,29.0061623 C112.969991,28.3443854 112.653651,27.8821315 111.934417,27.8821315 C110.97314,27.8821315 110.603183,28.7122085 110.603183,29.9519931 C110.603183,31.1910162 110.97314,32.0210931 111.934417,32.0210931 C112.600034,32.0210931 113.012119,31.5908238 113.065736,30.8338546 L114.068374,30.8338546 C113.984119,32.0210931 113.09714,32.7460777 111.923694,32.7460777 C110.223268,32.7460777 109.546928,31.5489392 109.546928,29.9938777 C109.546928,28.4502392 110.328204,27.1571469 112.008715,27.1571469 C113.128545,27.1571469 113.973396,27.86157 114.027013,29.0061623 L113.022843,29.0061623 Z" id="Fill-30" fill="#00759F" mask="url(#mask-2)"></path>
                        <path d="M117.463021,30.0250246 C116.850255,30.0570092 116.036809,30.2778554 116.036809,31.0447246 C116.036809,31.6950785 116.491021,32.0210169 117.08234,32.0210169 C118.265745,32.0210169 118.487872,31.0020785 118.467191,30.0250246 L117.463021,30.0250246 Z M118.467191,29.3320246 C118.467191,28.4181785 118.413574,27.8828169 117.347362,27.8828169 C116.840298,27.8828169 116.363872,28.1760092 116.353915,28.7227938 L115.296894,28.7227938 C115.349745,27.5667785 116.258936,27.1570708 117.304468,27.1570708 C118.392894,27.1570708 119.470596,27.4830092 119.470596,28.9543015 L119.470596,31.4749938 C119.470596,31.70574 119.481319,32.1474323 119.512723,32.5883631 L118.836383,32.5883631 C118.741404,32.5883631 118.56217,32.6416708 118.551447,32.5152554 C118.530766,32.2730862 118.508553,32.0415785 118.498596,31.8009323 L118.477149,31.8009323 C118.149319,32.4627092 117.558,32.7460015 116.829574,32.7460015 C115.910426,32.7460015 114.980553,32.2730862 114.980553,31.2442477 C114.980553,29.7622938 116.300298,29.3320246 117.558,29.3320246 L118.467191,29.3320246 Z" id="Fill-31" fill="#00759F" mask="url(#mask-2)"></path>
                    </g>
                </g>
            </g>
        </g>
    </g>
</svg>