<?xml version="1.0" encoding="UTF-8"?>
<svg width="18px" height="17px" viewBox="0 0 18 17" version="1.1" xmlns="http://www.w3.org/2000/svg" xmlns:xlink="http://www.w3.org/1999/xlink">
    <!-- Generator: Sketch 54.1 (76490) - https://sketchapp.com -->
    <title>Fill 1</title>
    <desc>Created with Sketch.</desc>
    <g id="CC-Alergia---Leti" stroke="none" stroke-width="1" fill="none" fill-rule="evenodd">
        <g id="Curso-registro" transform="translate(-677.000000, -347.000000)" fill="#2A5082">
            <g id="Login-Copy" transform="translate(630.000000, 302.000000)">
                <g id="Group-3" transform="translate(47.000000, 45.000000)">
                    <path d="M9,8.5001044 C10.9772783,8.5001044 12.5860354,6.89136709 12.5860354,4.91411307 C12.5860354,2.93685904 10.9772783,1.32812174 9,1.32812174 C7.02272169,1.32812174 5.41396463,2.93685904 5.41396463,4.91411307 C5.41396463,6.89136709 7.02272169,8.5001044 9,8.5001044 M12.1876566,16.3358347 C12.1876566,16.7026811 11.8903341,17 11.5234832,17 L2.49210268,17 C1.39342913,17 0.5,16.106373 0.5,15.0079218 L0.5,13.7791847 C0.5,12.6333378 0.99150086,11.5442822 1.84839106,10.7915894 C2.54221322,10.1817099 3.87097765,9.27826973 6.00673053,8.80848921 C4.83936379,7.90922489 4.08582658,6.4980042 4.08582658,4.91411307 C4.08582658,2.2046278 6.29027266,0 9,0 C11.7097273,0 13.9141734,2.2046278 13.9141734,4.91411307 C13.9141734,7.62359833 11.7097273,9.82801734 9,9.82801734 C5.35090887,9.82801734 3.39597151,11.1995677 2.72511668,11.7891944 C2.15510931,12.2898761 1.82792926,13.0152172 1.82792926,13.7791847 L1.82792926,15.0079218 C1.82792926,15.373933 2.12608696,15.6718783 2.49210268,15.6718783 L11.5234832,15.6718783 C11.8903341,15.6718783 12.1876566,15.9689883 12.1876566,16.3358347 M17.5,13.6798001 C17.5,14.0464377 17.2028863,14.3437565 16.8360354,14.3437565 L14.8437239,14.3437565 L14.8437239,16.3358347 C14.8437239,16.7026811 14.5466102,17 14.1797593,17 C13.8129084,17 13.5155859,16.7026811 13.5155859,16.3358347 L13.5155859,14.3437565 L11.5234832,14.3437565 C11.1566323,14.3437565 10.8593098,14.0464377 10.8593098,13.6798001 C10.8593098,13.3129537 11.1566323,13.0156348 11.5234832,13.0156348 L13.5155859,13.0156348 L13.5155859,11.0235566 C13.5155859,10.6567102 13.8129084,10.3593913 14.1797593,10.3593913 C14.5466102,10.3593913 14.8437239,10.6567102 14.8437239,11.0235566 L14.8437239,13.0156348 L16.8360354,13.0156348 C17.2028863,13.0156348 17.5,13.3129537 17.5,13.6798001" id="Fill-1"></path>
                </g>
            </g>
        </g>
    </g>
</svg>