<?xml version="1.0" encoding="UTF-8"?>
<svg width="111px" height="40px" viewBox="0 0 111 40" version="1.1" xmlns="http://www.w3.org/2000/svg" xmlns:xlink="http://www.w3.org/1999/xlink">
    <title>chiesi</title>
    <defs>
        <polygon id="path-1" points="0.278748 0.309186 5.245308 0.309186 5.245308 9 0.278748 9"></polygon>
    </defs>
    <g id="Elearning-eco-pulmonar-neonato---Chiesi" stroke="none" stroke-width="1" fill="none" fill-rule="evenodd">
        <g id="Landing-sign-in" transform="translate(-1197.000000, -2932.000000)">
            <g id="Footer" transform="translate(0.000000, 2881.000000)">
                <g id="Group-52" transform="translate(1197.000000, 51.000000)">
                    <line x1="0" y1="26.704728" x2="108.8172" y2="26.704728" id="Stroke-1" stroke="#DADADA" stroke-width="0.5"></line>
                    <path d="M24.886764,10.817964 L19.889964,2.332764 L17.683164,5.914764 L19.425564,8.989164 L13.730364,8.989164 L13.730364,9.082764 L13.816764,9.082764 C14.782284,9.039204 15.600204,9.785844 15.644124,10.751364 C15.687684,11.716524 14.940684,12.534804 13.975524,12.578364 C13.922604,12.580884 13.869684,12.580884 13.816764,12.578364 C13.787964,12.580164 13.759164,12.580164 13.730364,12.578364 L13.730364,12.758364 L19.339164,12.758364 L17.798364,15.548364 L19.889964,19.105164 L24.886764,10.817964 Z" id="Fill-3" fill="#009FE3"></path>
                    <path d="M14.281164,10.817964 C14.311044,11.811564 13.529844,12.641364 12.535884,12.671244 C11.542284,12.701124 10.712484,11.919924 10.682604,10.925964 C10.653084,9.932364 11.434284,9.102564 12.428244,9.072684 C12.445524,9.072324 12.463524,9.071964 12.481164,9.071964 C13.460004,9.057924 14.265324,9.839124 14.281164,10.817964" id="Fill-5" fill="#009FE3"></path>
                    <polygon id="Fill-7" fill="#009FE3" points="18.698364 0.356508 16.577964 3.996108 8.384364 3.996108 4.431564 10.702908 8.499564 17.503308 16.577964 17.503308 18.640764 21.081348 6.292764 21.081348 0.104364 10.648908 6.321564 0.356508"></polygon>
                    <path d="M47.307672,7.084908 L47.559672,5.954508 C48.585672,0.028908 45.518472,0.000108 40.147272,0.000108 C33.804072,0.000108 30.805272,1.486908 29.347272,8.107308 L28.299672,12.848508 C27.046872,18.889308 27.867672,21.286908 35.499672,21.013308 C40.899672,20.790108 44.542872,21.013308 45.835272,14.778108 L46.134072,13.428108 L42.001272,13.428108 L41.749272,14.558508 C41.097672,17.510508 39.589272,17.622108 36.252072,17.622108 C31.932072,17.622108 31.572072,16.819308 32.461272,12.686508 L33.472872,8.092908 C34.372872,4.039308 35.236872,3.376908 39.398472,3.376908 C42.998472,3.376908 43.956072,3.542508 43.423272,5.940108 L43.174872,7.070508 L47.307672,7.084908 Z M54.900072,0.172908 L51.282072,0.172908 L46.702872,20.847708 L50.320872,20.847708 L52.088472,12.877308 C52.657272,10.285308 53.406072,8.848908 56.566872,8.848908 C58.892472,8.848908 59.220072,9.568908 58.759272,11.664108 L56.725272,20.847708 L60.343272,20.847708 L62.452872,11.304108 C63.234072,7.776108 62.376912,6.202908 58.413672,6.202908 C56.289672,6.202908 54.432072,6.426108 53.157672,8.546508 L53.046072,8.546508 L54.900072,0.172908 Z M69.965712,6.368508 L66.365712,6.368508 L63.165672,20.847708 L66.765672,20.847708 L69.965712,6.368508 Z M71.352072,0.172908 L67.752072,0.172908 L67.085712,3.117708 L70.685712,3.117708 L71.352072,0.172908 Z M80.424072,16.243308 C79.948872,18.403308 78.548472,18.367308 76.539672,18.367308 C73.299672,18.367308 73.429272,17.377308 74.116872,14.259708 L84.481272,14.259708 C85.881312,7.945308 85.431312,6.206508 79.228872,6.206508 C73.144872,6.206508 71.780112,8.467308 70.635672,13.651308 C69.396912,19.252908 70.182072,21.013308 75.952872,21.013308 C80.272872,21.013308 83.034072,20.790108 84.042072,16.239708 L80.424072,16.243308 Z M74.606472,12.052908 C75.175272,9.489708 75.513672,8.852508 78.645672,8.852508 C81.601272,8.852508 82.011312,9.075708 81.352872,12.052908 L74.606472,12.052908 Z M100.565712,10.310508 C101.462472,6.260508 97.941312,6.202908 94.985712,6.202908 C91.115712,6.202908 88.113672,6.292908 87.245712,10.252908 C86.432472,13.946508 87.274872,14.662908 92.800872,14.745708 C96.433272,14.799708 96.379272,15.433308 96.098472,16.704108 C95.659272,18.687708 94.406472,18.633708 92.253672,18.633708 C89.585712,18.633708 89.121312,18.385308 89.528472,16.290108 L85.895712,16.290108 C84.852072,21.005748 87.609672,21.005748 91.716912,21.005748 C95.533272,21.005748 98.834472,20.616948 99.702072,16.686108 C100.738872,12.006108 97.542072,12.243708 94.003272,12.078108 C90.874872,11.944908 90.485712,11.887308 90.802872,10.454508 C91.224072,8.550108 92.545272,8.550108 94.467672,8.550108 C96.390072,8.550108 97.347672,8.550108 96.955272,10.285308 L100.565712,10.310508 Z M107.560872,6.375708 L103.942872,6.375708 L100.738872,20.854908 L104.338872,20.854908 L107.560872,6.375708 Z M108.932472,0.172908 L105.314472,0.172908 L104.662872,3.124908 L108.280872,3.124908 L108.932472,0.172908 Z" id="Fill-9" fill="#009FE3"></path>
                    <path d="M18.320436,31.377672 C18.308556,31.442832 18.290556,31.506552 18.266436,31.568472 C18.246276,31.614912 18.217116,31.656312 18.180036,31.690872 C18.140436,31.721472 18.095436,31.743792 18.046836,31.755672 C17.984556,31.771512 17.920116,31.778352 17.856036,31.776912 C17.794116,31.778712 17.732196,31.771872 17.672436,31.755672 C17.631756,31.745232 17.595036,31.722912 17.568036,31.690872 C17.544996,31.654512 17.533476,31.611312 17.535636,31.568472 C17.529156,31.505112 17.529156,31.441032 17.535636,31.377672 C17.548956,31.311792 17.569476,31.248072 17.596836,31.186872 C17.616276,31.138992 17.645796,31.096152 17.683236,31.060872 C17.719596,31.026672 17.764236,31.003272 17.812836,30.992472 C17.876196,30.985992 17.940276,30.985992 18.003636,30.992472 C18.064836,30.985632 18.126036,30.985632 18.187236,30.992472 C18.227556,31.003272 18.262836,31.027392 18.288036,31.060872 C18.313236,31.097952 18.327276,31.141872 18.327636,31.186872 C18.333396,31.250232 18.333396,31.313952 18.327636,31.377672 L18.320436,31.377672 Z M17.046036,37.328472 C17.037756,37.347192 17.028036,37.365192 17.017236,37.382472 C17.003556,37.400112 16.984836,37.412712 16.963236,37.418472 C16.931916,37.429992 16.899156,37.438632 16.866036,37.443672 C16.819236,37.447632 16.772436,37.447632 16.725636,37.443672 C16.677756,37.447992 16.629516,37.447992 16.581636,37.443672 C16.552836,37.439712 16.525116,37.430712 16.498836,37.418472 C16.481196,37.412712 16.466796,37.399752 16.459236,37.382472 C16.452396,37.365192 16.452396,37.345752 16.459236,37.328472 L17.344836,32.871312 C17.348796,32.852592 17.355996,32.834232 17.366436,32.817672 C17.380836,32.800032 17.399196,32.786352 17.420436,32.778072 C17.451036,32.764752 17.484156,32.756112 17.517636,32.752872 L17.665236,32.752872 L17.802036,32.752872 C17.831196,32.755032 17.859276,32.764032 17.884836,32.778072 C17.902116,32.786352 17.916156,32.800032 17.924436,32.817672 C17.928036,32.835672 17.928036,32.854032 17.924436,32.871312 L17.046036,37.328472 Z" id="Fill-11" fill="#1D1D1B"></path>
                    <path d="M22.806036,33.857964 C22.806036,33.970284 22.798836,34.081884 22.784436,34.193124 C22.784436,34.304364 22.752036,34.415964 22.730436,34.531164 L22.176036,37.328724 C22.167756,37.347084 22.158036,37.365084 22.147236,37.382364 C22.133556,37.400004 22.114836,37.412604 22.093236,37.418724 C22.062996,37.429884 22.031676,37.438164 21.999636,37.443564 C21.951756,37.448244 21.903516,37.448244 21.855636,37.443564 C21.808836,37.448244 21.762036,37.448244 21.715236,37.443564 C21.686796,37.438884 21.658716,37.430604 21.632436,37.418724 C21.615516,37.411524 21.601476,37.398564 21.592836,37.382364 C21.587436,37.364724 21.587436,37.346004 21.592836,37.328724 L22.154436,34.531164 C22.176036,34.424244 22.191516,34.315884 22.201236,34.207164 C22.205916,34.118604 22.205916,34.029684 22.201236,33.940764 C22.212396,33.746004 22.160916,33.553044 22.053636,33.389964 C21.935556,33.243444 21.751236,33.166044 21.564036,33.184764 C21.354516,33.188364 21.148956,33.243804 20.966436,33.346764 C20.755836,33.463044 20.566836,33.615684 20.408436,33.796764 C20.226276,34.004124 20.071476,34.234164 19.947636,34.480764 C19.811916,34.757244 19.712556,35.050284 19.652436,35.351964 L19.263636,37.328724 C19.258236,37.347444 19.249596,37.365804 19.238436,37.382364 C19.224756,37.400004 19.206036,37.412604 19.184436,37.418724 C19.153116,37.430244 19.120356,37.438524 19.087236,37.443564 C19.040436,37.447884 18.993636,37.447884 18.946836,37.443564 C18.898956,37.448244 18.850716,37.448244 18.802836,37.443564 C18.774036,37.439604 18.746316,37.430964 18.720036,37.418724 C18.702396,37.412604 18.687996,37.399644 18.680436,37.382364 C18.673236,37.365084 18.673236,37.345644 18.680436,37.328724 L19.576836,32.871564 C19.577556,32.851764 19.585116,32.832324 19.598436,32.817564 C19.611756,32.800644 19.629036,32.787324 19.648836,32.777964 C19.677276,32.764644 19.707516,32.755644 19.738836,32.753124 L19.864836,32.753124 L19.987236,32.753124 C20.014956,32.755644 20.041956,32.764284 20.066436,32.777964 C20.081916,32.786244 20.093436,32.800644 20.098836,32.817564 C20.102436,32.835564 20.102436,32.853924 20.098836,32.871564 L19.926036,33.782364 C19.981476,33.650244 20.059596,33.528204 20.156436,33.422364 C20.271636,33.285204 20.404836,33.164244 20.552436,33.062364 C20.714076,32.949684 20.889396,32.857524 21.074436,32.788764 C21.264156,32.717124 21.465396,32.680404 21.668436,32.680764 C21.852036,32.675364 22.034556,32.708484 22.204836,32.777964 C22.344156,32.835204 22.467996,32.925204 22.564836,33.040764 C22.653036,33.145884 22.717836,33.268644 22.755636,33.400764 C22.792356,33.550524 22.809636,33.703884 22.806036,33.857964" id="Fill-13" fill="#1D1D1B"></path>
                    <path d="M31.2444,36.972108 C31.23216,37.044108 31.20552,37.112868 31.1652,37.173708 C31.13172,37.231668 31.08636,37.281708 31.032,37.321308 C30.98268,37.360548 30.92652,37.389708 30.8664,37.407708 C30.80448,37.426788 30.7404,37.436148 30.6756,37.436508 L30.1248,37.436508 C30.0276,37.437948 29.93076,37.426068 29.8368,37.400148 C29.76192,37.378188 29.69496,37.335708 29.6424,37.278108 C29.58048,37.205748 29.5308,37.124748 29.4948,37.036908 C29.44332,36.909828 29.39868,36.780228 29.3616,36.648108 L28.422,33.804108 C28.35,33.584508 28.2852,33.361308 28.224,33.138108 C28.1628,32.914548 28.1052,32.695308 28.0476,32.475708 C28.0152,32.734548 27.9756,32.990148 27.9324,33.238908 C27.8892,33.486948 27.8424,33.742908 27.792,33.994548 L27.126,37.252908 C27.11952,37.285668 27.10296,37.315548 27.0792,37.339308 C27.04824,37.369908 27.00972,37.392228 26.9676,37.404108 C26.90676,37.423548 26.84412,37.436868 26.7804,37.443708 C26.68428,37.449828 26.58816,37.449828 26.4924,37.443708 C26.39772,37.450188 26.30268,37.450188 26.208,37.443708 C26.15004,37.437588 26.09316,37.424268 26.0388,37.404108 C26.00568,37.393668 25.97832,37.370268 25.9632,37.339308 C25.9524,37.311228 25.9524,37.280628 25.9632,37.252908 L27.126,31.521348 C27.14328,31.379868 27.21564,31.250268 27.3276,31.161348 C27.43164,31.084668 27.55836,31.044348 27.6876,31.046508 L28.3608,31.046508 C28.45548,31.043988 28.55052,31.056228 28.6416,31.082508 C28.71504,31.106268 28.78128,31.146948 28.836,31.201308 C28.89612,31.261788 28.94472,31.332348 28.98,31.410108 C29.02644,31.512708 29.06496,31.618548 29.0952,31.726908 L30.0456,34.606908 C30.1068,34.790148 30.1644,34.966908 30.2148,35.150148 C30.2652,35.334108 30.3192,35.510148 30.3768,35.694108 C30.4128,35.456508 30.4524,35.211348 30.4992,34.974108 C30.546,34.736508 30.5892,34.476948 30.6324,34.254108 L31.2372,31.251348 C31.24404,31.218948 31.26024,31.189068 31.284,31.165308 C31.3128,31.136868 31.34916,31.116708 31.3884,31.107708 C31.4478,31.087548 31.50936,31.075668 31.572,31.071348 L31.86,31.071348 L32.1444,31.071348 C32.20344,31.074588 32.26176,31.086468 32.3172,31.107708 C32.37768,31.118508 32.418,31.176468 32.4072,31.237308 C32.40648,31.241988 32.40504,31.247028 32.4036,31.251348 L31.2444,36.972108 Z" id="Fill-15" fill="#1D1D1B"></path>
                    <path d="M35.863236,33.926508 C35.866476,33.799068 35.808876,33.677388 35.708436,33.598908 C35.578116,33.503868 35.418996,33.458148 35.258436,33.468948 C35.107596,33.467148 34.957836,33.496668 34.819236,33.555708 C34.684956,33.612588 34.562916,33.694308 34.459236,33.796908 C34.355196,33.902388 34.268796,34.024068 34.203636,34.156908 C34.133436,34.296228 34.076556,34.442388 34.034436,34.592508 L34.448436,34.592508 C34.669116,34.595028 34.889436,34.578468 35.107236,34.542108 C35.255916,34.515468 35.399916,34.468308 35.535636,34.401348 C35.630676,34.352748 35.712396,34.280748 35.773236,34.192908 C35.826876,34.114068 35.858196,34.021908 35.863236,33.926508 L35.863236,33.926508 Z M37.080036,33.832908 C37.083636,34.055748 37.027836,34.276068 36.918036,34.470108 C36.798876,34.673508 36.627516,34.841268 36.421236,34.955748 C36.155556,35.108748 35.865756,35.214588 35.564436,35.268948 C35.157636,35.346708 34.743996,35.383068 34.329636,35.376948 L33.876036,35.376948 C33.876036,35.452908 33.854436,35.528508 33.847236,35.600148 C33.840036,35.672508 33.847236,35.744508 33.847236,35.805708 C33.830676,36.025668 33.904836,36.243108 34.052436,36.406908 C34.240356,36.557028 34.478676,36.629028 34.718436,36.608508 C34.913916,36.610668 35.109036,36.595188 35.301636,36.561348 C35.454636,36.535068 35.605836,36.500148 35.755236,36.456948 C35.884836,36.421308 35.989236,36.385308 36.075636,36.352908 C36.135756,36.329508 36.198756,36.315108 36.262836,36.309708 C36.294156,36.305748 36.325116,36.317988 36.345636,36.342108 C36.365436,36.374508 36.374076,36.412308 36.370836,36.450108 C36.375516,36.513828 36.375516,36.577188 36.370836,36.640908 C36.360036,36.713628 36.345636,36.785628 36.327636,36.856908 C36.311436,36.924948 36.288396,36.991188 36.259236,37.054548 C36.240156,37.109628 36.208116,37.158948 36.165636,37.198908 C36.101916,37.251828 36.028476,37.292508 35.949636,37.317708 C35.825076,37.361988 35.697636,37.398348 35.568036,37.425708 C35.420436,37.458108 35.254836,37.483308 35.071236,37.504548 C34.884756,37.526508 34.697196,37.537308 34.509636,37.536948 C34.231716,37.541628 33.954516,37.508868 33.685236,37.440108 C33.470316,37.383948 33.270156,37.282068 33.098436,37.141308 C32.936436,37.003068 32.812236,36.825948 32.738436,36.626508 C32.654556,36.388548 32.614236,36.137268 32.619636,35.884548 C32.621076,35.643708 32.641236,35.402868 32.680836,35.164548 C32.722236,34.910388 32.788476,34.660908 32.878836,34.419708 C32.974956,34.174908 33.095556,33.941268 33.238836,33.721308 C33.528996,33.261588 33.963156,32.911308 34.473636,32.724108 C34.768116,32.618988 35.079156,32.567868 35.391636,32.572908 C35.652276,32.567868 35.912196,32.603148 36.162036,32.676948 C36.354636,32.736348 36.533916,32.831748 36.691236,32.958108 C36.950796,33.168708 37.101276,33.484428 37.101636,33.818508 L37.080036,33.832908 Z" id="Fill-17" fill="#1D1D1B"></path>
                    <path d="M41.022072,34.4268 C41.023512,34.30548 41.009112,34.18452 40.978872,34.0668 C40.954752,33.96636 40.907952,33.87276 40.842072,33.7932 C40.773672,33.71796 40.688352,33.66 40.593672,33.62436 C40.478112,33.58224 40.356072,33.56316 40.233672,33.5664 C40.081032,33.56424 39.929472,33.59628 39.790872,33.66 C39.656232,33.72408 39.534192,33.81192 39.430872,33.9192 C39.324672,34.02612 39.233592,34.14744 39.160872,34.2792 C39.084552,34.4232 39.021912,34.57368 38.973672,34.7292 C38.926872,34.88616 38.890872,35.04636 38.865672,35.208 C38.844432,35.36208 38.833632,35.51688 38.8332649,35.6724 C38.832912,35.79372 38.846232,35.91432 38.872872,36.0324 C38.898072,36.1332 38.945952,36.2268 39.013272,36.306 C39.079512,36.38196 39.163752,36.43992 39.258072,36.4752 C39.373272,36.51624 39.495312,36.53568 39.618072,36.53316 C39.770712,36.53424 39.921912,36.50256 40.060872,36.4392 C40.195872,36.37404 40.317552,36.28512 40.420872,36.1764 C40.525992,36.063 40.615632,35.93556 40.687272,35.79876 C40.762872,35.65296 40.825512,35.50104 40.874472,35.3448 C40.924152,35.18856 40.960152,35.02836 40.982472,34.866 C41.004792,34.72056 41.017752,34.57368 41.022072,34.4268 M42.300072,34.34436 C42.298992,34.5852 42.277392,34.82604 42.235272,35.06436 C42.188472,35.31024 42.118632,35.55108 42.026472,35.78436 C41.932152,36.02016 41.811192,36.2448 41.666472,36.4536 C41.515992,36.66276 41.335272,36.84852 41.130072,37.0044 C40.911912,37.16424 40.668552,37.28592 40.410072,37.3644 C39.833712,37.53936 39.219192,37.54656 38.638872,37.386 C38.416032,37.31868 38.210472,37.20348 38.037672,37.0476 C37.875312,36.89532 37.752192,36.70632 37.677672,36.4968 C37.594512,36.25488 37.554192,36.00036 37.558872,35.7444 C37.561392,35.50284 37.584072,35.262 37.627272,35.0244 C37.670112,34.7778 37.740312,34.53624 37.836072,34.3044 C37.928232,34.06608 38.049192,33.84 38.196072,33.6312 C38.344392,33.41916 38.525472,33.23232 38.732472,33.0768 C38.952432,32.92056 39.195432,32.79924 39.452472,32.7168 C40.027752,32.5422 40.640472,32.53464 41.220072,32.6952 C41.445792,32.769 41.652432,32.89176 41.824872,33.0552 C41.987592,33.20712 42.111072,33.39612 42.184872,33.606 C42.265512,33.8436 42.304392,34.09308 42.300072,34.34436" id="Fill-19" fill="#1D1D1B"></path>
                    <path d="M47.491164,33.847056 C47.491884,33.967656 47.484324,34.087896 47.469564,34.207056 C47.469564,34.322256 47.437164,34.437816 47.411964,34.567056 L46.868364,37.253016 C46.861524,37.285776 46.845324,37.315656 46.821564,37.339056 C46.788804,37.368936 46.749204,37.389816 46.706364,37.400256 C46.643004,37.420056 46.577844,37.433376 46.511964,37.439856 L46.209564,37.439856 L45.910764,37.439856 C45.849204,37.434096 45.788724,37.421136 45.730764,37.400256 C45.695484,37.391256 45.664884,37.369296 45.644364,37.339056 C45.633564,37.311336 45.633564,37.280736 45.644364,37.253016 L46.173564,34.621056 C46.191204,34.541856 46.203084,34.461216 46.209564,34.379856 C46.214244,34.307856 46.214244,34.235856 46.209564,34.164216 C46.213884,34.037496 46.181124,33.912576 46.115964,33.804216 C46.042164,33.704496 45.922644,33.650496 45.799164,33.659856 C45.650844,33.664536 45.506484,33.709176 45.381564,33.789816 C45.223884,33.884496 45.083844,34.006536 44.967564,34.149816 C44.828244,34.305336 44.707644,34.477056 44.607564,34.661016 C44.506404,34.857216 44.433684,35.067096 44.391564,35.283456 L44.009964,37.253016 C44.001684,37.285056 43.985844,37.314936 43.963164,37.339056 C43.930404,37.368936 43.890804,37.389816 43.847964,37.400256 C43.783524,37.419696 43.717284,37.433016 43.649964,37.439856 L43.347564,37.439856 L43.052364,37.439856 C42.989724,37.434096 42.928164,37.420776 42.868764,37.400256 C42.833484,37.391256 42.802884,37.369296 42.782364,37.339056 C42.773004,37.311336 42.773004,37.280736 42.782364,37.253016 L43.664364,32.861016 C43.671564,32.828976 43.686324,32.799096 43.707564,32.774616 C43.733844,32.745456 43.767324,32.724576 43.804764,32.713416 C43.861284,32.696496 43.918884,32.685336 43.977564,32.681016 C44.061444,32.676336 44.145684,32.676336 44.229564,32.681016 C44.312364,32.675976 44.395164,32.675976 44.477964,32.681016 C44.529444,32.684976 44.580564,32.696136 44.629164,32.713416 C44.660124,32.723496 44.686044,32.745456 44.701164,32.774616 C44.710524,32.802696 44.710524,32.832936 44.701164,32.861016 L44.557164,33.581016 C44.635284,33.450336 44.728164,33.329736 44.834364,33.221016 C44.953524,33.097896 45.086364,32.989176 45.230364,32.896656 C45.383004,32.800536 45.546084,32.721696 45.716364,32.663016 C45.893844,32.603976 46.079964,32.573376 46.267164,32.573016 C46.464084,32.566536 46.659924,32.601096 46.843164,32.673456 C46.988964,32.733576 47.118564,32.827536 47.221164,32.947056 C47.319444,33.063696 47.391804,33.200136 47.433564,33.346656 C47.474244,33.510456 47.493684,33.678576 47.491164,33.847056" id="Fill-21" fill="#1D1D1B"></path>
                    <path d="M51.552072,34.1712 C51.455592,34.00992 51.325272,33.87096 51.170472,33.7644 C51.025032,33.67332 50.855832,33.62724 50.684472,33.6312 C50.551992,33.63012 50.421672,33.6636 50.306472,33.72876 C50.189112,33.7968 50.085432,33.88572 50.000472,33.9912 C49.909032,34.10892 49.831632,34.23708 49.770072,34.37316 C49.700952,34.51788 49.644432,34.66836 49.600872,34.82316 C49.557672,34.9776 49.525272,35.13528 49.503672,35.2944 C49.482792,35.44092 49.471992,35.58888 49.4712591,35.7372 C49.470912,35.83116 49.478112,35.92512 49.492872,36.018 C49.506552,36.09972 49.533552,36.17856 49.572072,36.252 C49.610232,36.31968 49.664592,36.37656 49.730472,36.4176 C49.807152,36.46044 49.894632,36.48168 49.982472,36.4788 C50.138712,36.4752 50.291712,36.43056 50.425272,36.3492 C50.585112,36.25272 50.728392,36.13104 50.850072,35.9892 C51.133392,35.65692 51.328152,35.2584 51.415272,34.83 L51.552072,34.1712 Z M52.164072,37.25316 C52.144272,37.32876 52.082712,37.38636 52.005672,37.4004 C51.864192,37.43496 51.718752,37.44936 51.573672,37.4436 C51.489792,37.44828 51.405552,37.44828 51.321672,37.4436 C51.268752,37.44036 51.216552,37.42956 51.166872,37.4112 C51.134832,37.40364 51.107472,37.3824 51.091272,37.3536 C51.081912,37.32444 51.081912,37.29276 51.091272,37.2636 L51.228072,36.5436 C51.167952,36.66672 51.088752,36.7794 50.994072,36.87876 C50.878512,36.99864 50.749272,37.10484 50.608872,37.1952 C50.455512,37.2924 50.291352,37.37124 50.119272,37.4292 C49.941432,37.49292 49.753512,37.524244 49.564872,37.52316 C49.339512,37.53216 49.115592,37.485 48.913272,37.386 C48.745152,37.30248 48.600432,37.17864 48.492072,37.026 C48.385512,36.86256 48.309912,36.68076 48.268872,36.4896 C48.224952,36.28368 48.202992,36.0738 48.204034,35.8632 C48.204792,35.6364 48.224232,35.40996 48.261672,35.1864 C48.302712,34.94196 48.363912,34.70112 48.445272,34.4664 C48.527352,34.2234 48.632112,33.98796 48.758472,33.7644 C48.882312,33.54408 49.037472,33.34248 49.219272,33.1668 C49.398192,32.99256 49.606632,32.85108 49.834872,32.7492 C50.082192,32.64228 50.350032,32.589 50.619672,32.5944 C50.869872,32.59008 51.117192,32.64876 51.339672,32.7636 C51.557472,32.88708 51.745392,33.05628 51.890472,33.2604 L51.969672,32.8716 C51.988752,32.79708 52.048872,32.73948 52.124472,32.724 C52.266312,32.68584 52.413192,32.67 52.560072,32.6772 C52.641432,32.67252 52.723152,32.67252 52.804872,32.6772 C52.857432,32.68152 52.909632,32.69268 52.959672,32.7096 C52.992072,32.7186 53.019432,32.74056 53.035272,32.7708 C53.046072,32.79852 53.046072,32.82912 53.035272,32.8572 L52.164072,37.25316 Z" id="Fill-23" fill="#1D1D1B"></path>
                    <path d="M56.858544,32.9112 C56.861424,32.95296 56.861424,32.99508 56.858544,33.0372 C56.851344,33.093 56.841984,33.14808 56.829744,33.20316 C56.818944,33.26292 56.803464,33.32196 56.782944,33.3792 C56.766024,33.435 56.744784,33.489 56.717784,33.5412 C56.696184,33.58332 56.668104,33.6222 56.635344,33.6564 C56.609784,33.68556 56.573064,33.70248 56.534544,33.7032 L55.566144,33.7032 L55.152144,35.766 C55.152144,35.8164 55.133784,35.874 55.126584,35.9424 C55.119384,36.0108 55.126584,36.0648 55.126584,36.108 C55.117944,36.21168 55.151784,36.31428 55.220544,36.3924 C55.302984,36.46044 55.408824,36.49428 55.515744,36.486 C55.583424,36.48672 55.650744,36.4806 55.717344,36.468 C55.767384,36.45864 55.816344,36.44496 55.864584,36.42876 L55.968984,36.3888 C55.996344,36.38412 56.024784,36.38412 56.052144,36.3888 C56.080224,36.38952 56.105784,36.40428 56.120184,36.42876 C56.140704,36.4644 56.149344,36.5058 56.145744,36.5472 C56.144304,36.61848 56.138184,36.6894 56.127744,36.7596 C56.127744,36.8388 56.095344,36.9144 56.076984,36.9864 C56.057544,37.05516 56.033784,37.12248 56.005344,37.188 C55.969704,37.28988 55.890504,37.37052 55.789344,37.4076 C55.721304,37.4382 55.650024,37.4616 55.576584,37.476 C55.402344,37.51812 55.223424,37.53972 55.043784,37.5408 C54.869184,37.54476 54.694584,37.52424 54.525744,37.4796 C54.374904,37.44 54.237384,37.36152 54.126144,37.25316 C54.023544,37.16064 53.945424,37.04436 53.899344,36.9144 C53.844984,36.75204 53.819784,36.5814 53.823384,36.4104 L53.823384,36.288 C53.820144,36.2376 53.820144,36.1872 53.823384,36.1368 C53.823384,36.08316 53.823384,36.0288 53.848944,35.9748 C53.854344,35.92656 53.862984,35.87832 53.873784,35.8308 L54.302184,33.6708 L53.769384,33.6708 C53.733744,33.67404 53.698824,33.65928 53.676144,33.6312 C53.653104,33.58044 53.643024,33.52464 53.647344,33.4692 C53.643384,33.39756 53.643384,33.3252 53.647344,33.2532 C53.657064,33.16248 53.676504,33.0732 53.704944,32.9868 C53.727624,32.90796 53.761464,32.83272 53.805744,32.7636 C53.836704,32.70708 53.895744,32.67108 53.960544,32.67 L54.486144,32.67 L54.683784,31.6908 C54.690264,31.65696 54.706104,31.62528 54.730584,31.6008 C54.761904,31.56984 54.800424,31.54788 54.842184,31.536 C54.905904,31.5126 54.972864,31.49928 55.040544,31.4964 C55.140984,31.48992 55.242144,31.48992 55.342944,31.4964 C55.440864,31.49028 55.539504,31.49028 55.637784,31.4964 C55.701144,31.49856 55.763424,31.51188 55.821384,31.536 C55.855944,31.54716 55.885104,31.5702 55.904544,31.6008 C55.917504,31.62924 55.917504,31.662 55.904544,31.6908 L55.706544,32.67 L56.656584,32.67 C56.701224,32.6646 56.745144,32.68584 56.768544,32.724 C56.820024,32.77368 56.851704,32.84028 56.858544,32.9112" id="Fill-25" fill="#1D1D1B"></path>
                    <path d="M60.4656,34.4268 C60.46704,34.30548 60.45264,34.18452 60.4224,34.0668 C60.3972,33.96708 60.3504,33.87348 60.2856,33.7932 C60.2172,33.71796 60.13188,33.66 60.0372,33.62436 C59.92164,33.58224 59.7996,33.56316 59.6772,33.5664 C59.52348,33.5646 59.37084,33.59664 59.2308,33.66 C59.0958,33.72372 58.97376,33.81156 58.8708,33.9192 C58.7646,34.02612 58.67352,34.14744 58.6008,34.2792 C58.52448,34.4232 58.4622,34.57368 58.4136,34.7292 C58.36716,34.88616 58.3308,35.04636 58.3056,35.208 C58.28436,35.36208 58.27356,35.51688 58.2731929,35.6724 C58.27284,35.79372 58.28616,35.91432 58.31316,36.0324 C58.338,36.1332 58.38624,36.2268 58.4532,36.306 C58.5198,36.38196 58.60368,36.43992 58.698,36.4752 C58.81356,36.51624 58.9356,36.53568 59.058,36.53316 C59.21064,36.53424 59.36184,36.50256 59.5008,36.4392 C59.6358,36.37404 59.75784,36.28512 59.8608,36.1764 C59.96592,36.063 60.05556,35.93556 60.1272,35.79876 C60.2028,35.65296 60.26544,35.50104 60.3144,35.3448 C60.36408,35.18856 60.40008,35.02836 60.4224,34.866 C60.4458,34.72056 60.4602,34.57404 60.4656,34.4268 M61.7436,34.34436 C61.74252,34.5852 61.72092,34.82604 61.6788,35.06436 C61.63272,35.3106 61.56144,35.5518 61.4664,35.78436 C61.37352,36.02088 61.25292,36.24588 61.1064,36.4536 C60.95484,36.66204 60.77412,36.8478 60.57,37.0044 C60.35184,37.16388 60.10848,37.2852 59.85,37.3644 C59.27328,37.53936 58.65912,37.54656 58.0788,37.386 C57.8556,37.31976 57.65004,37.2042 57.4776,37.0476 C57.3156,36.89532 57.19212,36.70632 57.1176,36.4968 C57.0348,36.25488 56.99412,36.00036 56.9988,35.7444 C56.99952,35.50284 57.02256,35.26164 57.0672,35.0244 C57.1104,34.7778 57.18024,34.53624 57.276,34.3044 C57.36816,34.06608 57.48912,33.84 57.636,33.6312 C57.78432,33.41916 57.9654,33.23232 58.1724,33.0768 C58.39236,32.91984 58.635,32.79888 58.8924,32.7168 C59.18508,32.62212 59.4918,32.57568 59.7996,32.58 C60.09048,32.5746 60.38064,32.61348 60.66,32.6952 C60.885,32.76828 61.09056,32.89104 61.2612,33.0552 C61.425,33.20604 61.54884,33.39576 61.6212,33.606 C61.704,33.84324 61.74576,34.09272 61.7436,34.34436" id="Fill-27" fill="#1D1D1B"></path>
                    <path d="M63.45,37.25298 C63.4446,37.2861 63.42804,37.3167 63.4032,37.33902 C63.37332,37.3689 63.33624,37.39014 63.2952,37.40022 C63.23076,37.42038 63.16452,37.43334 63.0972,37.44018 L62.7984,37.44018 L62.496,37.44018 C62.4348,37.43478 62.37432,37.42146 62.316,37.40022 C62.28072,37.39122 62.25012,37.36926 62.2296,37.33902 C62.2188,37.3113 62.2188,37.2807 62.2296,37.25298 L63.5256,30.77298 C63.53316,30.73986 63.54792,30.70926 63.5688,30.68298 C63.60012,30.65238 63.63828,30.63042 63.6804,30.61782 C63.74592,30.5973 63.8136,30.5829 63.882,30.57462 C63.98244,30.5685 64.08396,30.5685 64.1844,30.57462 C64.28376,30.5685 64.38384,30.5685 64.4832,30.57462 C64.54476,30.58218 64.60524,30.59658 64.6632,30.61782 C64.69668,30.63042 64.72548,30.65346 64.746,30.68298 C64.7532,30.7125 64.7532,30.7431 64.746,30.77298 L63.45,37.25298 Z" id="Fill-29" fill="#1D1D1B"></path>
                    <path d="M68.255856,34.4268 C68.257656,34.30548 68.242896,34.18452 68.213016,34.0668 C68.187456,33.96708 68.140656,33.87348 68.075856,33.7932 C68.007816,33.71796 67.922496,33.66 67.827816,33.62436 C67.712256,33.5826 67.589856,33.56316 67.467816,33.5664 C67.315176,33.56496 67.163976,33.597 67.024656,33.66 C66.890016,33.72372 66.767976,33.81156 66.664656,33.9192 C66.558456,34.02612 66.467736,34.14744 66.394656,34.2792 C66.318696,34.4232 66.255696,34.57368 66.207816,34.7292 C66.159216,34.8858 66.123216,35.046 66.099816,35.208 C66.078576,35.36208 66.067776,35.51688 66.067056,35.6724 C66.065256,35.79372 66.078576,35.91468 66.106656,36.0324 C66.132576,36.13212 66.178656,36.22572 66.243456,36.306 C66.312216,36.38124 66.397176,36.4392 66.492216,36.4752 C66.607416,36.51624 66.729456,36.53568 66.852216,36.53316 C67.004496,36.53424 67.155696,36.50256 67.294656,36.4392 C67.430376,36.37548 67.552776,36.2862 67.654656,36.1764 C67.762296,36.06408 67.853376,35.93664 67.924656,35.79876 C68.000256,35.65296 68.062896,35.50104 68.112216,35.3448 C68.161536,35.18856 68.197896,35.02836 68.219856,34.866 C68.241096,34.7202 68.252976,34.57368 68.255856,34.4268 M69.534216,34.34436 C69.533136,34.5852 69.511176,34.82604 69.469056,35.06436 C69.422976,35.3106 69.352056,35.5518 69.256656,35.78436 C69.163776,36.02088 69.043536,36.24588 68.896656,36.4536 C68.745096,36.66204 68.564736,36.8478 68.360256,37.0044 C68.142096,37.16388 67.898736,37.2852 67.640256,37.3644 C67.063896,37.53936 66.449736,37.54656 65.869056,37.386 C65.645856,37.31976 65.440656,37.2042 65.267856,37.0476 C65.105856,36.89532 64.982376,36.70632 64.907856,36.4968 C64.825056,36.25488 64.784736,36.00036 64.789056,35.7444 C64.789776,35.50284 64.812816,35.26164 64.857816,35.0244 C64.900656,34.7778 64.970496,34.53624 65.066616,34.3044 C65.158416,34.06608 65.279376,33.84 65.426616,33.6312 C65.574936,33.41916 65.756016,33.23232 65.963016,33.0768 C66.182976,32.92056 66.425616,32.79924 66.683016,32.7168 C66.977136,32.62248 67.284576,32.5764 67.593456,32.58 C67.884696,32.5746 68.174496,32.61348 68.454216,32.6952 C68.679216,32.76828 68.884776,32.89104 69.055416,33.0552 C69.218856,33.20604 69.342696,33.39576 69.415416,33.606 C69.496776,33.84324 69.537456,34.09308 69.534216,34.34436" id="Fill-31" fill="#1D1D1B"></path>
                    <path d="M73.468836,34.196508 C73.378836,34.037028 73.256076,33.898428 73.108836,33.789708 C72.963756,33.697548 72.794556,33.650028 72.622836,33.652908 C72.489996,33.650748 72.358956,33.685668 72.244836,33.753708 C72.128196,33.821748 72.025956,33.910668 71.942436,34.016508 C71.846316,34.132428 71.766396,34.260948 71.704836,34.398108 C71.637156,34.543548 71.580636,34.694028 71.535636,34.848108 C71.492796,35.003988 71.460396,35.163108 71.438436,35.323308 C71.417556,35.471268 71.406396,35.620308 71.406036,35.769708 C71.406036,35.872308 71.415396,35.974548 71.434836,36.075708 C71.451756,36.158508 71.483436,36.237708 71.528436,36.309708 C71.568036,36.370188 71.620956,36.420588 71.683236,36.457308 C71.756316,36.491868 71.836236,36.509148 71.916876,36.507708 C72.073836,36.504828 72.226836,36.460188 72.360036,36.378108 C72.520596,36.282708 72.664236,36.160668 72.784836,36.018108 C72.926316,35.858628 73.047636,35.682228 73.144836,35.492508 C73.245636,35.289468 73.319436,35.074188 73.364436,34.851348 L73.468836,34.196508 Z M74.041236,37.436508 C73.991916,37.709028 73.897956,37.971468 73.764036,38.214108 C73.642716,38.433348 73.476036,38.623428 73.274436,38.772108 C73.050156,38.929068 72.798876,39.042468 72.532836,39.106908 C72.200916,39.187548 71.859276,39.226788 71.517636,39.222108 C71.265276,39.225348 71.012916,39.202308 70.765236,39.153708 C70.575516,39.119148 70.390476,39.062628 70.214436,38.984508 C70.170156,38.966508 70.131276,38.936628 70.102836,38.898108 C70.082316,38.854188 70.072236,38.806308 70.074036,38.757708 L70.074036,38.660148 C70.077996,38.609748 70.085556,38.558988 70.095636,38.508948 C70.095636,38.451348 70.120836,38.394108 70.135236,38.332908 C70.151076,38.276748 70.173036,38.222748 70.200036,38.170908 C70.220556,38.127708 70.247196,38.087748 70.279236,38.052108 C70.305156,38.021508 70.343316,38.004228 70.383636,38.005308 C70.434036,38.008548 70.483356,38.023308 70.527636,38.048508 C70.602156,38.083788 70.679196,38.113668 70.758036,38.138508 C70.875396,38.178108 70.995996,38.207988 71.118036,38.228508 C71.290116,38.259828 71.465076,38.274228 71.640036,38.271348 C71.790876,38.272428 71.941716,38.259108 72.090036,38.232108 C72.216396,38.211588 72.338436,38.169108 72.450036,38.105748 C72.546156,38.048868 72.628236,37.971468 72.691236,37.878948 C72.758916,37.769868 72.803196,37.647108 72.820836,37.518948 C72.864036,37.306908 72.906876,37.126908 72.950436,36.982548 C72.982116,36.860508 73.020636,36.740268 73.065636,36.622548 C72.998316,36.741708 72.913716,36.850068 72.813636,36.943308 C72.699156,37.053828 72.572796,37.150308 72.435636,37.231308 C72.293436,37.318428 72.141156,37.387188 71.982036,37.436508 C71.823636,37.486188 71.658756,37.511388 71.492436,37.512108 C71.273196,37.518228 71.055396,37.475028 70.855236,37.385748 C70.686756,37.302948 70.542036,37.179108 70.434036,37.025748 C70.322076,36.866628 70.242156,36.686988 70.200036,36.496908 C70.151436,36.280548 70.127316,36.059868 70.128036,35.838108 C70.130196,35.606268 70.150356,35.375148 70.189236,35.146908 C70.230636,34.902108 70.292196,34.661268 70.372836,34.426908 C70.457076,34.184988 70.562916,33.950988 70.689636,33.728508 C70.813476,33.510348 70.968996,33.311268 71.150436,33.138108 C71.330076,32.964948 71.538156,32.824908 71.766036,32.724108 C72.011916,32.620068 72.276516,32.568948 72.543636,32.572548 C72.793836,32.568948 73.041516,32.626908 73.263636,32.742108 C73.482876,32.863428 73.671156,33.033348 73.814436,33.238908 L73.893636,32.850108 C73.912716,32.775228 73.972836,32.717988 74.048436,32.702508 C74.190276,32.664708 74.337156,32.648868 74.484036,32.655708 C74.566836,32.651028 74.649636,32.651028 74.732436,32.655708 C74.784996,32.660028 74.837196,32.671188 74.886876,32.688108 C74.918556,32.699268 74.945556,32.720868 74.962836,32.748948 C74.972196,32.777388 74.972196,32.807628 74.962836,32.835708 L74.041236,37.436508 Z" id="Fill-33" fill="#1D1D1B"></path>
                    <path d="M80.045856,32.853528 C80.050896,32.901408 80.050896,32.950008 80.045856,32.997528 C80.037576,33.052968 80.023176,33.107328 80.003016,33.159888 C79.891056,33.461928 79.768656,33.771528 79.643016,34.091928 C79.516656,34.412328 79.325856,34.733088 79.174656,35.093088 C79.023456,35.453088 78.814656,35.784288 78.602256,36.147528 C78.389856,36.511128 78.145416,36.889128 77.882256,37.281528 L76.679856,38.984328 C76.650696,39.026808 76.612536,39.062448 76.568616,39.088728 C76.517136,39.120408 76.461336,39.143808 76.403016,39.157128 C76.322376,39.177288 76.240656,39.191688 76.157856,39.200328 C76.048776,39.206448 75.939696,39.206448 75.830256,39.200328 C75.716136,39.201408 75.601656,39.195288 75.488616,39.182328 C75.421656,39.178008 75.356856,39.160008 75.297816,39.128688 C75.261816,39.107808 75.240936,39.068928 75.243456,39.027528 C75.252456,38.975328 75.276216,38.926368 75.312216,38.887128 L76.427856,37.414728 L75.707856,33.191928 L75.707856,33.058728 C75.704976,33.019128 75.704976,32.979528 75.707856,32.939928 C75.705696,32.890968 75.717216,32.842728 75.740256,32.799888 C75.766176,32.759928 75.804336,32.729688 75.848616,32.713128 C75.914856,32.691528 75.983976,32.678208 76.053456,32.673528 L76.363416,32.673528 L76.679856,32.673528 C76.739616,32.677128 76.799016,32.687928 76.856616,32.705928 C76.891536,32.720328 76.919616,32.747328 76.935456,32.781528 C76.952016,32.820768 76.963176,32.861808 76.967856,32.904288 L77.421456,35.978688 C77.583456,35.733528 77.734656,35.485488 77.867856,35.233128 C78.001056,34.981128 78.127416,34.721928 78.227856,34.462728 C78.328656,34.203528 78.440256,33.937128 78.534216,33.671088 C78.627816,33.404328 78.714216,33.131088 78.793416,32.861088 C78.800256,32.829048 78.815016,32.799168 78.836616,32.774328 C78.868296,32.743368 78.908256,32.722128 78.951456,32.713128 C79.022376,32.696208 79.094736,32.685408 79.167816,32.681088 L79.509816,32.681088 C79.655976,32.674608 79.802496,32.687928 79.945416,32.720328 C80.003016,32.739768 80.042976,32.792688 80.045856,32.853528" id="Fill-35" fill="#1D1D1B"></path>
                    <path d="M86.112072,30.844728 C86.113512,30.859128 86.113512,30.873528 86.112072,30.887928 C86.113512,30.909888 86.113512,30.931128 86.112072,30.953088 L86.112072,31.028688 C86.105592,31.053168 86.097312,31.077288 86.086872,31.100328 C86.077512,31.120488 86.065632,31.138488 86.050872,31.154328 C86.038992,31.167648 86.022072,31.175568 86.004072,31.175928 C85.972752,31.174128 85.942512,31.166928 85.914072,31.154328 C85.871592,31.136688 85.828392,31.121208 85.784472,31.107528 C85.726872,31.088088 85.667832,31.072608 85.608072,31.061088 C85.532112,31.045968 85.455072,31.038408 85.377672,31.039128 C85.237272,31.034448 85.097592,31.059288 84.966912,31.111128 C84.853152,31.162608 84.754152,31.241808 84.679272,31.341528 C84.589992,31.458528 84.521952,31.589928 84.477672,31.730328 C84.415032,31.912848 84.365352,32.098968 84.330072,32.288688 L84.243672,32.771088 L85.323672,32.771088 C85.353552,32.769288 85.382712,32.781168 85.402872,32.803128 C85.424472,32.833368 85.434552,32.870448 85.431312,32.907528 C85.435272,32.941008 85.435272,32.974848 85.431312,33.008688 C85.428792,33.038208 85.421232,33.067368 85.410072,33.094728 C85.399992,33.119928 85.388112,33.144048 85.374072,33.166728 C85.363992,33.186888 85.350672,33.205248 85.334472,33.221088 C85.320072,33.235128 85.302792,33.245928 85.284072,33.253128 C85.267512,33.257448 85.249872,33.257448 85.233672,33.253128 L84.114072,33.253128 L83.239272,37.623528 C83.192112,37.871928 83.115792,38.113128 83.012472,38.343528 C82.930752,38.527488 82.816272,38.694888 82.674072,38.836728 C82.544832,38.962008 82.390032,39.057768 82.220112,39.117528 C82.037592,39.181248 81.844992,39.212928 81.651312,39.211128 C81.541512,39.214008 81.431352,39.203208 81.324072,39.178728 C81.271512,39.169368 81.221472,39.149568 81.176472,39.121128 C81.163512,39.106728 81.153792,39.089448 81.147672,39.071088 C81.145152,39.048048 81.145152,39.025368 81.147672,39.002328 L81.147672,38.955528 L81.147672,38.887128 C81.145872,38.862288 81.145872,38.836728 81.147672,38.811528 L81.180072,38.739888 C81.187992,38.718288 81.200232,38.698488 81.215712,38.682288 C81.230112,38.670408 81.247752,38.663928 81.266472,38.664288 L81.331272,38.664288 L81.403272,38.664288 L81.496872,38.664288 C81.542592,38.667888 81.588312,38.667888 81.633672,38.664288 C81.770112,38.666808 81.905832,38.642328 82.033272,38.592288 C82.144872,38.540808 82.242792,38.463048 82.317672,38.365488 C82.404792,38.247048 82.472832,38.115648 82.519272,37.976688 C82.579392,37.792728 82.627272,37.604808 82.663272,37.414728 L83.505672,33.213528 L82.835712,33.213528 C82.807992,33.214608 82.780632,33.204168 82.760112,33.184728 C82.741392,33.154848 82.732032,33.119208 82.735272,33.084288 C82.733472,33.057648 82.733472,33.031008 82.735272,33.004728 C82.733472,32.975928 82.733472,32.947128 82.735272,32.918688 C82.741392,32.892408 82.749672,32.867208 82.760112,32.842728 C82.768032,32.817888 82.781352,32.795928 82.800072,32.777928 C82.815192,32.760648 82.832112,32.744808 82.850112,32.731128 C82.871712,32.725368 82.894032,32.725368 82.915272,32.731128 L83.645712,32.731128 L83.782872,32.039928 C83.827152,31.800888 83.902032,31.568688 84.005712,31.348728 C84.094992,31.167288 84.217032,31.003488 84.365712,30.866688 C84.498912,30.742128 84.655512,30.646728 84.826872,30.585528 C85.006872,30.525048 85.195152,30.494808 85.384512,30.495528 C85.454352,30.490848 85.523832,30.490848 85.593672,30.495528 C85.664952,30.502368 85.735872,30.513168 85.805712,30.527928 C85.865472,30.541608 85.924512,30.558528 85.982472,30.578688 C86.021712,30.592368 86.058432,30.612888 86.090112,30.639888 C86.110272,30.657528 86.124312,30.681648 86.130072,30.707928 C86.137632,30.754368 86.131512,30.802248 86.112072,30.844728" id="Fill-37" fill="#1D1D1B"></path>
                    <path d="M89.207928,34.369128 C89.209368,34.205328 89.188848,34.041888 89.146728,33.883128 C89.110368,33.749928 89.044128,33.626448 88.952328,33.523128 C88.853688,33.417288 88.729848,33.338088 88.592328,33.293088 C88.422048,33.234048 88.243128,33.205968 88.063128,33.209928 C87.862248,33.206688 87.662088,33.244488 87.476328,33.321528 C87.303168,33.393168 87.143688,33.493968 87.004728,33.620328 C86.862168,33.749568 86.740488,33.900048 86.644728,34.066728 C86.539248,34.239528 86.452128,34.422768 86.385528,34.614288 C86.320368,34.811568 86.271048,35.013528 86.237928,35.218728 C86.205168,35.423568 86.188248,35.630568 86.187528,35.837928 C86.186088,36.002088 86.206608,36.165528 86.248728,36.324288 C86.316408,36.602928 86.521248,36.827928 86.792328,36.921528 C86.962608,36.980568 87.141888,37.008648 87.321528,37.004328 C87.522768,37.007928 87.722568,36.970128 87.908688,36.893088 C88.082568,36.821448 88.242408,36.718848 88.379928,36.590328 C88.521768,36.460728 88.643088,36.310248 88.739928,36.144288 C88.846128,35.970768 88.931808,35.786088 88.995528,35.593128 C89.064288,35.397648 89.114688,35.196768 89.146728,34.991928 C89.183448,34.787448 89.203608,34.580448 89.207928,34.373088 L89.207928,34.369128 Z M89.827128,34.340328 C89.830008,34.592688 89.809128,34.844328 89.765928,35.093088 C89.719488,35.338608 89.649648,35.579808 89.557128,35.813088 C89.461728,36.044928 89.341128,36.265968 89.197128,36.471528 C89.058888,36.672408 88.892928,36.853128 88.704288,37.007928 C88.512048,37.160928 88.297128,37.282608 88.066728,37.367928 C87.815448,37.460088 87.549768,37.505088 87.281928,37.501128 C87.018408,37.508328 86.755608,37.470528 86.504328,37.389888 C86.304888,37.323288 86.123808,37.210968 85.975488,37.061928 C85.832928,36.915408 85.729248,36.736128 85.673088,36.539928 C85.605048,36.316008 85.572288,36.083088 85.575528,35.848728 C85.575168,35.597448 85.598208,35.346888 85.644288,35.099928 C85.689648,34.853688 85.759488,34.612488 85.853088,34.379928 C85.948128,34.148088 86.068728,33.926688 86.213088,33.721128 C86.348448,33.518088 86.514768,33.337008 86.705928,33.184728 C86.897808,33.031728 87.113088,32.910048 87.343128,32.824728 C87.594768,32.732928 87.860448,32.687568 88.127928,32.691528 C88.391448,32.684688 88.654608,32.722848 88.905528,32.803128 C89.105328,32.869728 89.286408,32.981688 89.434728,33.131088 C89.576208,33.276528 89.680248,33.454368 89.737128,33.649128 C89.802288,33.873768 89.832528,34.106688 89.827128,34.340328 L89.827128,34.340328 Z" id="Fill-39" fill="#1D1D1B"></path>
                    <path d="M93.887928,32.93298 L93.887928,32.98662 L93.887928,33.07338 L93.866328,33.17778 C93.857688,33.21162 93.844368,33.24438 93.826728,33.27462 C93.815208,33.30198 93.799368,33.3279 93.779928,33.35022 C93.765888,33.36822 93.745008,33.37866 93.722328,33.37902 C93.694968,33.38334 93.667248,33.38334 93.639888,33.37902 L93.535488,33.33222 L93.394728,33.28902 C93.334608,33.27534 93.273048,33.26958 93.211128,33.27102 C93.063528,33.28218 92.921688,33.33582 92.804328,33.42582 C92.630088,33.55182 92.472768,33.69906 92.336328,33.86538 C91.976328,34.30566 91.729368,34.8273 91.616328,35.38458 L91.205928,37.32858 C91.200528,37.34766 91.192248,37.36566 91.180728,37.38222 C91.167048,37.39986 91.148328,37.41246 91.126728,37.41858 C91.095408,37.4301 91.062648,37.43874 91.029888,37.44342 C90.983088,37.44774 90.935928,37.44774 90.889128,37.44342 C90.841248,37.4481 90.793008,37.4481 90.745488,37.44342 C90.716328,37.43982 90.688608,37.43082 90.662328,37.41858 C90.644688,37.41246 90.630288,37.3995 90.623088,37.38222 C90.615888,37.3653 90.615888,37.34586 90.623088,37.32858 L91.508688,32.87142 C91.511928,32.85162 91.520928,32.83326 91.533528,32.81778 C91.547928,32.80014 91.566648,32.78646 91.587528,32.77782 C91.617048,32.76486 91.648728,32.75658 91.681128,32.75298 L91.807128,32.75298 L91.929888,32.75298 C91.957608,32.75586 91.984608,32.76414 92.008728,32.77782 C92.023488,32.78754 92.035008,32.80158 92.041128,32.81778 C92.044728,32.83542 92.044728,32.85378 92.041128,32.87142 L91.868688,33.73902 C91.944288,33.60006 92.033568,33.46866 92.134728,33.34662 C92.236968,33.22386 92.351448,33.11154 92.476728,33.01218 C92.596968,32.9193 92.727288,32.84046 92.865528,32.77782 C92.994048,32.72202 93.132288,32.6925 93.272328,32.69142 C93.331008,32.68782 93.390048,32.68782 93.448728,32.69142 L93.621528,32.72022 L93.758688,32.76342 C93.790368,32.77638 93.819528,32.79474 93.844728,32.81778 C93.881808,32.84334 93.899088,32.88906 93.887928,32.93298" id="Fill-41" fill="#1D1D1B"></path>
                    <path d="M99.81,36.554436 L99.81,36.666036 C99.81,36.716436 99.81,36.774036 99.7848,36.838836 C99.7596,36.903636 99.7596,36.972036 99.7416,37.040436 C99.72504,37.105596 99.70308,37.169316 99.6768,37.231236 C99.65556,37.281996 99.6264,37.329516 99.5904,37.371636 C99.56304,37.405476 99.522,37.425276 99.4788,37.4256483 L96.5592,37.4256483 C96.51024,37.425996 96.46164,37.418436 96.4152,37.404036 C96.37236,37.389996 96.33492,37.363716 96.30756,37.328436 C96.27732,37.292076 96.25788,37.248876 96.2496,37.202436 C96.2388,37.140516 96.2388,37.077156 96.2496,37.015236 L97.4124,31.230036 C97.41708,31.196196 97.4322,31.164516 97.4556,31.140036 C97.49196,31.110876 97.53336,31.088556 97.578,31.075236 C97.64496,31.056876 97.71408,31.044996 97.7832,31.039236 L98.1,31.039236 L98.4132,31.039236 C98.478,31.044636 98.54208,31.056876 98.604,31.075236 C98.64072,31.086036 98.6724,31.108716 98.694,31.140036 C98.703,31.169196 98.703,31.200876 98.694,31.230036 L97.686,36.356436 L99.6948,36.356436 C99.73548,36.352116 99.774,36.373716 99.792,36.410436 C99.80892,36.456516 99.81504,36.505476 99.81,36.554436" id="Fill-43" fill="#1D1D1B"></path>
                    <path d="M102.913236,31.38858 C102.895956,31.49406 102.864276,31.59702 102.819636,31.69458 C102.785436,31.77306 102.732156,31.84254 102.664836,31.89582 C102.594276,31.9509 102.511836,31.98834 102.423636,32.00418 C102.305196,32.02758 102.184596,32.03874 102.063636,32.03658 C101.949876,32.03874 101.836476,32.02758 101.725236,32.00418 C101.649636,31.9923 101.580876,31.95378 101.530836,31.89582 C101.481156,31.84074 101.454516,31.76874 101.455236,31.69458 C101.450196,31.59126 101.459916,31.4883 101.484036,31.38858 C101.500956,31.2849 101.532636,31.18446 101.577636,31.08978 C101.612916,31.01022 101.667276,30.9411 101.735676,30.88782 C101.805876,30.83058 101.888676,30.79134 101.976876,30.77298 C102.095676,30.74886 102.216276,30.7377 102.336876,30.74022 C102.450996,30.73806 102.564396,30.74922 102.675636,30.77298 C102.751236,30.78954 102.819276,30.8295 102.870036,30.88782 C102.917196,30.94506 102.943836,31.01598 102.945636,31.08978 C102.941676,31.19202 102.924756,31.29354 102.895236,31.39218 L102.913236,31.38858 Z M101.645676,37.25298 C101.637756,37.28502 101.621556,37.3149 101.599236,37.33902 C101.566476,37.3689 101.526876,37.38978 101.484036,37.40022 C101.419596,37.42038 101.352996,37.43334 101.285676,37.44018 L100.983636,37.44018 L100.688436,37.44018 C100.625796,37.43406 100.564236,37.42074 100.504836,37.40022 C100.469556,37.39122 100.438956,37.36926 100.418436,37.33902 C100.410876,37.31094 100.410876,37.28106 100.418436,37.25298 L101.289636,32.87538 C101.297916,32.84298 101.314116,32.81346 101.336436,32.78898 C101.369916,32.75946 101.408796,32.73714 101.451276,32.72418 C101.514636,32.70294 101.579796,32.68854 101.645676,32.68098 L101.952036,32.68098 L102.247236,32.68098 C102.309876,32.68746 102.371436,32.70186 102.430836,32.72418 C102.499236,32.73822 102.542796,32.80518 102.528756,32.87322 C102.528396,32.87394 102.528396,32.87466 102.528036,32.87538 L101.645676,37.25298 Z" id="Fill-45" fill="#1D1D1B"></path>
                    <g id="Group-49" transform="translate(101.520000, 30.229200)">
                        <mask id="mask-2" fill="white">
                            <use xlink:href="#path-1"></use>
                        </mask>
                        <g id="Clip-48"></g>
                        <path d="M5.245308,0.640836 L5.245308,0.738036 C5.245308,0.784836 5.245308,0.831636 5.223348,0.885636 C5.216508,0.943956 5.205708,1.001556 5.191308,1.058436 C5.180148,1.114596 5.164668,1.170396 5.144508,1.224036 C5.131548,1.267956 5.110668,1.309356 5.083308,1.346436 C5.068908,1.373076 5.041548,1.390716 5.011308,1.393236 C4.984668,1.397556 4.958028,1.397556 4.932108,1.393236 L4.827708,1.360836 L4.694508,1.328436 C4.639068,1.324476 4.583988,1.324476 4.528908,1.328436 C4.435308,1.325916 4.342428,1.342116 4.255308,1.375236 C4.177548,1.402956 4.109148,1.451916 4.056948,1.515636 C3.993948,1.587636 3.945348,1.670436 3.913308,1.760436 C3.869748,1.877436 3.836988,1.997676 3.815748,2.120436 L3.740148,2.480436 L4.535748,2.480436 C4.577148,2.475036 4.617468,2.493036 4.640148,2.527236 C4.664628,2.572596 4.674348,2.624076 4.668948,2.674836 C4.672188,2.718036 4.672188,2.761596 4.668948,2.804436 C4.668948,2.854836 4.668948,2.912436 4.644108,2.973636 C4.630428,3.034476 4.613508,3.094596 4.593348,3.153636 C4.576428,3.209436 4.554828,3.263436 4.528908,3.315636 C4.510188,3.359916 4.483188,3.400236 4.449708,3.434436 C4.424148,3.463596 4.387428,3.480876 4.348908,3.481236 L3.542508,3.481236 L2.768508,7.340436 C2.719188,7.588476 2.642148,7.830036 2.537748,8.060436 C2.452428,8.254476 2.330028,8.430876 2.177748,8.578836 C2.027628,8.720316 1.848348,8.827236 1.652508,8.892036 C1.292148,9.007236 0.908388,9.030636 0.536508,8.960436 C0.459108,8.947476 0.384588,8.920836 0.316908,8.881236 C0.299988,8.862516 0.287748,8.840196 0.280908,8.816436 C0.278028,8.784036 0.278028,8.751636 0.280908,8.719236 C0.278028,8.687196 0.278028,8.654436 0.280908,8.622036 C0.285228,8.571276 0.292068,8.520876 0.302508,8.470836 C0.311148,8.413956 0.323388,8.357436 0.338508,8.301636 C0.351468,8.246556 0.368388,8.192556 0.388908,8.139636 C0.402588,8.095716 0.423108,8.054676 0.450108,8.017236 C0.465948,7.988076 0.496188,7.970076 0.528948,7.970436 L0.586908,7.970436 L0.651348,7.970436 L0.730908,7.970436 L0.853308,7.970436 C0.946548,7.970796 1.039068,7.954956 1.126908,7.923636 C1.203948,7.892316 1.272348,7.841196 1.324548,7.776036 C1.387548,7.701516 1.436508,7.616196 1.468908,7.524036 C1.512828,7.400916 1.546668,7.274556 1.569708,7.146036 L2.285748,3.474036 L1.745748,3.474036 C1.711188,3.477996 1.676628,3.462876 1.655748,3.434436 C1.629468,3.384756 1.618308,3.328596 1.623348,3.272436 C1.620468,3.230316 1.620468,3.188196 1.623348,3.146436 C1.627308,3.089556 1.635948,3.033036 1.648908,2.977236 C1.648908,2.919636 1.674108,2.858436 1.688508,2.797236 C1.705428,2.741436 1.727388,2.687436 1.753308,2.635236 C1.774908,2.592036 1.804068,2.553156 1.839708,2.520036 C1.868148,2.488716 1.908828,2.471796 1.951308,2.473236 L2.491308,2.473236 L2.584548,1.983636 C2.630988,1.734876 2.708748,1.492956 2.815308,1.263636 C2.907468,1.066356 3.035268,0.888156 3.193308,0.738036 C3.344148,0.595476 3.523068,0.486036 3.718908,0.417636 C3.940668,0.345636 4.172868,0.310356 4.406508,0.313236 C4.491468,0.307836 4.577148,0.307836 4.662108,0.313236 C4.739508,0.319356 4.816548,0.330516 4.892508,0.345636 C4.954428,0.358956 5.015628,0.375876 5.075748,0.396036 C5.115348,0.409716 5.151708,0.430596 5.184108,0.457236 C5.203908,0.475236 5.217948,0.498996 5.223348,0.525636 C5.237748,0.562356 5.245308,0.601596 5.245308,0.640836" id="Fill-47" fill="#1D1D1B" mask="url(#mask-2)"></path>
                    </g>
                    <path d="M109.429092,33.926508 C109.432332,33.799068 109.375092,33.677388 109.274292,33.598908 C109.144332,33.503868 108.985212,33.458148 108.824292,33.468948 C108.673452,33.467148 108.523692,33.496668 108.385452,33.555708 C108.257292,33.614388 108.141732,33.696108 108.043092,33.796908 C107.939052,33.902388 107.852652,34.024068 107.787492,34.156908 C107.717292,34.296228 107.660772,34.442388 107.618652,34.592508 L108.032292,34.592508 C108.252972,34.595028 108.473652,34.578468 108.691092,34.542108 C108.839772,34.515468 108.984132,34.468308 109.119852,34.401348 C109.214532,34.352748 109.296252,34.280748 109.357092,34.192908 C109.398492,34.110468 109.417212,34.018308 109.411092,33.926508 L109.429092,33.926508 Z M110.645892,33.832908 C110.649852,34.055748 110.593692,34.276068 110.484252,34.470108 C110.365092,34.673508 110.193372,34.841268 109.987092,34.955748 C109.721412,35.108748 109.431972,35.214588 109.130292,35.268948 C108.723492,35.346708 108.309852,35.383068 107.895492,35.376948 L107.441892,35.376948 C107.427132,35.450748 107.417772,35.525268 107.413092,35.600148 L107.413092,35.805708 C107.396532,36.025668 107.470692,36.243108 107.618652,36.406908 C107.806212,36.557028 108.044532,36.629028 108.284292,36.608508 C108.479772,36.610668 108.674892,36.595188 108.867492,36.561348 C109.020492,36.535068 109.172052,36.500148 109.321092,36.456948 C109.451052,36.421308 109.555452,36.385308 109.641492,36.352908 C109.701612,36.329508 109.764612,36.315108 109.828692,36.309708 C109.860012,36.305748 109.890972,36.317988 109.911492,36.342108 C109.931652,36.374508 109.940292,36.412308 109.936692,36.450108 C109.941732,36.513828 109.941732,36.577188 109.936692,36.640908 C109.926252,36.713628 109.911852,36.785628 109.893492,36.856908 C109.877292,36.924948 109.854612,36.991188 109.825452,37.054548 C109.806012,37.109628 109.773972,37.158948 109.731492,37.198908 C109.667052,37.252908 109.592532,37.293588 109.511892,37.317708 C109.388772,37.362708 109.262412,37.399068 109.134252,37.425708 C108.986652,37.458108 108.821052,37.483308 108.637452,37.504548 C108.450612,37.526508 108.263412,37.537308 108.075492,37.536948 C107.797932,37.541628 107.520372,37.508868 107.251092,37.440108 C107.036532,37.383948 106.836012,37.282068 106.664292,37.141308 C106.501212,37.004508 106.376652,36.827028 106.304292,36.626508 C106.220412,36.388548 106.180452,36.137268 106.185492,35.884548 C106.185132,35.643708 106.205652,35.402868 106.246692,35.164548 C106.288092,34.910388 106.354692,34.660908 106.444692,34.419708 C106.540812,34.174908 106.661772,33.941268 106.804692,33.721308 C107.095212,33.261588 107.529372,32.911308 108.039852,32.724108 C108.333972,32.618628 108.645012,32.567508 108.957492,32.572908 C109.218132,32.567868 109.478052,32.603148 109.727892,32.676948 C109.920492,32.736348 110.100132,32.831748 110.257452,32.958108 C110.512692,33.175908 110.655252,33.497388 110.645892,33.832908 L110.645892,33.832908 Z" id="Fill-50" fill="#1D1D1B"></path>
                </g>
            </g>
        </g>
    </g>
</svg>