<?xml version="1.0" encoding="UTF-8"?>
<svg width="94px" height="94px" viewBox="0 0 94 94" version="1.1" xmlns="http://www.w3.org/2000/svg" xmlns:xlink="http://www.w3.org/1999/xlink">
    <title>autora</title>
    <g id="Elearning-eco-pulmonar-neonato---Chiesi" stroke="none" stroke-width="1" fill="none" fill-rule="evenodd">
        <g id="Landing-sign-in" transform="translate(-673.000000, -2563.000000)">
            <g id="autores" transform="translate(1.000000, 2441.000000)">
                <g id="autora" transform="translate(672.000000, 122.000000)">
                    <circle id="Oval" stroke="#FFFFFF" stroke-width="2" cx="47" cy="47" r="46"></circle>
                    <path d="M69.5901907,79.3489012 L69.5901907,86.0633333 C69.5901907,86.6910575 69.0829596,87.2 68.4573463,87.2 C67.831733,87.2 67.3245019,86.6910575 67.3245019,86.0633333 L67.3245019,79.3489012 C67.3245019,74.1210871 63.1081965,69.8901296 57.8973954,69.8902717 C55.4319011,69.8902717 53.1949582,68.6299925 51.9134279,66.5189183 C51.5878768,65.9828379 51.757237,65.2835037 52.2915148,64.9568542 C52.8256509,64.6300625 53.522775,64.8001362 53.8483262,65.3362167 C54.715377,66.7642963 56.2289988,67.6167962 57.8973954,67.6167962 C64.359848,67.6167962 69.5901907,72.8639338 69.5901907,79.3489013 L69.5901907,79.3489012 Z M50.6900976,70.5471229 L46.6500911,73.6853175 L39.781089,68.3493779 C41.2638407,67.154315 42.2226519,65.4160675 42.3779932,63.4418196 C43.7335832,63.8422104 45.1671978,64.058035 46.6502327,64.058035 C55.0049604,64.058035 61.8020269,57.238035 61.8020269,48.8551183 C61.8020269,48.7667425 61.8040094,40.8967467 61.7983452,40.808655 C61.7598285,40.1937183 61.248774,39.7440246 60.6691825,39.7440246 C60.4751829,39.7440246 59.0793769,40.0210871 57.713025,39.1962933 C55.5821446,37.9100129 55.571241,35.0905112 55.5713826,35.0622367 C55.5769052,34.138695 54.5361044,33.5936633 53.7840373,34.1274704 C49.1178511,37.4418483 43.6541424,39.6893225 37.7212946,40.5226412 C37.1017703,40.6097383 36.6697317,41.1841812 36.756536,41.8059379 C36.8358351,42.3742712 37.3209757,42.7851762 37.8770607,42.7851762 C38.0554837,42.7851762 41.7287317,42.3340617 45.9042547,40.8123492 C48.594477,39.8319742 51.1721229,38.5526558 53.5889048,36.9998271 C54.4239528,40.1435629 56.7656838,41.8924667 59.5364797,42.0503212 L59.5364797,48.8551183 C59.5364797,55.9845758 53.7558578,61.7847017 46.6503743,61.7847017 C39.5448909,61.7847017 33.764269,55.9845758 33.764269,48.8551183 L33.764269,40.8808333 C33.764269,40.2531092 33.2570379,39.7441667 32.6314246,39.7441667 C32.0058113,39.7441667 31.4985802,40.2531092 31.4985802,40.8808333 L31.4985802,48.8552604 C31.4985802,54.8997696 35.0327716,60.1312779 40.1365189,62.5798 L40.1365189,62.8795958 C40.1365189,65.4997546 38.0203655,67.6167963 35.4030701,67.6167963 C33.9698803,67.6167963 32.5577897,67.8769508 31.2220245,68.3893033 L30.4906318,67.8051988 C24.7512172,63.2217325 23.6762894,55.1303708 27.5904085,49.2351913 C29.2585219,46.7227317 30.2241302,43.7176692 30.2241302,40.5024654 L30.2241302,34.3455683 C30.2241302,27.1375388 36.068333,21.2733333 43.2518411,21.2733333 L50.0489076,21.2733333 C57.2324157,21.2733333 63.0766185,27.1372546 63.0766185,34.345 L63.0766185,40.5018971 C63.0766185,43.6292933 63.9830356,46.6428808 65.6978789,49.2167204 C68.8341587,53.9240833 68.827928,60.1022929 65.5872849,64.8205962 C65.2322798,65.3374954 65.3619905,66.0453546 65.8771515,66.4015575 C66.3923125,66.7576183 67.0976498,66.62747 67.4526549,66.1105708 C71.2251684,60.6183396 71.2295582,53.429065 67.5813743,47.9533154 C66.1164649,45.7545758 65.3421657,43.1780367 65.3421657,40.5018971 L65.3421657,34.345 C65.3421657,25.8837954 58.4815183,19 50.048766,19 L43.2516995,19 C34.8189472,19 27.9582997,25.8840796 27.9582997,34.3455683 L27.9582997,40.5018971 C27.9582997,43.1702221 27.1790444,45.7542917 25.7045057,47.9750542 C21.1370186,54.8550133 22.431435,64.2120533 29.0077385,69.5249754 C25.7771494,71.6513946 23.7101331,75.2625846 23.7101331,79.3489012 L23.7101331,86.0633333 C23.7101331,86.6910575 24.2173642,87.2 24.8429776,87.2 C25.4685909,87.2 25.975822,86.6910575 25.975822,86.0633333 L25.975822,79.3489012 C25.975822,74.120945 30.1921273,69.8901296 35.4029285,69.8902717 C36.1537211,69.8902717 36.895451,69.7707796 37.6067357,69.5353475 L45.9566487,76.0215938 C46.3650391,76.3387237 46.9354263,76.3387237 47.3436751,76.0215938 L52.0771239,72.3446192 C52.5718938,71.9602838 52.6623797,71.2464571 52.2793367,70.7500179 C51.8964353,70.2538629 51.185009,70.1627875 50.6900976,70.5471229 L50.6900976,70.5471229 Z" id="Shape" fill="#FFFFFF" fill-rule="nonzero"></path>
                </g>
            </g>
        </g>
    </g>
</svg>