<?xml version="1.0" encoding="UTF-8"?>
<svg width="94px" height="94px" viewBox="0 0 94 94" version="1.1" xmlns="http://www.w3.org/2000/svg" xmlns:xlink="http://www.w3.org/1999/xlink">
    <title>autor</title>
    <g id="Elearning-eco-pulmonar-neonato---Chiesi" stroke="none" stroke-width="1" fill="none" fill-rule="evenodd">
        <g id="Landing-sign-in" transform="translate(-1069.000000, -2563.000000)">
            <g id="autores" transform="translate(1.000000, 2441.000000)">
                <g id="autor" transform="translate(1068.000000, 122.000000)">
                    <g id="persona" transform="translate(24.000000, 20.000000)" fill="#FFFFFF" fill-rule="nonzero">
                        <path d="M33.79978,47.90408 C32.1503,47.90408 30.6537,47.06408 29.79662,45.65694 C29.47476,45.12858 28.78554,44.96114 28.25746,45.283 C27.72938,45.60472 27.5618,46.29394 27.88366,46.82216 C28.47978,47.80076 29.28674,48.59092 30.22614,49.15638 L29.0654,54.42416 L26.26694,51.20178 C26.775,50.6177 26.65236,49.93534 26.21472,49.55482 C25.74824,49.1491 25.04068,49.19824 24.63468,49.665 L22.66544,51.92964 L17.70496,46.41798 C18.12706,45.60738 18.38298,44.71754 18.45606,43.79018 C28.05642,46.61622 37.66,39.37052 37.66,29.4175 L37.66,20.16 C37.66,19.54148 37.15852,19.04 36.54,19.04 C35.92148,19.04 35.42,19.54148 35.42,20.16 L35.42,29.4175 C35.42,36.44228 29.70492,42.1575 22.68,42.1575 C15.65508,42.1575 9.94,36.44242 9.94,29.4175 L9.94,19.91248 C12.67042,19.7575 14.99288,18.0432 15.82056,14.93632 C20.48396,17.9228 25.71128,19.85774 31.19704,20.62564 C31.81192,20.71132 32.37612,20.2825 32.46152,19.67168 C32.5472,19.05918 32.1202,18.49302 31.5077,18.4072 C25.9217,17.6253 20.47066,15.53468 15.62708,12.1058 C14.88662,11.58136 13.85552,12.1149 13.86,13.02714 C13.86014,13.055 13.84964,15.83274 11.74264,17.1003 C10.41026,17.90194 9.06262,17.64308 8.83078,17.64056 C8.25832,17.6351 7.77322,18.06462 7.70798,18.6312 C7.69566,18.73956 7.7,18.37066 7.7,27.59344 C6.95184,27.20536 6.44,26.43312 6.44,25.5444 L6.44,11.9 C6.44,10.43322 7.63322,9.24 9.1,9.24 C9.55794,9.24 9.96982,8.96112 10.13992,8.53594 C11.66984,4.71128 15.31992,2.24 19.43928,2.24 L29.04426,2.24 C34.56712,2.24 39.06,6.73302 39.06,12.25574 L39.06,25.5444 C39.06,26.16292 39.56148,26.6644 40.18,26.6644 C40.79852,26.6644 41.3,26.16292 41.3,25.5444 L41.3,12.25574 C41.3,5.49794 35.8022,9.9475983e-15 29.04426,9.9475983e-15 L19.43928,9.9475983e-15 C14.63448,9.9475983e-15 10.3509,2.7482 8.33938,7.05894 C5.99746,7.4256 4.2,9.45686 4.2,11.9 L4.2,25.5444 C4.2,27.6871 5.69912,29.48792 7.71134,29.97134 C7.92036,35.6916 11.35134,40.60336 16.24,42.9408 L16.24,43.2362 C16.24,44.48402 15.75336,45.65638 14.86982,46.53754 C13.3028,48.10008 11.3281,47.90408 11.55994,47.90408 C5.1709,47.90408 1.49213975e-14,53.07428 1.49213975e-14,59.46402 L1.49213975e-14,66.08 C1.49213975e-14,66.69852 0.50148,67.2000445 1.12,67.2000445 C1.73852,67.2000445 2.24,66.69852 2.24,66.08 L2.24,59.46402 C2.24,54.31272 6.4085,50.14394 11.56022,50.14408 C12.05036,50.14408 12.53966,50.092 13.0235,49.98854 L14.58632,57.08094 C14.78414,57.97904 15.92346,58.26758 16.52574,57.5743 L18.73228,55.03358 L17.36882,65.94112 C17.2921,66.55488 17.72764,67.1146 18.34126,67.19132 C18.95614,67.2679 19.51488,66.8318 19.5916,66.21888 L21.1673,53.61314 C21.23856,53.69224 21.86114,54.39042 21.94094,54.46084 C22.40322,54.86656 23.10742,54.8254 23.51846,54.36186 C23.73994,54.10832 23.16706,54.76674 24.19018,53.59018 L25.76868,66.21874 C25.84526,66.83166 26.40386,67.2679 27.01902,67.19118 C27.63278,67.11446 28.06818,66.55474 27.99146,65.94098 L26.628,55.03344 L28.83454,57.57416 C29.43766,58.2687 30.57642,57.97736 30.77396,57.0808 L32.33678,49.98812 C32.81124,50.08892 33.3004,50.1438 33.79992,50.1438 C38.95108,50.14394 43.12,54.3123 43.12,59.46402 L43.12,66.08 C43.12,66.69852 43.62148,67.2000445 44.24,67.2000445 C44.85852,67.2000445 45.36,66.69852 45.36,66.08 L45.36,59.46402 C45.36,53.07484 40.18966,47.9038 33.79978,47.90408 L33.79978,47.90408 Z M16.2946,54.42416 L15.13358,49.15484 C15.56058,48.89696 15.96112,48.58994 16.3303,48.23882 L19.04574,51.2561 L16.2946,54.42416 Z" id="Shape"></path>
                    </g>
                    <circle id="Oval" stroke="#FFFFFF" stroke-width="2" cx="47" cy="47" r="46"></circle>
                </g>
            </g>
        </g>
    </g>
</svg>