<?xml version="1.0" encoding="UTF-8"?>
<svg width="14px" height="19px" viewBox="0 0 14 19" version="1.1" xmlns="http://www.w3.org/2000/svg" xmlns:xlink="http://www.w3.org/1999/xlink">
    <title>lock - material</title>
    <g id="Elearning-eco-pulmonar-neonato---Chiesi" stroke="none" stroke-width="1" fill="none" fill-rule="evenodd">
        <g id="Landing-sign-in" transform="translate(-239.000000, -253.000000)" fill="#019FE3">
            <g id="Login" transform="translate(192.000000, 209.000000)">
                <path d="M56.58,50.68 L56.58,49 C56.58,48.5466644 56.4633345,48.120002 56.23,47.72 C55.9966655,47.319998 55.680002,47.0033345 55.28,46.77 C54.879998,46.5366655 54.4533356,46.42 54,46.42 C53.5466644,46.42 53.120002,46.5366655 52.72,46.77 C52.319998,47.0033345 52.0033345,47.319998 51.77,47.72 C51.5366655,48.120002 51.42,48.5466644 51.42,49 L51.42,50.68 L56.58,50.68 Z M54,58.18 C54.4533356,58.18 54.846665,58.013335 55.18,57.68 C55.513335,57.346665 55.68,56.9533356 55.68,56.5 C55.68,56.0466644 55.513335,55.653335 55.18,55.32 C54.846665,54.986665 54.4533356,54.82 54,54.82 C53.5466644,54.82 53.153335,54.986665 52.82,55.32 C52.486665,55.653335 52.32,56.0466644 52.32,56.5 C52.32,56.9533356 52.486665,57.346665 52.82,57.68 C53.153335,58.013335 53.5466644,58.18 54,58.18 Z M59,50.68 C59.4533356,50.68 59.846665,50.8399984 60.18,51.16 C60.513335,51.4800016 60.68,51.8666644 60.68,52.32 L60.68,60.68 C60.68,61.1333356 60.513335,61.5199984 60.18,61.84 C59.846665,62.1600016 59.4533356,62.32 59,62.32 L49,62.32 C48.5466644,62.32 48.153335,62.1600016 47.82,61.84 C47.486665,61.5199984 47.32,61.1333356 47.32,60.68 L47.32,52.32 C47.32,51.8666644 47.486665,51.4800016 47.82,51.16 C48.153335,50.8399984 48.5466644,50.68 49,50.68 L49.82,50.68 L49.82,49 C49.82,48.2399962 50.0066648,47.5400032 50.38,46.9 C50.7533352,46.2599968 51.2599968,45.7533352 51.9,45.38 C52.5400032,45.0066648 53.2399962,44.82 54,44.82 C54.7600038,44.82 55.4599968,45.0066648 56.1,45.38 C56.7400032,45.7533352 57.2466648,46.2599968 57.62,46.9 C57.9933352,47.5400032 58.18,48.2399962 58.18,49 L58.18,50.68 L59,50.68 Z" id="lock---material"></path>
            </g>
        </g>
    </g>
</svg>