<?xml version="1.0" encoding="UTF-8"?>
<svg width="69px" height="70px" viewBox="0 0 69 70" version="1.1" xmlns="http://www.w3.org/2000/svg" xmlns:xlink="http://www.w3.org/1999/xlink">
    <!-- Generator: Sketch 60 (88103) - https://sketch.com -->
    <title>study</title>
    <desc>Created with Sketch.</desc>
    <g id="Curso-citomorfologia-hematologica" stroke="none" stroke-width="1" fill="none" fill-rule="evenodd">
        <g id="Landing" transform="translate(-643.000000, -1790.000000)" fill="#B17ACE" fill-rule="nonzero">
            <g id="Testimonials" transform="translate(-0.500000, 1176.000000)">
                <g id="study" transform="translate(643.500000, 614.500000)">
                    <path d="M26.88,64.2133333 L20.0539733,64.2133333 C19.7202133,62.9290667 18.56064,61.9733333 17.1733333,61.9733333 C15.7860267,61.9733333 14.6264533,62.9290667 14.2926933,64.2133333 L6.89621333,64.2133333 L1.08042667,61.3050667 C0.84896,61.19008 0.574186667,61.2020267 0.35392,61.33792 C0.1344,61.47456 0,61.71424 0,61.9733333 L0,67.9466667 C0,68.20576 0.1344,68.44544 0.35392,68.58208 C0.474133333,68.656 0.610026667,68.6933333 0.746666667,68.6933333 C0.860906667,68.6933333 0.975146667,68.6672 1.08042667,68.6149333 L6.89621333,65.7066667 L14.2926933,65.7066667 C14.6264533,66.9909333 15.7860267,67.9466667 17.1733333,67.9466667 C18.56064,67.9466667 19.7202133,66.9909333 20.0539733,65.7066667 L26.88,65.7066667 C27.29216,65.7066667 27.6266667,65.37216 27.6266667,64.96 C27.6266667,64.54784 27.29216,64.2133333 26.88,64.2133333 Z M1.49333333,66.73856 L1.49333333,63.18144 L5.05045333,64.96 L1.49333333,66.73856 Z M17.1733333,66.4533333 C16.34976,66.4533333 15.68,65.7835733 15.68,64.96 C15.68,64.1364267 16.34976,63.4666667 17.1733333,63.4666667 C17.9969067,63.4666667 18.6666667,64.1364267 18.6666667,64.96 C18.6666667,65.7835733 17.9969067,66.4533333 17.1733333,66.4533333 Z" id="Shape"></path>
                    <path d="M61.2266667,50.7733333 L55.1473067,50.7733333 C54.8135467,49.4890667 53.6539733,48.5333333 52.2666667,48.5333333 C50.87936,48.5333333 49.7197867,49.4890667 49.3860267,50.7733333 L32.00064,50.7733333 C31.66688,49.4890667 30.5073067,48.5333333 29.12,48.5333333 C27.7326933,48.5333333 26.57312,49.4890667 26.23936,50.7733333 L18.22912,50.7733333 L19.19456,49.8078933 C19.4865067,49.5159467 19.4865067,49.0440533 19.19456,48.7521067 C18.9026133,48.46016 18.43072,48.46016 18.1387733,48.7521067 L16.1175467,50.7733333 L7.46666667,50.7733333 C5.86730667,50.7733333 4.36949333,50.15136 3.24426667,49.0186667 C2.11530667,47.8971733 1.49333333,46.39936 1.49333333,44.8 C1.49333333,41.5064533 4.17312,38.8266667 7.46666667,38.8266667 L16.4266667,38.8266667 C16.8388267,38.8266667 17.1733333,38.49216 17.1733333,38.08 C17.1733333,37.66784 16.8388267,37.3333333 16.4266667,37.3333333 L7.46666667,37.3333333 C3.34954667,37.3333333 0,40.68288 0,44.8 C0,46.7995733 0.778026667,48.6744533 2.18848,50.0744533 C3.59221333,51.48864 5.46709333,52.2666667 7.46666667,52.2666667 L16.1175467,52.2666667 L18.1387733,54.2878933 C18.2843733,54.4334933 18.47552,54.5066667 18.6666667,54.5066667 C18.8578133,54.5066667 19.04896,54.4334933 19.19456,54.2878933 C19.4865067,53.9959467 19.4865067,53.5240533 19.19456,53.2321067 L18.22912,52.2666667 L26.23936,52.2666667 C26.57312,53.5509333 27.7326933,54.5066667 29.12,54.5066667 C30.5073067,54.5066667 31.66688,53.5509333 32.00064,52.2666667 L49.3860267,52.2666667 C49.7197867,53.5509333 50.87936,54.5066667 52.2666667,54.5066667 C53.6539733,54.5066667 54.8135467,53.5509333 55.1473067,52.2666667 L61.2266667,52.2666667 C64.5202133,52.2666667 67.2,54.9464533 67.2,58.24 C67.2,59.83936 66.5780267,61.3371733 65.4453333,62.4624 C64.32384,63.59136 62.8260267,64.2133333 61.2266667,64.2133333 L57.8024533,64.2133333 L55.7812267,62.1921067 C55.48928,61.90016 55.0173867,61.90016 54.72544,62.1921067 C54.4334933,62.4840533 54.4334933,62.9559467 54.72544,63.2478933 L55.69088,64.2133333 L43.20064,64.2133333 C42.86688,62.9290667 41.7073067,61.9733333 40.32,61.9733333 C38.9326933,61.9733333 37.77312,62.9290667 37.43936,64.2133333 L32.8533333,64.2133333 C32.4411733,64.2133333 32.1066667,64.54784 32.1066667,64.96 C32.1066667,65.37216 32.4411733,65.7066667 32.8533333,65.7066667 L37.43936,65.7066667 C37.77312,66.9909333 38.9326933,67.9466667 40.32,67.9466667 C41.7073067,67.9466667 42.86688,66.9909333 43.20064,65.7066667 L55.69088,65.7066667 L54.72544,66.6721067 C54.4334933,66.9640533 54.4334933,67.4359467 54.72544,67.7278933 C54.87104,67.8734933 55.0621867,67.9466667 55.2533333,67.9466667 C55.44448,67.9466667 55.6356267,67.8734933 55.7812267,67.7278933 L57.8024533,65.7066667 L61.2266667,65.7066667 C63.22624,65.7066667 65.10112,64.92864 66.50112,63.5181867 C67.9153067,62.1144533 68.6933333,60.2395733 68.6933333,58.24 C68.6933333,54.12288 65.3437867,50.7733333 61.2266667,50.7733333 L61.2266667,50.7733333 Z M29.12,53.0133333 C28.2964267,53.0133333 27.6266667,52.3435733 27.6266667,51.52 C27.6266667,50.6964267 28.2964267,50.0266667 29.12,50.0266667 C29.9435733,50.0266667 30.6133333,50.6964267 30.6133333,51.52 C30.6133333,52.3435733 29.9435733,53.0133333 29.12,53.0133333 Z M52.2666667,53.0133333 C51.4430933,53.0133333 50.7733333,52.3435733 50.7733333,51.52 C50.7733333,50.6964267 51.4430933,50.0266667 52.2666667,50.0266667 C53.09024,50.0266667 53.76,50.6964267 53.76,51.52 C53.76,52.3435733 53.09024,53.0133333 52.2666667,53.0133333 Z M40.32,66.4533333 C39.4964267,66.4533333 38.8266667,65.7835733 38.8266667,64.96 C38.8266667,64.1364267 39.4964267,63.4666667 40.32,63.4666667 C41.1435733,63.4666667 41.8133333,64.1364267 41.8133333,64.96 C41.8133333,65.7835733 41.1435733,66.4533333 40.32,66.4533333 Z" id="Shape"></path>
                    <path d="M7.46666667,25.3866667 L16.1175467,25.3866667 L18.1387733,27.4078933 C18.2843733,27.5534933 18.47552,27.6266667 18.6666667,27.6266667 C18.8578133,27.6266667 19.04896,27.5534933 19.19456,27.4078933 C19.4865067,27.1159467 19.4865067,26.6440533 19.19456,26.3521067 L18.22912,25.3866667 L24.7460267,25.3866667 C25.0797867,26.6709333 26.23936,27.6266667 27.6266667,27.6266667 C29.0139733,27.6266667 30.1735467,26.6709333 30.5073067,25.3866667 L38.8266667,25.3866667 C39.2388267,25.3866667 39.5733333,25.05216 39.5733333,24.64 C39.5733333,24.22784 39.2388267,23.8933333 38.8266667,23.8933333 L30.5073067,23.8933333 C30.1735467,22.6090667 29.0139733,21.6533333 27.6266667,21.6533333 C26.23936,21.6533333 25.0797867,22.6090667 24.7460267,23.8933333 L18.22912,23.8933333 L19.19456,22.9278933 C19.4865067,22.6359467 19.4865067,22.1640533 19.19456,21.8721067 C18.9026133,21.58016 18.43072,21.58016 18.1387733,21.8721067 L16.1175467,23.8933333 L7.46666667,23.8933333 C5.86730667,23.8933333 4.36949333,23.27136 3.24426667,22.1386667 C2.11530667,21.0171733 1.49333333,19.51936 1.49333333,17.92 C1.49333333,14.6264533 4.17312,11.9466667 7.46666667,11.9466667 L13.5460267,11.9466667 C13.8797867,13.2309333 15.03936,14.1866667 16.4266667,14.1866667 C17.8139733,14.1866667 18.9735467,13.2309333 19.3073067,11.9466667 L29.5575467,11.9466667 L28.5921067,12.9121067 C28.30016,13.2040533 28.30016,13.6759467 28.5921067,13.9678933 C28.7377067,14.1134933 28.9288533,14.1866667 29.12,14.1866667 C29.3111467,14.1866667 29.5022933,14.1134933 29.6478933,13.9678933 L31.66912,11.9466667 L38.08,11.9466667 L38.08,17.7856 C38.08,18.1342933 38.3211733,18.4366933 38.6609067,18.5136 L49.11424,20.888 C49.1694933,20.9006933 49.2247467,20.9066667 49.28,20.9066667 C49.3352533,20.9066667 49.3905067,20.9006933 49.44576,20.888 L59.8990933,18.5136 C60.2388267,18.4359467 60.48,18.1342933 60.48,17.7856 L60.48,6.43328 L64.96,5.41482667 L64.96,12.53952 L62.78048,17.6250667 C62.6602667,17.9058133 62.7229867,18.23136 62.9387733,18.4471467 L65.1787733,20.6871467 C65.3243733,20.8334933 65.51552,20.9066667 65.7066667,20.9066667 C65.8978133,20.9066667 66.08896,20.8334933 66.23456,20.6878933 L68.47456,18.4478933 C68.6903467,18.2321067 68.7530667,17.90656 68.6328533,17.6258133 L66.4533333,12.5402667 L66.4533333,4.48 C66.4533333,4.13130667 66.21216,3.82890667 65.8724267,3.752 L49.44576,0.0186666667 C49.3367467,-0.00597333333 49.224,-0.00597333333 49.1149867,0.0186666667 L32.68832,3.752 C32.34784,3.82890667 32.1066667,4.13130667 32.1066667,4.48 C32.1066667,4.82869333 32.34784,5.13109333 32.6875733,5.208 L49.11424,8.94133333 C49.1694933,8.95402667 49.2247467,8.96 49.28,8.96 C49.3352533,8.96 49.3905067,8.95402667 49.44576,8.94133333 L58.9866667,6.77301333 L58.9866667,14.1866667 L54.5066667,14.1866667 C54.0945067,14.1866667 53.76,14.5211733 53.76,14.9333333 C53.76,15.3454933 54.0945067,15.68 54.5066667,15.68 L58.9866667,15.68 L58.9866667,17.1890133 L49.28,19.39392 L39.5733333,17.1890133 L39.5733333,8.96 C39.5733333,8.54784 39.2388267,8.21333333 38.8266667,8.21333333 C38.4145067,8.21333333 38.08,8.54784 38.08,8.96 L38.08,10.4533333 L31.66912,10.4533333 L29.6478933,8.43210667 C29.3559467,8.14016 28.8840533,8.14016 28.5921067,8.43210667 C28.30016,8.72405333 28.30016,9.19594667 28.5921067,9.48789333 L29.5575467,10.4533333 L19.3073067,10.4533333 C18.9735467,9.16906667 17.8139733,8.21333333 16.4266667,8.21333333 C15.03936,8.21333333 13.8797867,9.16906667 13.5460267,10.4533333 L7.46666667,10.4533333 C3.34954667,10.4533333 -2.84217094e-14,13.80288 -2.84217094e-14,17.92 C-2.84217094e-14,19.9195733 0.778026667,21.7944533 2.18848,23.1944533 C3.59221333,24.60864 5.46709333,25.3866667 7.46666667,25.3866667 Z M27.6266667,23.1466667 C28.45024,23.1466667 29.12,23.8164267 29.12,24.64 C29.12,25.4635733 28.45024,26.1333333 27.6266667,26.1333333 C26.8030933,26.1333333 26.1333333,25.4635733 26.1333333,24.64 C26.1333333,23.8164267 26.8030933,23.1466667 27.6266667,23.1466667 Z M65.7066667,19.1042133 L64.3522133,17.74976 L65.7066667,14.58912 L67.06112,17.74976 L65.7066667,19.1042133 Z M49.28,7.448 L36.2222933,4.48 L49.28,1.512 L62.3377067,4.48 L49.28,7.448 Z M16.4266667,9.70666667 C17.25024,9.70666667 17.92,10.3764267 17.92,11.2 C17.92,12.0235733 17.25024,12.6933333 16.4266667,12.6933333 C15.6030933,12.6933333 14.9333333,12.0235733 14.9333333,11.2 C14.9333333,10.3764267 15.6030933,9.70666667 16.4266667,9.70666667 L16.4266667,9.70666667 Z" id="Shape"></path>
                    <path d="M54.72544,40.8478933 C54.87104,40.9934933 55.0621867,41.0666667 55.2533333,41.0666667 C55.44448,41.0666667 55.6356267,40.9934933 55.7812267,40.8478933 L57.8024533,38.8266667 L61.2266667,38.8266667 C63.22624,38.8266667 65.10112,38.04864 66.50112,36.6381867 C67.9153067,35.2344533 68.6933333,33.3595733 68.6933333,31.36 C68.6933333,27.24288 65.3437867,23.8933333 61.2266667,23.8933333 L53.6539733,23.8933333 C53.3202133,22.6090667 52.16064,21.6533333 50.7733333,21.6533333 C49.3860267,21.6533333 48.2264533,22.6090667 47.8926933,23.8933333 L44.8,23.8933333 C44.38784,23.8933333 44.0533333,24.22784 44.0533333,24.64 C44.0533333,25.05216 44.38784,25.3866667 44.8,25.3866667 L47.8926933,25.3866667 C48.2264533,26.6709333 49.3860267,27.6266667 50.7733333,27.6266667 C52.16064,27.6266667 53.3202133,26.6709333 53.6539733,25.3866667 L61.2266667,25.3866667 C64.5202133,25.3866667 67.2,28.0664533 67.2,31.36 C67.2,32.95936 66.5780267,34.4571733 65.4453333,35.5824 C64.32384,36.71136 62.8260267,37.3333333 61.2266667,37.3333333 L57.8024533,37.3333333 L55.7812267,35.3121067 C55.48928,35.02016 55.0173867,35.02016 54.72544,35.3121067 C54.4334933,35.6040533 54.4334933,36.0759467 54.72544,36.3678933 L55.69088,37.3333333 L41.7073067,37.3333333 C41.3735467,36.0490667 40.2139733,35.0933333 38.8266667,35.0933333 C37.43936,35.0933333 36.2797867,36.0490667 35.9460267,37.3333333 L28.3733333,37.3333333 C27.9611733,37.3333333 27.6266667,37.66784 27.6266667,38.08 C27.6266667,38.49216 27.9611733,38.8266667 28.3733333,38.8266667 L35.9460267,38.8266667 C36.2797867,40.1109333 37.43936,41.0666667 38.8266667,41.0666667 C40.2139733,41.0666667 41.3735467,40.1109333 41.7073067,38.8266667 L55.69088,38.8266667 L54.72544,39.7921067 C54.4334933,40.0840533 54.4334933,40.5559467 54.72544,40.8478933 Z M50.7733333,26.1333333 C49.94976,26.1333333 49.28,25.4635733 49.28,24.64 C49.28,23.8164267 49.94976,23.1466667 50.7733333,23.1466667 C51.5969067,23.1466667 52.2666667,23.8164267 52.2666667,24.64 C52.2666667,25.4635733 51.5969067,26.1333333 50.7733333,26.1333333 Z M38.8266667,39.5733333 C38.0030933,39.5733333 37.3333333,38.9035733 37.3333333,38.08 C37.3333333,37.2564267 38.0030933,36.5866667 38.8266667,36.5866667 C39.65024,36.5866667 40.32,37.2564267 40.32,38.08 C40.32,38.9035733 39.65024,39.5733333 38.8266667,39.5733333 Z" id="Shape"></path>
                    <circle id="Oval" cx="41.8133333" cy="24.64" r="1"></circle>
                    <circle id="Oval" cx="29.8666667" cy="64.96" r="1"></circle>
                    <circle id="Oval" cx="19.4133333" cy="38.08" r="1"></circle>
                    <circle id="Oval" cx="22.4" cy="38.08" r="1"></circle>
                    <circle id="Oval" cx="25.3866667" cy="38.08" r="1"></circle>
                </g>
            </g>
        </g>
    </g>
</svg>