<?xml version="1.0" encoding="UTF-8"?>
<svg width="141px" height="40px" viewBox="0 0 141 40" version="1.1" xmlns="http://www.w3.org/2000/svg" xmlns:xlink="http://www.w3.org/1999/xlink">
    <!-- Generator: Sketch 58 (84663) - https://sketch.com -->
    <title>edikamed</title>
    <desc>Created with Sketch.</desc>
    <defs>
        <polygon id="path-1" points="0 38.7 140.427 38.7 140.427 0.54 0 0.54"></polygon>
    </defs>
    <g id="Curso-citomorfologia-hematologica" stroke="none" stroke-width="1" fill="none" fill-rule="evenodd">
        <g id="Landing" transform="translate(-143.000000, -42.000000)">
            <g id="Header" transform="translate(142.000000, 8.000000)">
                <g id="edikamed" transform="translate(1.000000, 34.000000)">
                    <polygon id="Fill-1" fill="#00759F" points="32.7933 20.61846 35.9505 20.61846 35.9505 1.42776 32.7933 1.42776"></polygon>
                    <polygon id="Fill-2" fill="#00759F" points="50.61447 1.07541 41.70267 9.62901 41.70267 1.07541 38.77227 1.07541 38.77227 20.61801 41.70267 20.61801 41.70267 10.25181 50.25447 20.61801 54.39987 20.61801 45.10827 9.81891 54.66987 1.07541"></polygon>
                    <polygon id="Fill-3" fill="#00759F" points="0.00081 0.94743 0.00081 20.49003 10.67211 20.49003 10.67211 17.67933 2.96091 17.67933 2.96091 11.80863 10.67211 11.80863 10.67211 9.33723 2.96091 9.33723 2.96091 3.43323 10.67211 3.43323 10.67211 0.94743"></polygon>
                    <g id="Group-32" transform="translate(0.000000, 0.360360)">
                        <path d="M16.09758,18.34452 L16.09758,2.98152 L19.79298,2.98152 C25.06428,2.98152 27.12618,5.74992 27.12618,10.65222 C27.12618,15.98472 24.66018,18.34452 19.84788,18.34452 L16.09758,18.34452 Z M20.05218,20.25792 C27.43938,20.25792 30.33558,16.81812 30.33558,10.59732 C30.33558,4.19562 27.10188,1.06722 19.95858,1.06722 L12.96468,1.06722 L12.96468,20.25792 L20.05218,20.25792 Z" id="Fill-4" fill="#00759F"></path>
                        <mask id="mask-2" fill="white">
                            <use xlink:href="#path-1"></use>
                        </mask>
                        <g id="Clip-7"></g>
                        <polygon id="Fill-6" fill="#00759F" mask="url(#mask-2)" points="0 23.9688 140.0976 23.9688 140.0976 20.6307 0 20.6307"></polygon>
                        <polygon id="Fill-8" fill="#00759F" mask="url(#mask-2)" points="74.40201 20.4003 89.48151 0.8847 92.50551 0.8847 92.59551 16.2342 103.85631 0.8892 106.82721 0.8847 106.82721 20.4003 103.93191 20.4003 103.93191 5.3469 92.12571 20.4003 89.98461 20.4003 89.98461 5.3469 77.80131 20.4003"></polygon>
                        <polygon id="Fill-9" fill="#00759F" mask="url(#mask-2)" points="109.59696 20.12958 120.27006 20.12958 120.27006 17.31888 112.55796 17.31888 112.55796 11.44818 120.27006 11.44818 120.27006 8.97678 112.55796 8.97678 112.55796 3.07278 120.27006 3.07278 120.27006 0.58698 109.59696 0.58698"></polygon>
                        <path d="M125.69499,18.34452 L125.69499,2.98152 L129.39039,2.98152 C134.66169,2.98152 136.72359,5.74992 136.72359,10.65222 C136.72359,15.98472 134.25669,18.34452 129.44529,18.34452 L125.69499,18.34452 Z M129.64959,20.25792 C137.03679,20.25792 139.93209,16.81812 139.93209,10.59732 C139.93209,4.19562 136.69929,1.06722 129.55599,1.06722 L122.56209,1.06722 L122.56209,20.25792 L129.64959,20.25792 Z" id="Fill-10" fill="#00759F" mask="url(#mask-2)"></path>
                        <path d="M54.82179,0.53964 L57.67929,0.53964 L72.38169,20.39994 L69.10749,20.39994 L64.47879,13.86594 L57.67929,13.86594 L57.67929,20.39994 L54.82179,20.39994 L54.82179,0.53964 Z M62.46369,11.79324 L57.42819,5.11704 L57.42819,11.79324 L62.46369,11.79324 Z" id="Fill-11" fill="#00759F" mask="url(#mask-2)"></path>
                        <path d="M4.69026,34.80201 C4.71546,33.75891 4.24296,32.95161 3.10086,32.95161 C2.12076,32.95161 1.53756,33.78321 1.53756,34.80201 L4.69026,34.80201 Z M1.53756,35.62101 C1.45026,36.71361 1.89666,37.84311 3.10086,37.84311 C4.01976,37.84311 4.47966,37.48311 4.61556,36.57771 L5.85756,36.57771 C5.67126,37.99251 4.57866,38.69991 3.08916,38.69991 C1.09026,38.69991 0.29556,37.28511 0.29556,35.44731 C0.29556,33.62211 1.21446,32.09481 3.18816,32.09481 C5.05026,32.13261 5.93136,33.31251 5.93136,35.03781 L5.93136,35.62101 L1.53756,35.62101 Z" id="Fill-12" fill="#00759F" mask="url(#mask-2)"></path>
                        <path d="M8.56674,35.89452 C8.59194,37.15992 9.32364,37.63242 10.52874,37.63242 C11.54664,37.63242 12.78774,37.33452 12.78774,36.07992 C12.78774,35.21142 12.06774,34.85142 11.32344,34.70292 C9.84564,34.37892 7.38774,34.04412 7.38774,32.03352 C7.38774,30.08412 9.16254,29.36412 10.83834,29.36412 C12.36564,29.36412 13.86774,30.04722 13.86774,31.78512 L12.56454,31.78512 C12.51504,30.77892 11.67084,30.43242 10.77714,30.43242 C9.89514,30.43242 8.69094,30.75462 8.69094,31.82292 C8.69094,32.83992 9.41094,32.90202 10.19304,33.15042 C11.84454,33.68412 14.09094,33.68412 14.09094,35.94402 C14.09094,37.97982 12.26664,38.69982 10.45404,38.69982 C8.57934,38.69982 7.21404,37.90512 7.26354,35.89452 L8.56674,35.89452 Z" id="Fill-13" fill="#00759F" mask="url(#mask-2)"></path>
                        <path d="M18.42759,35.48412 C17.70759,35.52192 16.75179,35.78292 16.75179,36.68922 C16.75179,37.45782 17.28549,37.84302 17.98029,37.84302 C19.37079,37.84302 19.63179,36.63882 19.60749,35.48412 L18.42759,35.48412 Z M19.60749,34.66512 C19.60749,33.58512 19.54449,32.95242 18.29079,32.95242 C17.69499,32.95242 17.13609,33.29892 17.12439,33.94512 L15.88239,33.94512 C15.94449,32.57892 17.01279,32.09472 18.24129,32.09472 C19.52019,32.09472 20.78649,32.47992 20.78649,34.21872 L20.78649,37.19772 C20.78649,37.47042 20.79909,37.99242 20.83599,38.51352 L20.04129,38.51352 C19.92969,38.51352 19.71909,38.57652 19.70649,38.42712 C19.68129,38.14092 19.65699,37.86732 19.64439,37.58292 L19.61919,37.58292 C19.23399,38.36502 18.53919,38.69982 17.68239,38.69982 C16.60239,38.69982 15.50979,38.14092 15.50979,36.92502 C15.50979,35.17362 17.06139,34.66512 18.53919,34.66512 L19.60749,34.66512 Z" id="Fill-14" fill="#00759F" mask="url(#mask-2)"></path>
                        <polygon id="Fill-15" fill="#00759F" mask="url(#mask-2)" points="22.8996 38.5137 24.0795 38.5137 24.0795 29.5506 22.8996 29.5506"></polygon>
                        <path d="M30.51171,32.28138 L31.69161,32.28138 L31.69161,38.51388 L30.53601,38.51388 L30.53601,37.59498 L30.51171,37.59498 C30.04011,38.37708 29.24541,38.70018 28.37601,38.70018 C27.07281,38.70018 26.32851,37.70658 26.32851,36.45288 L26.32851,32.28138 L27.50751,32.28138 L27.50751,35.96868 C27.50751,37.04868 27.75501,37.84338 28.88541,37.84338 C29.36961,37.84338 30.02751,37.59498 30.27591,36.94968 C30.49911,36.36558 30.51171,35.63388 30.51171,35.48448 L30.51171,32.28138 Z" id="Fill-16" fill="#00759F" mask="url(#mask-2)"></path>
                        <path d="M36.47376,37.88082 C37.90116,37.88082 38.23596,36.55152 38.23596,35.38602 C38.23596,34.25562 37.81476,32.91462 36.47376,32.91462 C35.05806,32.91462 34.71156,34.21872 34.71156,35.38602 C34.71156,36.55152 35.14536,37.88082 36.47376,37.88082 L36.47376,37.88082 Z M38.22426,29.55042 L39.40326,29.55042 L39.40326,37.40922 C39.40326,37.78182 39.44106,38.15352 39.46536,38.51352 L38.26116,38.51352 L38.22426,37.58292 L38.22426,37.52082 L38.19906,37.52082 C37.77696,38.38932 36.95796,38.69982 36.05166,38.69982 C34.20216,38.69982 33.46956,36.99972 33.46956,35.39772 C33.46956,33.70932 34.32636,32.09472 36.26316,32.09472 C37.05696,32.09472 37.83906,32.38092 38.19906,33.12612 L38.22426,33.12612 L38.22426,29.55042 Z" id="Fill-17" fill="#00759F" mask="url(#mask-2)"></path>
                        <path d="M46.01295,35.78292 C45.15615,35.78292 44.46045,35.09982 44.46045,34.23042 C44.44875,33.37362 45.14355,32.67882 46.01295,32.67882 C46.86975,32.67882 47.56455,33.37362 47.56455,34.23042 C47.56455,35.08722 46.86975,35.78292 46.01295,35.78292" id="Fill-18" fill="#00759F" mask="url(#mask-2)"></path>
                        <polygon id="Fill-19" fill="#00759F" mask="url(#mask-2)" points="52.57134 38.5137 52.57134 29.5506 58.19544 29.5506 58.19544 30.6189 53.81244 30.6189 53.81244 33.4116 57.98394 33.4116 57.98394 34.479 53.81244 34.479 53.81244 37.4454 58.29444 37.4454 58.29444 38.5137"></polygon>
                        <path d="M62.90334,37.88082 C64.33074,37.88082 64.66554,36.55152 64.66554,35.38602 C64.66554,34.25562 64.24434,32.91462 62.90334,32.91462 C61.48764,32.91462 61.14114,34.21872 61.14114,35.38602 C61.14114,36.55152 61.57494,37.88082 62.90334,37.88082 L62.90334,37.88082 Z M64.65384,29.55042 L65.83284,29.55042 L65.83284,37.40922 C65.83284,37.78182 65.86974,38.15352 65.89584,38.51352 L64.69074,38.51352 L64.65384,37.58292 L64.65384,37.52082 L64.62864,37.52082 C64.20744,38.38932 63.38754,38.69982 62.48124,38.69982 C60.63174,38.69982 59.89914,36.99972 59.89914,35.39772 C59.89914,33.70932 60.75594,32.09472 62.69274,32.09472 C63.48654,32.09472 64.26864,32.38092 64.62864,33.12612 L64.65384,33.12612 L64.65384,29.55042 Z" id="Fill-20" fill="#00759F" mask="url(#mask-2)"></path>
                        <path d="M67.9599,38.5137 L69.1389,38.5137 L69.1389,32.2812 L67.9599,32.2812 L67.9599,38.5137 Z M67.8474,30.8295 L69.2505,30.8295 L69.2505,29.5506 L67.8474,29.5506 L67.8474,30.8295 Z" id="Fill-21" fill="#00759F" mask="url(#mask-2)"></path>
                        <path d="M74.83887,34.28001 C74.77677,33.49791 74.40417,32.95161 73.55997,32.95161 C72.43047,32.95161 71.99487,33.93261 71.99487,35.39781 C71.99487,36.86211 72.43047,37.84311 73.55997,37.84311 C74.34207,37.84311 74.82627,37.33461 74.88837,36.44001 L76.06737,36.44001 C75.96837,37.84311 74.92617,38.69991 73.54737,38.69991 C71.54847,38.69991 70.75377,37.28511 70.75377,35.44731 C70.75377,33.62301 71.67267,32.09481 73.64637,32.09481 C74.96307,32.09481 75.95577,32.92731 76.01877,34.28001 L74.83887,34.28001 Z" id="Fill-22" fill="#00759F" mask="url(#mask-2)"></path>
                        <path d="M77.6232,38.5137 L78.8022,38.5137 L78.8022,32.2812 L77.6232,32.2812 L77.6232,38.5137 Z M77.5107,30.8295 L78.9138,30.8295 L78.9138,29.5506 L77.5107,29.5506 L77.5107,30.8295 Z" id="Fill-23" fill="#00759F" mask="url(#mask-2)"></path>
                        <path d="M85.55715,29.5506 L84.05505,31.338 L83.24775,31.338 L84.26565,29.5506 L85.55715,29.5506 Z M83.73195,37.8432 C85.13415,37.8432 85.59405,36.7263 85.59405,35.3979 C85.59405,34.0695 85.13415,32.9517 83.73195,32.9517 C82.32885,32.9517 81.86985,34.0695 81.86985,35.3979 C81.86985,36.7263 82.32885,37.8432 83.73195,37.8432 L83.73195,37.8432 Z M86.83605,35.3979 C86.83605,37.3338 85.78035,38.7 83.73195,38.7 C81.68355,38.7 80.62785,37.3338 80.62785,35.3979 C80.62785,33.4611 81.68355,32.0949 83.73195,32.0949 C85.78035,32.0949 86.83605,33.4611 86.83605,35.3979 L86.83605,35.3979 Z" id="Fill-24" fill="#00759F" mask="url(#mask-2)"></path>
                        <path d="M89.79345,33.20064 L89.81775,33.20064 C90.21555,32.41854 91.08495,32.09454 91.70505,32.09454 C92.13885,32.09454 94.06395,32.20704 94.06395,34.20594 L94.06395,38.51334 L92.88495,38.51334 L92.88495,34.59114 C92.88495,33.55974 92.45025,33.00174 91.45755,33.00174 C91.45755,33.00174 90.81135,32.96394 90.31455,33.46074 C90.14085,33.63444 89.81775,33.90804 89.81775,35.12484 L89.81775,38.51334 L88.63875,38.51334 L88.63875,32.28174 L89.79345,32.28174 L89.79345,33.20064 Z" id="Fill-25" fill="#00759F" mask="url(#mask-2)"></path>
                        <polygon id="Fill-26" fill="#00759F" mask="url(#mask-2)" points="107.89803 30.44439 107.87373 30.44439 105.00543 38.51379 103.83813 38.51379 100.97073 30.44439 100.94553 30.44439 100.94553 38.51379 99.70443 38.51379 99.70443 29.55069 101.92653 29.55069 104.50863 36.93699 104.53383 36.93699 107.06643 29.55069 109.13913 29.55069 109.13913 38.51379 107.89803 38.51379"></polygon>
                        <path d="M115.56297,29.5506 L114.06087,31.338 L113.25447,31.338 L114.27147,29.5506 L115.56297,29.5506 Z M115.31547,34.8021 C115.33977,33.759 114.86817,32.9517 113.72607,32.9517 C112.74507,32.9517 112.16187,33.7833 112.16187,34.8021 L115.31547,34.8021 Z M112.16187,35.6211 C112.07457,36.7137 112.52097,37.8432 113.72607,37.8432 C114.64407,37.8432 115.10307,37.4832 115.24077,36.5778 L116.48187,36.5778 C116.29467,37.9926 115.20387,38.7 113.71257,38.7 C111.71457,38.7 110.91987,37.2852 110.91987,35.4474 C110.91987,33.6222 111.83877,32.0949 113.81337,32.0949 C115.67457,32.1327 116.55657,33.3126 116.55657,35.0379 L116.55657,35.6211 L112.16187,35.6211 Z" id="Fill-27" fill="#00759F" mask="url(#mask-2)"></path>
                        <path d="M120.86721,37.88082 C122.29461,37.88082 122.63031,36.55152 122.63031,35.38602 C122.63031,34.25562 122.20821,32.91462 120.86721,32.91462 C119.45241,32.91462 119.10411,34.21872 119.10411,35.38602 C119.10411,36.55152 119.53881,37.88082 120.86721,37.88082 L120.86721,37.88082 Z M122.61771,29.55042 L123.79761,29.55042 L123.79761,37.40922 C123.79761,37.78182 123.83451,38.15352 123.85881,38.51352 L122.65461,38.51352 L122.61771,37.58292 L122.61771,37.52082 L122.59251,37.52082 C122.17041,38.38932 121.35141,38.69982 120.44511,38.69982 C118.59561,38.69982 117.86301,36.99972 117.86301,35.39772 C117.86301,33.70932 118.71891,32.09472 120.65661,32.09472 C121.45041,32.09472 122.23341,32.38092 122.59251,33.12612 L122.61771,33.12612 L122.61771,29.55042 Z" id="Fill-28" fill="#00759F" mask="url(#mask-2)"></path>
                        <path d="M125.9226,38.5137 L127.1025,38.5137 L127.1025,32.2812 L125.9226,32.2812 L125.9226,38.5137 Z M125.811,30.8295 L127.215,30.8295 L127.215,29.5506 L125.811,29.5506 L125.811,30.8295 Z" id="Fill-29" fill="#00759F" mask="url(#mask-2)"></path>
                        <path d="M132.80184,34.28001 C132.73974,33.49791 132.36804,32.95161 131.52294,32.95161 C130.39344,32.95161 129.95874,33.93261 129.95874,35.39781 C129.95874,36.86211 130.39344,37.84311 131.52294,37.84311 C132.30504,37.84311 132.78924,37.33461 132.85224,36.44001 L134.03034,36.44001 C133.93134,37.84311 132.88914,38.69991 131.51034,38.69991 C129.51234,38.69991 128.71764,37.28511 128.71764,35.44731 C128.71764,33.62301 129.63564,32.09481 131.61024,32.09481 C132.92604,32.09481 133.91874,32.92731 133.98174,34.28001 L132.80184,34.28001 Z" id="Fill-30" fill="#00759F" mask="url(#mask-2)"></path>
                        <path d="M138.01905,35.48412 C137.29905,35.52192 136.34325,35.78292 136.34325,36.68922 C136.34325,37.45782 136.87695,37.84302 137.57175,37.84302 C138.96225,37.84302 139.22325,36.63882 139.19895,35.48412 L138.01905,35.48412 Z M139.19895,34.66512 C139.19895,33.58512 139.13595,32.95242 137.88315,32.95242 C137.28735,32.95242 136.72755,33.29892 136.71585,33.94512 L135.47385,33.94512 C135.53595,32.57892 136.60425,32.09472 137.83275,32.09472 C139.11165,32.09472 140.37795,32.47992 140.37795,34.21872 L140.37795,37.19772 C140.37795,37.47042 140.39055,37.99242 140.42745,38.51352 L139.63275,38.51352 C139.52115,38.51352 139.31055,38.57652 139.29795,38.42712 C139.27365,38.14092 139.24755,37.86732 139.23585,37.58292 L139.21065,37.58292 C138.82545,38.36502 138.13065,38.69982 137.27475,38.69982 C136.19475,38.69982 135.10215,38.14092 135.10215,36.92502 C135.10215,35.17362 136.65285,34.66512 138.13065,34.66512 L139.19895,34.66512 Z" id="Fill-31" fill="#00759F" mask="url(#mask-2)"></path>
                    </g>
                </g>
            </g>
        </g>
    </g>
</svg>